<svg width="402" height="280" viewBox="0 0 402 280" fill="none" xmlns="http://www.w3.org/2000/svg">
<path d="M307.855 188.928C307.685 188.928 307.515 188.919 307.345 188.908C307.845 185.969 308.365 183.019 309.055 180.059C309.715 182.908 310.225 185.739 310.705 188.579C309.771 188.8 308.815 188.918 307.855 188.928Z" fill="black"/>
<path d="M311.075 190.749C311.055 192.449 311.055 194.149 311.055 195.849C311.055 197.709 311.065 199.579 311.055 201.439V254.869C310.445 258.439 309.855 261.999 309.055 265.559C308.255 261.999 307.665 258.439 307.055 254.869V196.099C307.055 194.319 307.055 192.529 307.035 190.749C307.105 190.349 307.165 189.959 307.235 189.559C308.439 189.7 309.657 189.677 310.855 189.489C310.935 189.909 311.005 190.329 311.075 190.749Z" fill="black"/>
<path d="M243.205 100.389C243.205 100.389 243.415 100.759 243.825 101.339L243.805 101.359L240.865 104.509C239.665 105.359 238.465 106.209 237.175 106.969C237.855 105.639 238.625 104.389 239.385 103.129L241.615 100.759C242.585 100.559 243.205 100.389 243.205 100.389Z" fill="black"/>
<path d="M260.775 81.7886C260.085 83.1086 259.315 84.3687 258.555 85.6187L255.605 88.7686L255.065 89.3386C254.346 89.0983 253.61 88.9078 252.865 88.7686L254.145 87.3987L257.095 84.2485C258.295 83.4084 259.495 82.5686 260.775 81.7886Z" fill="black"/>
<path d="M293.462 106.015C293.618 105.668 293.856 105.366 294.157 105.134C294.383 104.964 294.647 104.854 294.926 104.813C295.205 104.775 295.489 104.809 295.751 104.914C296.101 105.054 296.411 105.281 296.649 105.574H296.652L296.665 105.593L296.652 105.611L296.655 105.611C296.5 105.956 296.26 106.256 295.958 106.483C295.733 106.651 295.468 106.759 295.188 106.794C294.908 106.828 294.624 106.79 294.362 106.685C294.012 106.539 293.702 106.309 293.462 106.015Z" fill="#020202"/>
<path d="M252.728 111.426L230.847 114.13C223.553 115.026 216.256 115.897 208.957 116.744C194.356 118.422 179.766 120.198 165.154 121.779L121.333 126.639L77.4869 131.269L77.4815 131.27C77.3604 131.282 77.2381 131.269 77.1221 131.232C70.8709 129.207 64.6128 127.202 58.379 125.122L39.6604 118.934C33.4168 116.884 27.1834 114.802 20.9603 112.688L2.29004 106.35L21.1707 112.031C27.4639 113.926 33.7474 115.851 40.0212 117.806L58.8535 123.639C65.1365 125.566 71.3955 127.568 77.6611 129.549L77.2966 129.512L121.119 124.659L164.966 120.037C179.577 118.458 194.21 117.073 208.832 115.59C216.142 114.846 223.457 114.137 230.775 113.463L252.728 111.426Z" fill="#020202"/>
<path d="M2.28711 115.668C8.48291 117.825 14.6397 120.084 20.8149 122.295L39.2783 129.09L48.5061 132.498L57.7041 135.983L76.1003 142.952L75.6306 142.896C84.3975 141.712 93.1821 140.665 101.96 139.565L128.299 136.314L154.662 133.242C163.457 132.278 172.247 131.275 181.052 130.388C172.307 131.745 163.548 132.987 154.793 134.268L128.506 137.93L102.197 141.415C93.4246 142.56 84.6592 143.758 75.8765 144.818L75.8655 144.82C75.71 144.838 75.5524 144.818 75.4063 144.762L57.0694 137.637L47.9009 134.075L38.762 130.436L20.4922 123.136C14.4231 120.648 8.33545 118.209 2.28711 115.668Z" fill="#020202"/>
<path d="M75.009 233.413C74.8212 224.818 74.7608 216.227 74.8276 207.639C74.8666 199.049 75.0226 190.463 75.2013 181.877C75.4172 173.292 75.6583 164.708 76.016 156.126C76.3451 147.543 76.8037 138.964 77.3918 130.388C77.582 138.982 77.6435 147.573 77.5763 156.162C77.5366 164.751 77.3806 173.337 77.1994 181.923C76.9808 190.508 76.7399 199.093 76.3817 207.675C76.0517 216.257 75.5941 224.836 75.009 233.413Z" fill="#020202"/>
<path d="M343.237 37.8245C342.007 37.2746 340.877 36.5215 339.897 35.597C338.925 34.6448 338.084 33.5676 337.396 32.3936C336.722 31.2133 336.163 29.9702 335.729 28.6817C335.292 27.3796 334.977 26.0397 334.787 24.6793C334.779 24.617 334.781 24.5538 334.792 24.492L334.813 24.3797C335.122 22.9819 335.28 21.5551 335.286 20.1236C335.296 18.6983 335.146 17.2763 334.838 15.8846C334.225 13.1109 333.072 10.4849 331.445 8.1561L331.555 8.27158C329.825 6.61755 327.898 5.18238 325.817 3.99837C323.706 2.83953 321.413 2.04705 319.037 1.65462C314.161 1.03887 309.217 2.0101 304.936 4.42441C303.86 5.00021 302.823 5.6451 301.83 6.35506C301.335 6.70858 300.85 7.07455 300.382 7.45566C300.163 7.63681 299.888 7.86191 299.741 8.0145C299.555 8.21494 299.364 8.44883 299.181 8.67564C297.749 10.5824 296.671 12.7304 295.998 15.0176C295.321 17.2934 294.966 19.6527 294.942 22.0269C294.967 24.4091 295.252 26.7813 295.794 29.1011C295.83 29.2669 295.833 29.4379 295.803 29.6048C295.576 30.8553 295.333 32.0784 295.056 33.3143C294.791 34.5731 294.456 35.8162 294.053 37.0377C293.865 37.6094 293.416 38.6077 293.516 38.4C293.475 38.3284 293.54 38.516 293.892 38.762C294.694 39.2499 295.609 39.52 296.547 39.5455L296.643 39.5418C296.852 39.5345 297.061 39.5787 297.25 39.6705C297.438 39.7623 297.602 39.8989 297.726 40.0684C299.127 42.0084 300.609 43.9214 302.079 45.8162C303.512 47.6977 305.067 49.4831 306.734 51.1609C306.94 51.3482 307.145 51.5247 307.346 51.6783C307.442 51.7454 307.543 51.8174 307.625 51.867L307.737 51.929C307.77 51.9468 307.762 51.9344 307.775 51.9488C307.814 51.9708 307.688 51.9275 307.653 51.9627C307.623 51.9812 307.752 51.9422 307.794 51.9351C307.925 51.9076 308.054 51.8734 308.181 51.8326C308.444 51.7593 308.717 51.6629 308.987 51.5718C310.082 51.1685 311.143 50.6779 312.159 50.1048C314.24 49.0342 316.031 47.4758 317.379 45.5628L317.411 45.5125C317.439 45.4703 317.474 45.4338 317.515 45.4052C317.556 45.3766 317.603 45.3564 317.652 45.3457C317.701 45.3351 317.752 45.3342 317.801 45.3431C317.85 45.352 317.898 45.3706 317.94 45.3978L317.981 45.4285C318.58 45.9348 319.137 46.4884 319.646 47.0841C319.905 47.3819 320.136 47.7023 320.337 48.0413C320.555 48.3816 320.705 48.761 320.778 49.1583C320.782 49.1891 320.775 49.2204 320.757 49.2461C320.74 49.2718 320.713 49.29 320.683 49.297C320.653 49.304 320.621 49.2994 320.594 49.2841C320.567 49.2687 320.546 49.2438 320.537 49.2142L320.534 49.2069C320.25 48.5313 319.806 47.9343 319.241 47.4666C318.697 46.9606 318.113 46.4987 317.496 46.0855L318.098 45.9512C316.891 48.1868 315.121 50.0686 312.964 51.4105C311.916 52.1114 310.813 52.7266 309.665 53.2501C309.369 53.3751 309.08 53.5079 308.763 53.6151C308.612 53.6729 308.451 53.7266 308.28 53.7745C308.182 53.8078 308.082 53.8332 307.98 53.8507C307.79 53.8805 307.596 53.878 307.407 53.8431C306.98 53.7438 306.576 53.5627 306.218 53.3099C305.923 53.1131 305.657 52.9093 305.401 52.703C303.538 51.0532 301.808 49.2593 300.227 47.338C298.623 45.4813 297.125 43.5655 295.629 41.616L296.807 42.1385C296.022 42.1878 295.236 42.1025 294.48 41.8863C293.737 41.6953 293.031 41.3797 292.392 40.9529C292.001 40.6937 291.66 40.3654 291.386 39.984C291.03 39.4993 290.848 38.9087 290.869 38.3077C290.876 38.0141 290.936 37.7241 291.045 37.4515L291.185 37.0985L291.261 36.9288C291.364 36.7115 291.463 36.4347 291.557 36.1705C292.292 33.8629 292.901 31.5171 293.381 29.1434L293.39 29.6466C292.873 27.1225 292.638 24.5489 292.689 21.973C292.792 19.3854 293.299 16.8299 294.192 14.399C294.41 13.7923 294.689 13.2066 294.946 12.6173C295.256 12.0499 295.516 11.4602 295.867 10.9175C296.517 9.80239 297.279 8.75646 298.141 7.79597C298.364 7.55597 298.58 7.32207 298.832 7.08452C299.087 6.86613 299.354 6.66118 299.63 6.47053C300.149 6.10163 300.677 5.75519 301.214 5.42316C302.285 4.75641 303.404 4.17756 304.531 3.62385C309.055 1.34787 314.102 0.315786 319.157 0.633368C321.708 0.847701 324.206 1.48782 326.546 2.52717C328.891 3.58414 331.063 4.98688 332.992 6.68854C333.028 6.7205 333.062 6.75555 333.093 6.79328L333.101 6.80428C334.089 8.06851 334.911 9.45406 335.546 10.9271C336.189 12.3742 336.661 13.8909 336.955 15.4469C337.277 16.9995 337.399 18.5869 337.319 20.1705C337.249 21.7481 337.002 23.3129 336.584 24.8358L336.61 24.5367C336.706 25.7864 336.915 27.0248 337.234 28.2367C337.544 29.4663 337.964 30.6654 338.489 31.8197C339.021 32.9724 339.693 34.0553 340.49 35.0441C341.312 36.034 342.277 36.8968 343.352 37.6044L343.36 37.6097C343.385 37.6274 343.403 37.654 343.41 37.6843C343.417 37.7146 343.412 37.7464 343.397 37.7734C343.382 37.8004 343.357 37.8207 343.327 37.8301C343.297 37.8396 343.265 37.8376 343.237 37.8246L343.237 37.8245Z" fill="black"/>
<path d="M298.019 36.4241C297.803 36.4244 297.59 36.3683 297.403 36.2612C297.215 36.1541 297.058 35.9999 296.949 35.8137L293.523 30.0051C293.44 29.8647 293.385 29.7093 293.362 29.5477C293.339 29.3861 293.347 29.2215 293.388 29.0633C293.429 28.9052 293.5 28.7566 293.598 28.6261C293.696 28.4955 293.819 28.3856 293.959 28.3027C294.1 28.2197 294.256 28.1652 294.417 28.1425C294.579 28.1197 294.743 28.1291 294.902 28.17C295.06 28.211 295.208 28.2827 295.338 28.3811C295.469 28.4795 295.578 28.6026 295.661 28.7434L299.087 34.552C299.198 34.7404 299.257 34.9549 299.259 35.1737C299.261 35.3925 299.204 35.6079 299.096 35.7979C298.987 35.988 298.831 36.146 298.642 36.256C298.452 36.366 298.237 36.4239 298.019 36.4241Z" fill="black"/>
<path d="M295.344 31.2698C295.212 31.2696 295.084 31.2274 294.978 31.1492C294.871 31.0711 294.792 30.961 294.753 30.8351C294.713 30.7091 294.715 30.5739 294.757 30.4488C294.8 30.3238 294.881 30.2156 294.989 30.1399C296.79 28.884 312.686 17.8948 316.067 18.0305C316.149 18.0343 316.228 18.054 316.302 18.0886C316.376 18.1232 316.442 18.172 316.497 18.2322C316.552 18.2924 316.595 18.3628 316.623 18.4395C316.65 18.5162 316.663 18.5975 316.659 18.679C316.649 18.8426 316.576 18.996 316.455 19.1065C316.334 19.217 316.174 19.276 316.011 19.2708C315.995 19.2698 315.979 19.2698 315.963 19.2698C313.621 19.2698 302.321 26.5393 295.699 31.1575C295.595 31.2303 295.471 31.2695 295.344 31.2698Z" fill="black"/>
<path d="M314.252 21.6294C314.23 20.7027 314.528 19.7968 315.096 19.064C315.267 18.8648 315.477 18.702 315.712 18.5852C315.947 18.4684 316.204 18.3999 316.466 18.3838L316.865 18.3774C316.993 18.3921 317.112 18.429 317.237 18.4556C317.481 18.5026 317.716 18.5851 317.936 18.7004C318.367 18.8977 318.775 19.1431 319.151 19.4319C319.495 19.7349 319.857 20.0105 320.185 20.3418C320.842 21.0123 321.385 21.786 321.791 22.6321C322.569 24.3349 322.789 26.2395 322.421 28.0747C322.254 28.9876 321.9 29.856 321.381 30.6255C321.115 31.025 320.749 31.3478 320.32 31.562C320.106 31.6704 319.861 31.7045 319.626 31.6589C319.39 31.6133 319.176 31.4907 319.018 31.3103C319.189 31.4212 319.39 31.4761 319.593 31.4673C319.796 31.4586 319.992 31.3866 320.153 31.2615C320.462 31.007 320.704 30.6808 320.859 30.3113C321.195 29.5581 321.399 28.7529 321.463 27.9307C321.623 26.2973 321.348 24.6507 320.668 23.1572C320.33 22.423 319.88 21.7454 319.335 21.1482C319.07 20.8416 318.752 20.566 318.463 20.2698C318.161 20.0098 317.84 19.7732 317.502 19.562C317.224 19.334 316.878 19.2045 316.519 19.1936C316.159 19.1827 315.806 19.291 315.515 19.5017C314.905 20.0802 314.467 20.8168 314.252 21.6294Z" fill="black"/>
<path d="M299.175 44.5571C300.126 44.4517 301.067 44.2742 301.991 44.0264C302.415 43.9084 302.825 43.7479 303.217 43.5471C303.638 43.3557 304.031 43.0864 304.545 42.8257C304.462 43.3872 304.203 43.9081 303.807 44.3147C303.411 44.742 302.906 45.0532 302.346 45.2148C301.797 45.3759 301.217 45.4034 300.654 45.2949C300.099 45.2008 299.584 44.944 299.175 44.5571Z" fill="black"/>
<path d="M295.344 26.9557C295.299 26.1052 295.577 25.2691 296.122 24.6146C296.664 23.9403 297.378 23.4251 298.189 23.1234C298.974 22.8345 299.808 22.7011 300.644 22.7306C301.049 22.7608 301.453 22.8128 301.852 22.8861C302.245 22.9871 302.631 23.1145 303.006 23.2677C302.621 23.3666 302.23 23.4427 301.836 23.4955C301.456 23.5651 301.084 23.6478 300.716 23.6964C300.007 23.8354 299.311 24.0309 298.634 24.2809C297.262 24.766 296.099 25.7111 295.344 26.9557Z" fill="black"/>
<path d="M300.55 32.2599C300.911 32.2473 301.254 32.0947 301.506 31.8343C301.758 31.5738 301.898 31.2257 301.898 30.8636C301.898 30.5014 301.758 30.1534 301.506 29.8929C301.254 29.6324 300.911 29.4798 300.55 29.4673C300.188 29.4798 299.845 29.6324 299.593 29.8929C299.341 30.1534 299.201 30.5014 299.201 30.8636C299.201 31.2257 299.341 31.5738 299.593 31.8343C299.845 32.0947 300.188 32.2473 300.55 32.2599Z" fill="black"/>
<path d="M328.699 67.6509C327.279 66.468 325.668 65.5358 323.935 64.8941C322.225 64.2531 320.451 63.7994 318.644 63.5408C316.826 63.2675 314.991 63.1165 313.153 63.0889L310.366 63.1019C309.435 63.1443 308.501 63.1907 307.55 63.1829C308.455 62.919 309.377 62.7093 310.302 62.4959C311.235 62.3543 312.175 62.2112 313.121 62.1209C315.027 61.9681 316.944 62.0333 318.835 62.3153C320.743 62.5945 322.595 63.1671 324.327 64.0128C326.073 64.8292 327.579 66.0823 328.699 67.6509Z" fill="black"/>
<path d="M259.049 118.568C259.58 116.809 260.284 115.107 261.153 113.489C262 111.851 262.992 110.292 264.116 108.831C265.234 107.344 266.541 106.009 268.003 104.859C269.45 103.678 271.165 102.869 272.996 102.502C271.391 103.304 269.92 104.347 268.632 105.596C267.347 106.829 266.165 108.164 265.098 109.589C262.895 112.409 261.011 115.478 259.049 118.568Z" fill="black"/>
<path d="M303.006 137.651C303.565 137.793 304.146 137.822 304.717 137.738C305.283 137.675 305.84 137.549 306.378 137.361L307.17 137.048C307.431 136.937 307.674 136.783 307.926 136.653C308.426 136.384 308.904 136.076 309.356 135.732C311.172 134.353 312.789 132.729 314.161 130.907C314.826 129.976 315.501 129.052 316.136 128.102C316.732 127.122 317.373 126.172 317.932 125.17L319.596 122.155L321.112 119.056C323.115 114.891 325.075 110.681 327.146 106.539L330.247 100.32C331.322 98.2671 332.357 96.1961 333.465 94.1616C332.609 96.3218 331.682 98.4456 330.793 100.588L328.006 106.953C326.137 111.194 324.218 115.396 322.231 119.59C320.294 123.851 317.831 127.854 314.901 131.504C313.395 133.317 311.642 134.909 309.693 136.234C309.196 136.553 308.674 136.833 308.133 137.07C307.86 137.184 307.599 137.321 307.319 137.416L306.472 137.674C305.341 138.017 304.133 138.009 303.006 137.651Z" fill="black"/>
<path d="M301.86 109.677C301.785 109.677 301.712 109.663 301.642 109.637L296.087 107.551C295.933 107.493 295.809 107.376 295.742 107.226C295.674 107.077 295.668 106.906 295.726 106.753C295.784 106.599 295.9 106.474 296.05 106.406C296.199 106.338 296.369 106.332 296.523 106.389L302.078 108.475C302.214 108.526 302.328 108.623 302.4 108.75C302.471 108.876 302.496 109.024 302.47 109.167C302.445 109.31 302.369 109.439 302.258 109.532C302.146 109.626 302.005 109.677 301.86 109.677V109.677Z" fill="black"/>
<path d="M256.236 108.131C254.9 108.548 253.485 108.642 252.106 108.404C250.706 108.15 249.366 107.639 248.153 106.896C246.95 106.163 245.842 105.282 244.855 104.276C243.867 103.259 242.989 102.14 242.237 100.938L243.499 101.462C240.936 102.12 238.292 102.405 235.648 102.31C234.295 102.289 232.954 102.061 231.67 101.635C230.984 101.403 230.377 100.984 229.916 100.426C229.676 100.14 229.494 99.8097 229.378 99.4545C229.293 99.0796 229.293 98.6907 229.378 98.3158C229.564 97.6303 229.926 97.0055 230.429 96.5036C230.875 96.0068 231.366 95.5513 231.894 95.1425C232.916 94.3203 233.992 93.5668 235.114 92.8871C237.323 91.5196 239.626 90.3087 242.005 89.2633C243.203 88.7723 244.325 88.1993 245.701 87.777C247.042 87.3684 248.433 87.1511 249.835 87.1315C251.22 87.1255 252.599 87.3107 253.933 87.6818C255.253 88.0112 256.535 88.4738 257.761 89.0626C260.148 90.2296 262.361 91.7246 264.335 93.5043C266.301 95.2233 268.046 97.1797 269.53 99.3285C269.547 99.3534 269.554 99.3837 269.551 99.4137C269.547 99.4437 269.533 99.4714 269.511 99.4917C269.488 99.5119 269.459 99.5233 269.429 99.5238C269.399 99.5242 269.369 99.5136 269.346 99.494L269.34 99.4889C265.612 96.1115 261.365 93.3552 256.762 91.3251C255.653 90.8526 254.5 90.4924 253.319 90.2501C252.178 89.9423 251.003 89.7809 249.821 89.7699C248.655 89.7335 247.49 89.8561 246.357 90.1344C245.261 90.3993 244.051 90.9202 242.856 91.3426C240.482 92.2484 238.091 93.109 235.773 94.1236C234.625 94.636 233.514 95.2273 232.449 95.8934C231.936 96.2334 231.457 96.6201 231.016 97.0484C230.593 97.4388 230.282 97.9337 230.112 98.4832C230.044 98.7383 230.047 99.0071 230.12 99.2607C230.194 99.5143 230.335 99.743 230.529 99.9224C230.904 100.346 231.406 100.637 231.961 100.752C233.157 100.996 234.387 101.028 235.595 100.848C238.058 100.464 240.5 99.9523 242.911 99.3152C243.149 99.2599 243.399 99.2807 243.626 99.3747C243.852 99.4687 244.044 99.6312 244.173 99.8394C244.825 100.904 245.57 101.91 246.398 102.844C247.218 103.8 248.134 104.67 249.131 105.439C250.122 106.208 251.224 106.821 252.4 107.256C253.616 107.694 254.902 107.907 256.194 107.886C256.227 107.886 256.259 107.898 256.284 107.921C256.308 107.944 256.322 107.976 256.322 108.009C256.322 108.036 256.314 108.062 256.299 108.084C256.283 108.106 256.261 108.122 256.236 108.131Z" fill="black"/>
<path d="M277.224 195.416L280.011 202.226C280.024 202.257 280.028 202.292 280.021 202.325C280.015 202.358 279.999 202.389 279.976 202.413C279.953 202.438 279.923 202.455 279.89 202.463C279.857 202.47 279.822 202.468 279.791 202.457L279.78 202.453C278.381 201.907 276.916 201.55 275.422 201.391C273.937 201.266 272.442 201.378 270.992 201.721C268.109 202.533 265.49 204.089 263.398 206.233C261.28 208.365 259.451 210.767 257.959 213.376C256.427 215.964 255.139 218.69 254.111 221.517L254.108 221.523C254.073 221.62 254.01 221.703 253.926 221.763C253.843 221.822 253.743 221.855 253.64 221.856C253.538 221.857 253.437 221.827 253.352 221.77C253.267 221.712 253.201 221.63 253.164 221.534L247.753 207.553L242.432 193.538L243.42 193.299L245.325 212.681C245.94 219.143 246.61 225.6 247.283 232.056C247.288 232.099 247.279 232.142 247.258 232.179C245.795 234.48 243.582 236.204 240.994 237.062C238.459 237.935 235.809 238.43 233.13 238.532C230.464 238.659 227.792 238.597 225.135 238.346C222.475 238.107 219.832 237.711 217.219 237.16C217.156 237.147 217.1 237.115 217.056 237.069C217.012 237.023 216.983 236.964 216.973 236.901L216.972 236.893C215.452 227.09 214.176 217.256 213.143 207.391C212.139 197.523 211.374 187.624 211.117 177.691C211.097 175.206 211.073 172.721 211.109 170.235L211.233 166.505L211.302 164.64L211.455 162.776L211.77 159.048L212.334 155.335C212.531 154.094 212.803 152.867 213.149 151.66C213.307 151.052 213.447 150.438 213.622 149.835L214.285 148.062L214.957 146.293C215.235 145.726 215.542 145.171 215.833 144.61C216.135 144.055 216.407 143.482 216.735 142.942L217.827 141.385C218.561 140.351 219.381 139.381 220.279 138.485C220.729 138.037 221.204 137.616 221.702 137.224C222.171 136.796 222.675 136.409 223.209 136.066L224.806 135.032L226.508 134.186C227.08 133.915 227.667 133.678 228.268 133.478C228.857 133.248 229.461 133.06 230.076 132.915C232.523 132.245 235.067 132.002 237.596 132.197L237.189 132.429C237.719 131.288 238.375 130.211 239.144 129.216C239.932 128.241 240.824 127.355 241.803 126.572C243.788 125.063 246.022 123.915 248.404 123.178C250.764 122.451 253.197 121.986 255.659 121.792C258.11 121.578 260.575 121.585 263.024 121.815C263.04 121.816 263.055 121.824 263.066 121.837C263.076 121.85 263.081 121.866 263.08 121.882C263.077 121.899 263.069 121.914 263.056 121.924C263.043 121.934 263.027 121.939 263.011 121.938C260.571 121.781 258.122 121.845 255.693 122.129C253.271 122.39 250.885 122.918 248.578 123.703C246.278 124.457 244.127 125.605 242.222 127.097C241.298 127.86 240.458 128.721 239.719 129.664C239.003 130.621 238.396 131.655 237.908 132.746C237.875 132.819 237.821 132.88 237.752 132.922C237.684 132.963 237.604 132.983 237.524 132.979L237.502 132.978C232.621 132.703 227.791 134.085 223.794 136.899C219.894 139.824 216.982 143.871 215.448 148.499L214.812 150.208C214.645 150.793 214.512 151.39 214.36 151.98C214.026 153.155 213.764 154.349 213.577 155.556L213.034 159.192L212.734 162.871L212.587 164.711L212.524 166.559L212.41 170.257C212.377 172.725 212.42 175.195 212.429 177.665C212.611 187.548 213.322 197.428 214.234 207.284C215.128 217.143 216.255 226.98 217.615 236.794L217.369 236.528C219.947 237.113 222.557 237.546 225.186 237.825C227.815 238.123 230.463 238.212 233.106 238.093C235.745 238.008 238.357 237.537 240.858 236.693C243.37 235.889 245.513 234.217 246.904 231.977L246.879 232.1C246.164 225.648 245.445 219.196 244.672 212.751L242.401 193.409C242.387 193.285 242.418 193.161 242.489 193.058C242.56 192.956 242.666 192.883 242.786 192.853C242.907 192.823 243.035 192.838 243.146 192.895C243.256 192.953 243.342 193.048 243.387 193.164L243.389 193.171L248.795 207.154L254.104 221.174L253.158 221.192C254.23 218.308 255.567 215.53 257.153 212.895C258.719 210.239 260.638 207.807 262.855 205.665C265.075 203.476 267.832 201.908 270.849 201.121C272.368 200.79 273.931 200.715 275.475 200.899C277.003 201.109 278.496 201.523 279.915 202.127L279.683 202.354L277.109 195.462C277.103 195.447 277.104 195.43 277.11 195.415C277.117 195.4 277.129 195.388 277.144 195.382C277.159 195.376 277.176 195.377 277.191 195.383C277.206 195.389 277.218 195.401 277.224 195.416H277.224Z" fill="black"/>
<path d="M242.911 193.354L244.016 203.581L237.177 164.795L244.648 197.884L242.911 193.354Z" fill="black"/>
<path d="M293.57 138.731C279.771 138.731 239.392 133.456 237.468 133.203C237.387 133.193 237.309 133.167 237.238 133.126C237.168 133.085 237.106 133.031 237.056 132.967C237.006 132.902 236.969 132.828 236.948 132.749C236.927 132.67 236.921 132.588 236.932 132.507C236.943 132.426 236.969 132.348 237.01 132.278C237.051 132.207 237.105 132.145 237.17 132.095C237.235 132.046 237.309 132.009 237.387 131.988C237.466 131.967 237.549 131.962 237.63 131.973C238.158 132.041 290.582 138.886 297.11 137.25C297.189 137.23 297.271 137.226 297.352 137.237C297.433 137.249 297.51 137.276 297.58 137.318C297.651 137.36 297.712 137.415 297.761 137.481C297.809 137.546 297.845 137.621 297.865 137.7C297.885 137.779 297.889 137.861 297.877 137.942C297.865 138.023 297.837 138.1 297.795 138.17C297.753 138.24 297.697 138.301 297.632 138.35C297.566 138.399 297.492 138.434 297.412 138.453C296.145 138.682 294.857 138.775 293.57 138.731Z" fill="black"/>
<path d="M387.675 70.6286C387.675 70.6286 342.995 60.2084 331.975 113.528C320.955 166.839 318.145 162.968 318.145 162.968C298.035 192.119 258.815 174.238 249.915 169.649C248.904 169.101 247.751 168.873 246.608 168.997C245.465 169.12 244.386 169.588 243.515 170.339C241.125 172.528 241.495 176.069 241.495 176.069L241.665 180.079C241.696 180.725 241.865 181.357 242.162 181.931C242.459 182.506 242.876 183.01 243.385 183.408C257.885 194.928 283.695 197.319 307.055 196.099C308.395 196.028 309.735 195.948 311.055 195.849C331.245 194.439 348.955 190.478 354.915 187.698C368.315 181.439 372.185 184.119 393.035 129.008C413.895 73.9083 387.675 70.6286 387.675 70.6286ZM396.565 85.3185L396.555 85.3085C390.696 82.1159 383.951 80.9354 377.355 81.9484C370.875 83.0385 365.205 86.8285 360.865 91.6984C358.677 94.1611 356.728 96.8265 355.045 99.6584C353.324 102.5 351.794 105.453 350.465 108.498C347.845 114.649 345.656 120.974 343.915 127.428C343.065 130.669 342.175 133.919 341.415 137.198C341.015 138.839 340.545 140.458 340.125 142.089C339.705 143.718 339.255 145.339 338.795 146.958C337.097 153.501 334.989 159.93 332.485 166.208C331.855 167.778 331.095 169.299 330.365 170.829C329.545 172.329 328.795 173.849 327.865 175.279C326.11 178.229 324.012 180.961 321.615 183.419C319.211 185.931 316.247 187.84 312.965 188.989C312.277 189.211 311.571 189.379 310.855 189.489C309.658 189.677 308.44 189.7 307.235 189.559C305.72 189.373 304.262 188.868 302.955 188.079C302.944 188.072 302.934 188.062 302.926 188.052C302.918 188.041 302.913 188.028 302.91 188.015C302.907 188.002 302.907 187.988 302.91 187.975C302.912 187.962 302.918 187.95 302.925 187.939C302.937 187.919 302.956 187.904 302.978 187.896C303 187.889 303.024 187.89 303.045 187.899L303.055 187.908C304.403 188.528 305.862 188.868 307.345 188.908C307.515 188.919 307.685 188.928 307.856 188.928C308.815 188.918 309.771 188.8 310.705 188.579C311.357 188.425 311.998 188.231 312.626 187.998C315.643 186.727 318.336 184.792 320.505 182.339C322.727 179.895 324.685 177.223 326.345 174.369C327.225 172.958 327.975 171.468 328.775 170.018C329.485 168.508 330.305 167.058 330.965 165.528C333.82 159.463 336.226 153.196 338.165 146.778C339.165 143.568 339.935 140.298 340.725 137.038C341.485 133.758 342.115 130.468 342.856 127.169C344.231 120.536 346.199 114.04 348.735 107.758C351.239 101.374 354.806 95.4605 359.285 90.2685C361.607 87.687 364.32 85.4868 367.325 83.7485C370.349 82.0181 373.675 80.8811 377.126 80.3986C383.994 79.6207 390.916 81.2998 396.665 85.1383C396.677 85.1455 396.686 85.1548 396.694 85.1657C396.702 85.1767 396.707 85.189 396.71 85.2021C396.713 85.2152 396.713 85.2286 396.71 85.2418C396.708 85.2549 396.703 85.2674 396.695 85.2785C396.681 85.2989 396.661 85.3139 396.637 85.3212C396.614 85.3284 396.588 85.3275 396.565 85.3185H396.565Z" fill="black"/>
<path d="M352.653 264.896C352.632 265.923 352.307 266.921 351.719 267.763C351.142 268.593 350.444 269.332 349.649 269.957C348.069 271.198 346.345 272.245 344.514 273.075C340.86 274.74 337.049 276.039 333.138 276.95C325.324 278.804 317.303 279.637 309.276 279.431C301.276 279.222 293.312 278.268 285.49 276.581C281.565 275.788 277.719 274.644 273.999 273.164C272.112 272.41 270.324 271.428 268.675 270.241C267.821 269.622 267.069 268.873 266.447 268.022C265.777 267.113 265.393 266.025 265.343 264.896C265.344 263.753 265.682 262.635 266.317 261.683C266.911 260.784 267.641 259.982 268.48 259.306C270.09 258.004 271.872 256.929 273.774 256.112C277.488 254.489 281.363 253.265 285.336 252.462C293.209 250.821 301.234 250.019 309.276 250.071C317.312 250.034 325.325 250.952 333.145 252.805C337.056 253.729 340.866 255.033 344.522 256.699C346.354 257.531 348.078 258.58 349.658 259.825C350.453 260.451 351.15 261.193 351.725 262.025C352.312 262.869 352.634 263.868 352.653 264.896ZM352.405 264.896C352.369 262.916 350.963 261.271 349.429 260.112C347.839 258.949 346.096 258.013 344.248 257.332C340.549 255.965 336.718 254.985 332.817 254.405C325.026 253.232 317.155 252.668 309.276 252.719C301.407 252.683 293.551 253.362 285.805 254.749C281.964 255.449 278.199 256.51 274.558 257.919C272.781 258.617 271.095 259.527 269.536 260.631C268.047 261.723 266.764 263.2 266.702 264.896C266.65 266.598 267.88 268.213 269.341 269.406C270.859 270.627 272.54 271.632 274.334 272.391C277.968 273.943 281.764 275.084 285.651 275.793C289.541 276.523 293.476 276.989 297.429 277.187C301.376 277.429 305.331 277.452 309.276 277.364C317.16 277.246 325.027 276.597 332.825 275.424C336.725 274.833 340.555 273.846 344.256 272.479C346.105 271.796 347.849 270.858 349.437 269.691C350.971 268.529 352.375 266.876 352.405 264.896Z" fill="black"/>
<path d="M244.826 234.714C245.479 235.908 245.962 237.186 246.26 238.513C246.605 239.824 246.869 241.151 247.096 242.483C247.539 245.148 247.9 247.826 248.151 250.512C248.268 251.87 248.4 253.171 248.465 254.574C248.498 255.992 248.257 257.403 247.755 258.729C247.502 259.397 247.17 260.033 246.766 260.623C246.358 261.194 245.911 261.735 245.429 262.245C244.469 263.261 243.36 264.127 242.141 264.812C239.715 266.138 237.034 266.929 234.277 267.131C232.913 267.25 231.54 267.217 230.184 267.034C229.502 266.951 228.828 266.811 228.169 266.616C227.515 266.414 226.887 266.185 226.25 265.955C221.154 264.103 216.52 261.286 211.508 259.363C206.529 257.379 201.391 255.707 196.457 253.459C193.938 252.379 191.546 251.027 189.322 249.425C188.2 248.585 187.187 247.608 186.309 246.516C185.805 245.901 185.48 245.16 185.368 244.373C185.311 243.968 185.32 243.557 185.396 243.156C185.484 242.768 185.622 242.392 185.806 242.039C186.571 240.763 187.702 239.746 189.051 239.119C190.319 238.488 191.683 238.073 193.088 237.889C193.783 237.797 194.484 237.752 195.185 237.754C195.881 237.782 196.601 237.835 197.237 237.887C198.548 237.997 199.886 237.997 201.22 237.978C206.57 237.871 211.935 237.353 217.284 236.782C217.301 236.78 217.317 236.785 217.33 236.795C217.343 236.805 217.351 236.82 217.353 236.836C217.355 236.852 217.351 236.868 217.342 236.88C217.332 236.893 217.319 236.902 217.303 236.905C212.001 237.921 206.64 238.604 201.252 238.948C199.897 239.005 198.54 239.045 197.165 238.968C196.46 238.93 195.835 238.904 195.187 238.893C194.543 238.91 193.9 238.97 193.264 239.072C192.001 239.275 190.777 239.672 189.636 240.249C188.535 240.771 187.611 241.606 186.981 242.649C186.723 243.134 186.621 243.687 186.687 244.233C186.753 244.779 186.985 245.291 187.351 245.701C188.166 246.704 189.093 247.611 190.114 248.402C192.239 249.98 194.531 251.32 196.947 252.399C201.785 254.684 206.845 256.517 211.775 258.738C214.245 259.829 216.644 261.073 219.044 262.291C221.406 263.566 223.864 264.655 226.395 265.55C227.631 266.039 228.924 266.368 230.243 266.528C231.563 266.646 232.892 266.618 234.206 266.443C236.826 266.133 239.351 265.274 241.616 263.921C242.727 263.254 243.74 262.435 244.625 261.487C245.523 260.577 246.242 259.505 246.742 258.327C247.215 257.137 247.453 255.866 247.444 254.585C247.407 253.299 247.295 251.918 247.202 250.593C246.994 247.917 246.797 245.238 246.452 242.579C246.236 239.911 245.653 237.286 244.719 234.778L244.717 234.772C244.71 234.757 244.709 234.741 244.715 234.726C244.72 234.711 244.731 234.699 244.745 234.692C244.758 234.684 244.775 234.683 244.79 234.687C244.805 234.691 244.818 234.701 244.826 234.714L244.826 234.714Z" fill="black"/>
<path d="M222.18 237.725C222.302 239.159 222.512 240.584 222.808 241.993C223.078 243.381 223.485 244.74 224.025 246.047C224.502 247.302 225.326 248.397 226.401 249.202C226.921 249.551 227.519 249.767 228.142 249.833C228.788 249.882 229.437 249.814 230.059 249.633C231.377 249.242 232.622 248.635 233.742 247.837C234.904 247.076 235.942 246.141 236.82 245.064C238.615 242.85 239.643 240.114 239.749 237.266C240.12 240.233 239.349 243.23 237.591 245.649C235.796 248.098 233.27 249.913 230.376 250.832C229.606 251.043 228.804 251.112 228.009 251.037C227.192 250.945 226.41 250.647 225.739 250.17C224.508 249.207 223.598 247.894 223.129 246.403C222.225 243.605 221.902 240.652 222.18 237.725Z" fill="black"/>
<path d="M200.762 245.556C200.423 244.771 200.308 243.907 200.429 243.06C200.533 242.188 200.845 241.354 201.341 240.629C201.834 239.905 202.493 239.309 203.264 238.891C203.635 238.684 204.028 238.518 204.436 238.397C204.843 238.294 205.259 238.229 205.678 238.201C205.356 238.489 205.017 238.697 204.707 238.943C204.411 239.207 204.084 239.409 203.82 239.683C203.685 239.816 203.547 239.94 203.406 240.06L203.036 240.47C202.788 240.735 202.564 241.021 202.367 241.326C201.539 242.606 200.991 244.048 200.762 245.556Z" fill="black"/>
<path d="M207.464 245.556C207.119 244.785 207.011 243.928 207.154 243.095C207.279 242.257 207.562 241.451 207.989 240.72C208.42 240.004 208.965 239.363 209.602 238.823C209.92 238.561 210.254 238.321 210.603 238.104C210.964 237.906 211.338 237.734 211.724 237.59C211.502 237.927 211.262 238.251 211.005 238.563L210.306 239.489C209.858 240.086 209.442 240.707 209.059 241.348C208.279 242.643 207.738 244.069 207.464 245.556Z" fill="black"/>
<path d="M219.143 268.915C216.819 268.159 214.578 267.169 212.453 265.961C208.829 263.888 202.499 260.326 200.712 259.631C195.077 257.422 188.389 255.139 185.979 251.44C181.873 245.135 185.978 241.879 185.978 241.879C187.277 248.815 195.4 252.706 207.017 257.174C218.634 261.642 220.074 263.752 228.017 266.333C232.237 267.711 241.806 266.892 246.311 260.301C246.633 259.833 246.907 259.334 247.131 258.812L247.956 252.335C254.053 276.515 228.079 271.807 219.143 268.915Z" fill="black"/>
<path d="M255.691 250.346C254.45 249.941 253.368 249.155 252.598 248.102C251.827 247.048 251.408 245.778 251.398 244.473C251.287 242.602 251.776 240.745 252.795 239.171C253.813 237.598 255.307 236.391 257.06 235.727C263.35 233.078 266.329 225.386 267.45 221.578C268.388 218.341 269.84 215.276 271.749 212.499C274.881 207.985 279.795 203.47 285.791 206.695C287.87 207.879 289.447 209.778 290.231 212.039C291.732 216.067 294.139 220.044 287.624 228.905C286.567 230.322 285.425 231.674 284.205 232.953C282.316 234.992 280.837 237.374 279.847 239.971C278.942 242.503 270.081 254.923 255.691 250.346Z" fill="black"/>
<path d="M256.879 214.304C257.507 217.517 257.503 220.821 256.866 224.032C256.265 227.265 255.149 230.38 253.561 233.259C252.768 234.676 251.897 236.047 250.951 237.367C250.531 238.009 250.199 238.704 249.963 239.433C249.756 240.176 249.671 240.946 249.711 241.716C249.708 243.3 249.991 244.872 250.546 246.356C250.79 247.114 251.227 247.795 251.815 248.332C252.402 248.869 253.12 249.243 253.896 249.418C253.074 249.351 252.294 249.026 251.668 248.489C251.05 247.936 250.552 247.263 250.202 246.511C249.51 245.011 249.112 243.392 249.03 241.742C248.956 240.899 249.004 240.05 249.173 239.221C249.367 238.394 249.676 237.598 250.092 236.857C250.943 235.409 251.785 234.135 252.501 232.696C253.975 229.884 255.092 226.9 255.829 223.812C256.603 220.704 256.956 217.506 256.879 214.304Z" fill="black"/>
<path d="M277.191 201.436C277.781 201.474 278.36 201.618 278.901 201.859C279.434 202.084 279.938 202.373 280.402 202.719C280.874 203.071 281.292 203.49 281.643 203.964C282.022 204.443 282.256 205.022 282.316 205.63C281.828 205.258 281.39 204.963 280.956 204.647L279.655 203.71C278.744 203.055 277.917 202.291 277.191 201.436Z" fill="black"/>
<path d="M261.165 120.249C261.167 120.268 261.165 120.287 261.16 120.305C261.155 120.324 261.146 120.341 261.134 120.356C261.121 120.371 261.107 120.383 261.09 120.392C261.073 120.401 261.054 120.407 261.035 120.409L221.125 126.009L182.125 131.309L182.385 174.209L182.505 196.119L182.565 218.029C182.567 218.392 182.437 218.744 182.2 219.02C181.963 219.295 181.635 219.476 181.275 219.529H181.265L128.255 227.289L75.2154 234.859H75.2054C74.9176 234.9 74.6241 234.851 74.3653 234.719L37.8953 216.529L1.47539 198.239H1.4654C1.29529 198.153 1.15262 198.022 1.05361 197.859C0.954594 197.696 0.903217 197.509 0.905336 197.319L1.4654 151.839C1.6754 136.669 1.6954 121.509 1.82527 106.349C1.82625 106.234 1.86967 106.123 1.94722 106.038C2.02477 105.953 2.13097 105.9 2.24542 105.889L31.9153 102.749L33.1453 102.619L33.4153 102.589C33.2554 102.969 33.0953 103.349 32.9453 103.739L32.0752 103.829L2.7554 106.769C2.7654 121.799 2.66531 136.819 2.7554 151.839L2.9554 196.689L39.0455 214.209L75.2354 231.909L127.806 224.159L179.535 216.719L179.595 196.119L179.725 174.209L179.995 130.389V130.379C179.996 130.123 180.089 129.877 180.259 129.685C180.428 129.494 180.662 129.37 180.915 129.339L220.945 124.649L261.005 120.119C261.024 120.117 261.044 120.119 261.062 120.124C261.08 120.13 261.097 120.139 261.112 120.151C261.127 120.163 261.139 120.178 261.148 120.195C261.158 120.211 261.163 120.23 261.165 120.249Z" fill="black"/>
<path d="M34.5249 102.469C34.6648 102.829 34.8149 103.189 34.9548 103.539C34.4148 103.589 33.875 103.649 33.335 103.699C33.545 103.309 33.7549 102.919 33.9548 102.529L34.5249 102.469Z" fill="black"/>
<path d="M35.2852 102.389C36.175 102.299 37.0652 102.209 37.9551 102.109C37.7952 102.499 37.635 102.899 37.4751 103.289C36.915 103.339 36.3552 103.399 35.7952 103.459C35.6253 103.099 35.4551 102.749 35.2852 102.389Z" fill="black"/>
<path d="M38.875 102.489L39.1348 103.119C38.9548 103.139 38.7749 103.159 38.605 103.179C38.6948 102.949 38.7848 102.719 38.875 102.489Z" fill="black"/>
<path d="M42.305 101.639H42.4048L41.9548 102.849C41.335 102.909 40.7148 102.969 40.105 103.029L39.6948 101.919C40.565 101.829 41.4348 101.729 42.305 101.639Z" fill="black"/>
<path d="M42.945 102.139L43.155 102.729C43.0151 102.749 42.865 102.759 42.7251 102.769L42.945 102.139Z" fill="black"/>
<path d="M46.7253 101.469L46.3154 102.429L43.7954 102.669L43.4453 101.619C44.5354 101.589 45.6352 101.539 46.7253 101.469Z" fill="black"/>
<path d="M47.0251 101.569L47.3352 102.329C47.1252 102.349 46.9152 102.369 46.7051 102.389L47.0251 101.569Z" fill="black"/>
<path d="M300.205 92.3386C300.196 92.3753 300.174 92.4072 300.142 92.4276C300.111 92.4481 300.072 92.4556 300.035 92.4485L274.695 87.0987C266.295 85.3187 257.905 83.5154 249.525 81.6887L218.755 85.1384L187.865 88.4485L156.965 91.7485L126.055 94.8786C115.745 95.9284 105.435 96.8884 95.1253 97.8586L64.185 100.749C59.425 101.189 54.6684 101.635 49.915 102.089C49.145 102.158 48.3752 102.229 47.6052 102.309L47.2852 101.429C48.2051 101.359 49.1252 101.279 50.0551 101.159C49.5051 101.089 48.945 101.029 48.395 100.969C48.9751 100.909 49.5451 100.839 50.115 100.779C54.7551 100.259 59.3918 99.7353 64.0251 99.2086L94.905 95.7386C105.195 94.5687 115.485 93.4085 125.785 92.3487L156.695 89.0987L187.615 86.0286L218.535 82.9685L249.465 80.0586H249.485C249.566 80.0549 249.646 80.0616 249.725 80.0786C258.135 82.0386 266.535 84.0353 274.925 86.0686L300.095 92.1585C300.114 92.1625 300.133 92.1705 300.149 92.1819C300.165 92.1933 300.179 92.2079 300.189 92.2247C300.199 92.2416 300.206 92.2604 300.209 92.28C300.212 92.2996 300.21 92.3196 300.205 92.3386Z" fill="black"/>
<path d="M90.0552 188.579V223.639L168.695 213.509V179.549L90.0552 188.579ZM134.735 203.559C128.935 203.559 128.945 194.559 134.735 194.559C140.535 194.559 140.525 203.559 134.735 203.559V203.559Z" fill="black"/>
<path d="M90.0552 147.228V182.288L168.695 172.158V138.198L90.0552 147.228ZM134.735 162.208C128.935 162.208 128.945 153.208 134.735 153.208C140.535 153.208 140.525 162.208 134.735 162.208V162.208Z" fill="black"/>
<path d="M264.084 94.3976L264.097 94.3965C265.747 93.9744 267.41 93.628 269.067 93.2422C270.728 92.8831 272.39 92.5308 274.057 92.2027C274.145 92.1852 274.237 92.1953 274.319 92.2317L274.342 92.242C277.836 93.7808 281.296 95.3904 284.741 97.0306C288.182 98.6805 291.608 100.361 295.001 102.111L295.028 102.125C295.129 102.177 295.205 102.267 295.24 102.375C295.274 102.483 295.264 102.601 295.212 102.701C295.179 102.765 295.13 102.82 295.071 102.86C295.011 102.9 294.942 102.925 294.871 102.931C293.447 103.06 292.025 103.207 290.597 103.307C289.17 103.411 287.745 103.536 286.313 103.607C287.716 103.309 289.125 103.066 290.531 102.802C291.937 102.534 293.35 102.312 294.759 102.073L294.629 102.893C291.13 101.367 287.664 99.7706 284.212 98.1439C280.765 96.5074 277.332 94.8402 273.933 93.1026L274.218 93.142C272.538 93.389 270.853 93.6114 269.168 93.8275C267.477 94.0167 265.794 94.2455 264.097 94.3983H264.097L264.084 94.3976Z" fill="black"/>
<path d="M256.849 107.455L256.836 107.455L248.5 108.791C245.722 109.244 242.935 109.622 240.153 110.041C237.368 110.442 234.588 110.879 231.8 111.25L223.438 112.385C223.348 112.396 223.258 112.387 223.173 112.358C219.812 111.201 216.437 110.084 213.092 108.881L203.04 105.326C202.972 105.303 202.91 105.266 202.856 105.218C202.803 105.171 202.759 105.113 202.728 105.049C202.697 104.984 202.678 104.914 202.674 104.843C202.67 104.771 202.68 104.7 202.704 104.632C202.736 104.54 202.792 104.458 202.867 104.395C202.941 104.332 203.031 104.29 203.127 104.273C207.628 103.505 212.149 102.851 216.662 102.145C221.174 101.442 225.698 100.807 230.226 100.194C225.752 101.119 221.273 102.023 216.784 102.86C212.293 103.693 207.812 104.578 203.311 105.348L203.398 104.296L213.489 107.74C216.859 108.871 220.199 110.088 223.553 111.264L223.288 111.237L231.662 110.192C234.453 109.836 237.252 109.546 240.046 109.22C242.842 108.912 245.634 108.564 248.435 108.29C251.235 108.005 254.032 107.701 256.836 107.454H256.836L256.849 107.455Z" fill="black"/>
<path d="M224.368 89.7089C221.359 90.5831 218.333 91.3805 215.314 92.2108C214.557 92.411 213.807 92.6378 213.044 92.8085L210.749 93.2882L206.166 94.2792L203.875 94.7748C203.042 95.0008 202.173 95.053 201.319 94.9281C200.414 94.7894 199.572 94.38 198.904 93.7538C198.566 93.4129 198.306 93.0026 198.143 92.5513C197.979 92.0999 197.915 91.6184 197.956 91.14C198.147 89.4208 198.931 87.8217 200.173 86.618C200.768 86.0255 201.442 85.5176 202.175 85.1088C202.536 84.9079 202.908 84.7275 203.289 84.5685C203.638 84.4198 203.982 84.2608 204.322 84.0914C207.067 82.8199 209.379 80.7707 210.97 78.1979C211.718 76.9078 212.213 75.4873 212.43 74.0121C212.626 72.5631 212.628 70.9537 212.706 69.4025L213.471 50.662L213.485 50.8197C213.41 50.613 213.304 50.4186 213.172 50.2425C213.019 50.0329 212.845 49.8396 212.652 49.6659C212.229 49.3182 211.775 49.0114 211.294 48.7494C210.266 48.2073 209.166 47.8144 208.027 47.5826C206.852 47.3544 205.662 47.2105 204.466 47.152C203.262 47.0848 202.052 47.0924 200.836 47.1127C202.038 46.9479 203.244 46.7662 204.466 46.7113C205.696 46.6415 206.928 46.66 208.154 46.7667C209.417 46.8882 210.655 47.1906 211.832 47.6644C212.446 47.9231 213.01 48.2893 213.496 48.746C214.051 49.2299 214.467 49.8546 214.697 50.5543C214.709 50.5929 214.715 50.6331 214.713 50.6735L214.711 50.7125L213.946 69.454C213.864 71.0231 213.875 72.5492 213.657 74.2006C213.417 75.8281 212.87 77.3952 212.045 78.8187C210.332 81.6039 207.837 83.8242 204.872 85.2037C204.512 85.3834 204.147 85.552 203.777 85.7096C203.437 85.8512 203.105 86.012 202.782 86.1913C202.149 86.5443 201.566 86.9827 201.052 87.4943C200.027 88.4854 199.372 89.7972 199.195 91.2118C199.163 91.5142 199.199 91.82 199.299 92.1071C199.4 92.3941 199.563 92.6551 199.777 92.8712C200.263 93.3154 200.871 93.6051 201.522 93.7037C202.221 93.8034 202.933 93.755 203.612 93.5617L205.904 93.066L210.487 92.0751L212.775 91.564C213.54 91.4044 214.318 91.3009 215.089 91.1705C218.181 90.6796 221.266 90.1559 224.368 89.7089Z" fill="black"/>
<path d="M205.385 33.7183C206.715 35.2283 207.945 36.8284 209.575 38.3785L192.145 59.9683C191.845 39.4185 177.555 38.3785 177.555 38.3785L201.045 29.4385C201.861 30.0867 202.639 30.7811 203.375 31.5183C204.075 32.2283 204.725 32.9683 205.385 33.7183Z" fill="black"/>
<path d="M217.025 38.3785H209.575C209.471 37.2706 209.169 36.1904 208.685 35.1885C208.221 34.1828 207.619 33.247 206.895 32.4082C206.163 31.5507 205.291 30.8238 204.315 30.2583C203.326 29.6777 202.191 29.3932 201.045 29.4385L204.365 23.1782L217.025 38.3785Z" fill="black"/>
<path d="M192.148 59.9709C189.922 59.2849 187.846 58.1845 186.029 56.7275C184.169 55.2894 182.548 53.5671 181.225 51.624C180.881 51.146 180.57 50.645 180.295 50.1248C180.018 49.6052 179.697 49.1096 179.46 48.571C178.967 47.5046 178.563 46.3992 178.252 45.2661C177.608 43.0296 177.37 40.6955 177.552 38.375C178.143 40.543 178.869 42.672 179.725 44.7495C180.565 46.7718 181.621 48.6977 182.874 50.4939C184.102 52.3137 185.503 54.0108 187.058 55.5618C188.645 57.1531 190.346 58.6267 192.148 59.9709Z" fill="black"/>
<path d="M186.042 53.0453C193.229 53.0453 193.241 41.875 186.042 41.875C178.854 41.875 178.842 53.0453 186.042 53.0453Z" fill="black"/>
<path d="M133.877 98.6293L152.253 95.4462C158.513 94.3808 164.851 93.2873 171.175 92.4689L171.195 92.4662C171.288 92.4539 171.384 92.4715 171.467 92.5165L178.819 96.4804C181.263 97.8151 183.732 99.1015 186.198 100.392C188.656 101.7 191.152 102.933 193.633 104.196C196.112 105.463 198.621 106.669 201.114 107.909C201.177 107.94 201.229 107.99 201.262 108.053C201.295 108.115 201.307 108.186 201.298 108.256C201.288 108.326 201.256 108.391 201.208 108.442C201.159 108.493 201.095 108.527 201.026 108.54L201.013 108.542C194.741 109.676 188.464 110.783 182.176 111.824C175.891 112.884 169.607 113.947 163.307 114.91L163.301 114.911C163.163 114.932 163.022 114.908 162.899 114.842C157.934 112.177 153.016 109.393 148.149 106.662C143.317 103.906 138.561 101.211 133.877 98.6293ZM134 98.6503C139.071 101.279 144.07 103.794 148.993 106.249C153.882 108.728 158.719 111.154 163.51 113.699L163.102 113.631C169.387 112.574 175.688 111.617 181.989 110.655C188.286 109.676 194.594 108.762 200.907 107.876L200.806 108.509C198.346 107.204 195.904 105.867 193.431 104.589C190.959 103.308 188.503 101.997 186.009 100.76C183.523 99.5068 181.04 98.249 178.532 97.0392L171.028 93.3705L171.319 93.4182C165.206 94.4985 159.109 95.3036 152.932 96.1372L143.568 97.361L134 98.6503Z" fill="black"/>
<path d="M155.832 102.55C157.181 102.25 158.543 102.018 159.916 101.856C161.215 102.063 162.521 102.229 163.824 102.417L171.643 103.512L179.462 104.609L183.372 105.156C184.622 105.713 185.875 106.258 187.109 106.934C185.737 107.244 184.383 107.424 183.027 107.615L179.117 107.067L171.298 105.971L163.479 104.875C162.175 104.698 160.874 104.497 159.568 104.339C158.293 103.806 157.046 103.209 155.832 102.55Z" fill="black"/>
<path d="M54.2451 105.569L72.6216 102.386C78.8809 101.321 85.2195 100.227 91.5427 99.4089L91.563 99.4062C91.6566 99.3938 91.7517 99.4114 91.8347 99.4565L99.187 103.42C101.631 104.755 104.1 106.041 106.566 107.332C109.024 108.64 111.52 109.873 114.001 111.136C116.48 112.403 118.99 113.609 121.482 114.849C121.546 114.88 121.597 114.93 121.63 114.993C121.663 115.055 121.675 115.126 121.666 115.196C121.656 115.266 121.625 115.331 121.576 115.382C121.527 115.433 121.464 115.467 121.394 115.48L121.382 115.482C115.109 116.616 108.832 117.723 102.544 118.764C96.2595 119.823 89.9753 120.887 83.6753 121.85L83.6692 121.851C83.5313 121.872 83.3902 121.848 83.2673 121.782C78.3023 119.117 73.3845 116.333 68.5176 113.602C63.685 110.846 58.929 108.151 54.2451 105.569ZM54.3677 105.59C59.4392 108.219 64.4385 110.734 69.3613 113.189C74.2495 115.668 79.0874 118.094 83.8777 120.639L83.47 120.571C89.7551 119.514 96.0561 118.557 102.356 117.595C108.654 116.616 114.962 115.702 121.275 114.816L121.174 115.449C118.715 114.144 116.272 112.807 113.799 111.529C111.327 110.248 108.872 108.936 106.377 107.7C103.892 106.447 101.408 105.189 98.8999 103.979L91.396 100.31L91.6875 100.358C85.5745 101.438 79.477 102.244 73.3 103.077L63.9358 104.301L54.3677 105.59Z" fill="black"/>
<path d="M99.6981 103.98C101.951 103.52 104.208 103.086 106.469 102.678C108.732 102.284 110.989 101.851 113.257 101.49C117.791 100.757 122.318 99.9743 126.874 99.3796L126.898 99.3766C126.996 99.3635 127.096 99.3823 127.184 99.4301L134.512 103.441C136.954 104.78 139.423 106.065 141.895 107.345C144.38 108.6 146.865 109.856 149.375 111.062L156.888 114.712C156.981 114.757 157.057 114.831 157.105 114.921C157.154 115.012 157.172 115.116 157.158 115.218C157.144 115.32 157.098 115.415 157.027 115.489C156.955 115.564 156.862 115.614 156.761 115.632L156.742 115.635L147.321 117.265C144.18 117.804 141.038 118.335 137.891 118.834C134.742 119.324 131.594 119.815 128.438 120.258C125.282 120.706 122.131 121.178 118.969 121.583L118.947 121.586C118.871 121.595 118.795 121.58 118.729 121.543C116.043 120.023 113.37 118.477 110.712 116.905C110.698 116.897 110.688 116.884 110.684 116.868C110.68 116.853 110.682 116.836 110.689 116.822C110.697 116.808 110.709 116.797 110.724 116.792C110.74 116.787 110.756 116.788 110.771 116.795C113.559 118.123 116.331 119.481 119.087 120.87L118.848 120.83C121.978 120.225 125.119 119.688 128.256 119.127C131.393 118.56 134.537 118.042 137.681 117.522C140.826 117.012 143.977 116.534 147.128 116.062L156.586 114.664L156.439 115.587L149.096 111.605C146.654 110.266 144.186 108.977 141.719 107.688C139.239 106.424 136.756 105.165 134.246 103.96L126.718 100.337L127.027 100.388C122.502 101.179 117.948 101.783 113.401 102.435C111.129 102.767 108.845 103.027 106.568 103.327C104.289 103.614 102.005 103.873 99.7168 104.103C99.701 104.105 99.6851 104.1 99.6725 104.09C99.6599 104.08 99.6516 104.066 99.6492 104.05C99.6467 104.035 99.6505 104.019 99.6596 104.006C99.6687 103.992 99.6824 103.983 99.698 103.98L99.6981 103.98Z" fill="black"/>
<path d="M253.085 43.9287C252.565 45.3989 251.975 46.8389 251.385 48.2788L249.035 52.2388L244.525 59.8589H242.785L243.055 59.4087L247.745 51.4788L250.095 47.5088C251.075 46.3088 252.045 45.0989 253.085 43.9287Z" fill="black"/>
<path d="M242.105 48.9082L241.545 53.8084L240.855 59.8584H239.345L240.055 53.6382L240.605 48.7383C241.015 47.1284 241.415 45.5183 241.915 43.9282C242.035 45.5984 242.075 47.2483 242.105 48.9082Z" fill="black"/>
<path d="M235.915 59.8587H236.865L236.335 56.1487L235.905 53.1687L235.245 48.4887C234.795 46.9687 234.355 45.4387 233.825 43.9287C233.755 45.2387 233.735 46.5387 233.745 47.8387V48.7087L233.935 49.9987L234.425 53.3787L235.355 59.8587H235.915Z" fill="black"/>
<path d="M232.745 59.8589H231.235L230.295 53.3789L229.625 48.7087C229.615 47.1189 229.615 45.5288 229.705 43.9287C230.235 45.439 230.675 46.9687 231.125 48.4888L231.785 53.1689L232.425 57.6289L232.745 59.8589Z" fill="black"/>
<path d="M233.935 49.1186V49.9985L233.925 53.7185V59.8586H232.425V49.1187C232.645 47.5887 232.865 46.0586 233.175 44.5186C233.395 45.6287 233.585 46.7386 233.745 47.8386C233.815 48.2685 233.875 48.6887 233.935 49.1186Z" fill="black"/>
<path d="M238.555 49.8882L238.035 54.4583L237.425 59.8585H235.915L236.335 56.1485L236.545 54.2884L237.055 49.7183C237.445 48.2183 237.835 46.7183 238.315 45.2383C238.455 46.7884 238.505 48.3384 238.555 49.8882Z" fill="black"/>
<path d="M228.115 65.9786V71.3788C228.375 71.3488 228.635 71.3288 228.895 71.2987L231.145 66.2487C230.135 66.1786 229.125 66.0988 228.115 65.9786ZM231.425 66.3387L229.015 71.2888C230.465 71.1386 231.925 71.0388 233.375 70.9787L231.425 66.3387ZM231.745 66.2888L233.805 70.7287L235.445 66.4389C234.215 66.4188 232.975 66.3588 231.745 66.2887L231.745 66.2888ZM235.965 66.8688L234.275 70.9487C235.345 70.9087 236.405 70.8886 237.475 70.8788L235.965 66.8688ZM238.095 66.4787C237.575 66.4687 237.045 66.4587 236.525 66.4587L238.055 70.2287L239.355 66.4587C238.935 66.4686 238.515 66.4686 238.095 66.4786L238.095 66.4787ZM240.025 67.4287L238.715 70.8789C239.555 70.8887 240.395 70.8989 241.235 70.9287C240.815 69.7587 240.415 68.5988 240.025 67.4286V67.4287ZM240.725 66.4389C241.155 67.6289 241.565 68.8188 241.965 70.0088C242.505 68.7788 243.035 67.5588 243.585 66.3389C242.635 66.3886 241.685 66.4188 240.725 66.4388L240.725 66.4389ZM244.145 66.8989C243.645 68.2588 243.126 69.6089 242.605 70.9688C243.755 71.0088 244.905 71.0789 246.045 71.1788C245.385 69.7587 244.765 68.3388 244.145 66.8988L244.145 66.8989ZM228.115 59.8589V65.9788C231.429 65.6176 234.762 65.4506 238.095 65.4788C238.705 65.4788 239.315 65.4888 239.925 65.4988C240.014 65.4738 240.107 65.4738 240.195 65.4988C241.475 65.5188 242.745 65.5689 244.015 65.6387C244.048 65.6275 244.081 65.6208 244.115 65.6189C244.167 65.6192 244.218 65.6294 244.265 65.6489C245.535 65.7288 246.805 65.8289 248.075 65.9788V59.8589L228.115 59.8589ZM230.445 64.3289C230.056 64.3161 229.687 64.1524 229.416 63.8725C229.146 63.5926 228.994 63.2184 228.994 62.8289C228.994 62.4395 229.146 62.0653 229.416 61.7854C229.687 61.5055 230.056 61.3418 230.445 61.3289C230.834 61.3426 231.202 61.5066 231.472 61.7864C231.743 62.0662 231.894 62.4399 231.894 62.8289C231.894 63.2178 231.743 63.5916 231.472 63.8714C231.202 64.1512 230.834 64.3151 230.445 64.3287L230.445 64.3289ZM235.845 64.3289C235.456 64.3161 235.087 64.1524 234.816 63.8725C234.545 63.5926 234.394 63.2184 234.394 62.8289C234.394 62.4395 234.545 62.0653 234.816 61.7854C235.087 61.5055 235.456 61.3418 235.845 61.3289C236.234 61.3426 236.602 61.5065 236.872 61.7863C237.143 62.0661 237.294 62.4399 237.294 62.8289C237.294 63.2178 237.143 63.5916 236.872 63.8714C236.602 64.1511 236.234 64.3151 235.845 64.3287L235.845 64.3289ZM241.065 64.149C240.676 64.1361 240.307 63.9725 240.036 63.6926C239.766 63.4127 239.614 63.0385 239.614 62.649C239.614 62.2596 239.766 61.8854 240.036 61.6055C240.307 61.3256 240.676 61.1619 241.065 61.149C241.454 61.1626 241.822 61.3266 242.093 61.6064C242.363 61.8862 242.514 62.26 242.514 62.6489C242.514 63.0379 242.363 63.4116 242.093 63.6914C241.822 63.9712 241.454 64.1352 241.065 64.1488L241.065 64.149ZM246.195 64.3289C245.806 64.3161 245.437 64.1524 245.166 63.8725C244.896 63.5926 244.744 63.2184 244.744 62.8289C244.744 62.4395 244.896 62.0653 245.166 61.7854C245.437 61.5055 245.806 61.3418 246.195 61.3289C246.584 61.3426 246.952 61.5066 247.222 61.7864C247.493 62.0662 247.644 62.4399 247.644 62.8289C247.644 63.2178 247.493 63.5916 247.222 63.8714C246.952 64.1512 246.584 64.3151 246.195 64.3287L246.195 64.3289ZM244.586 66.2789C245.145 67.9088 245.685 69.5389 246.185 71.1891C246.815 71.2489 247.445 71.299 248.075 71.3791V65.9789C246.915 66.1088 245.755 66.2086 244.585 66.2787L244.586 66.2789ZM231.425 66.339L229.015 71.289C230.465 71.1389 231.925 71.039 233.376 70.9789L231.425 66.339ZM231.745 66.289L233.805 70.7289L235.445 66.4391C234.215 66.4188 232.975 66.3588 231.745 66.2887L231.745 66.289ZM235.965 66.8691L234.275 70.9489C235.345 70.9089 236.405 70.8888 237.475 70.8791L235.965 66.8691ZM238.095 66.4789C237.575 66.4689 237.046 66.4589 236.525 66.4589L238.055 70.2289L239.355 66.4589C238.935 66.4686 238.515 66.4686 238.095 66.4786L238.095 66.4789ZM240.025 67.4289L238.715 70.8791C239.556 70.8889 240.395 70.8991 241.235 70.9289C240.815 69.7587 240.415 68.5988 240.025 67.4286L240.025 67.4289ZM240.725 66.4392C241.155 67.6292 241.566 68.8191 241.965 70.009C242.505 68.779 243.036 67.559 243.586 66.3391C242.635 66.3885 241.685 66.4188 240.725 66.4388L240.725 66.4392ZM244.145 66.8992C243.645 68.259 243.126 69.6092 242.606 70.969C243.755 71.009 244.905 71.0791 246.046 71.179C245.385 69.7587 244.765 68.3388 244.145 66.8988L244.145 66.8992ZM231.425 66.3391L229.015 71.2891C230.465 71.139 231.925 71.0391 233.376 70.9791L231.425 66.3391ZM231.745 66.2891L233.806 70.7291L235.445 66.4393C234.215 66.4188 232.975 66.3588 231.745 66.2887L231.745 66.2891ZM235.965 66.8692L234.276 70.949C235.345 70.909 236.405 70.889 237.476 70.8792L235.965 66.8692ZM238.095 66.4791C237.575 66.4691 237.046 66.4591 236.526 66.4591L238.056 70.2291L239.356 66.4591C238.935 66.4686 238.515 66.4686 238.095 66.4786L238.095 66.4791ZM240.026 67.4291L238.715 70.8793C239.556 70.889 240.395 70.8993 241.235 70.9291C240.815 69.7587 240.415 68.5988 240.025 67.4286L240.026 67.4291ZM240.726 66.4393C241.155 67.6293 241.566 68.8192 241.966 70.0092C242.506 68.7792 243.036 67.5592 243.586 66.3392C242.635 66.3886 241.685 66.4188 240.725 66.4388L240.726 66.4393ZM244.145 66.8993C243.645 68.2592 243.126 69.6093 242.606 70.9691C243.756 71.0091 244.905 71.0792 246.046 71.1791C245.385 69.7587 244.765 68.3388 244.145 66.8988L244.145 66.8993ZM228.115 77.2292V78.4691C228.115 81.116 229.167 83.6545 231.039 85.5261C232.91 87.3977 235.449 88.4492 238.095 88.4492C240.742 88.4492 243.281 87.3977 245.152 85.5261C247.024 83.6545 248.075 81.116 248.075 78.4691V77.2292C241.439 77.8958 234.752 77.8958 228.115 77.2292ZM242.175 71.7992C242.111 71.8421 242.038 71.8691 241.962 71.8778C241.885 71.8865 241.807 71.8767 241.736 71.8492C241.715 71.8371 241.695 71.8237 241.675 71.8092C240.486 71.8492 239.286 71.8693 238.095 71.8793C234.762 71.8975 231.43 71.7305 228.115 71.3793V77.2291C234.752 76.5625 241.439 76.5625 248.075 77.2291V71.3788C246.105 71.6088 244.145 71.7286 242.175 71.7987L242.175 71.7992ZM230.895 75.8492C230.506 75.8364 230.137 75.6727 229.866 75.3928C229.596 75.1129 229.444 74.7387 229.444 74.3492C229.444 73.9598 229.596 73.5856 229.866 73.3057C230.137 73.0258 230.506 72.8621 230.895 72.8492C231.283 72.8638 231.651 73.0282 231.92 73.3079C232.19 73.5876 232.34 73.9608 232.34 74.3491C232.34 74.7374 232.189 75.1106 231.92 75.3903C231.651 75.6699 231.283 75.8343 230.895 75.8488L230.895 75.8492ZM235.486 75.7591C235.096 75.7463 234.727 75.5826 234.457 75.3027C234.186 75.0228 234.034 74.6486 234.034 74.2591C234.034 73.8697 234.186 73.4955 234.457 73.2156C234.727 72.9357 235.096 72.772 235.486 72.7591C235.874 72.7737 236.241 72.9381 236.51 73.2178C236.78 73.4974 236.93 73.8707 236.93 74.259C236.93 74.6473 236.78 75.0205 236.51 75.3002C236.241 75.5798 235.873 75.7442 235.485 75.7587L235.486 75.7591ZM240.526 75.7591C240.136 75.7463 239.767 75.5826 239.496 75.3027C239.226 75.0228 239.074 74.6486 239.074 74.2591C239.074 73.8697 239.226 73.4955 239.496 73.2156C239.767 72.9357 240.136 72.772 240.526 72.7591C240.914 72.7737 241.281 72.9381 241.55 73.2177C241.82 73.4974 241.97 73.8706 241.97 74.259C241.97 74.6473 241.82 75.0205 241.55 75.3002C241.281 75.5798 240.913 75.7442 240.525 75.7587L240.526 75.7591ZM245.566 75.5792C245.176 75.5663 244.807 75.4027 244.536 75.1228C244.266 74.8429 244.114 74.4687 244.114 74.0792C244.114 73.6898 244.266 73.3155 244.536 73.0356C244.807 72.7557 245.176 72.5921 245.566 72.5792C245.954 72.5937 246.321 72.7581 246.59 73.0378C246.86 73.3175 247.01 73.6907 247.01 74.079C247.01 74.4673 246.86 74.8406 246.59 75.1202C246.321 75.3999 245.953 75.5642 245.565 75.5787L245.566 75.5792ZM246.046 71.179C245.385 69.7591 244.766 68.3392 244.145 66.8993C243.645 68.2591 243.126 69.6093 242.606 70.9691C243.755 71.0087 244.905 71.0787 246.045 71.1786L246.046 71.179ZM243.586 66.3392C242.635 66.389 241.685 66.4193 240.725 66.4393C241.155 67.6293 241.566 68.8192 241.965 70.0091C242.505 68.7787 243.035 67.5587 243.585 66.3387L243.586 66.3392ZM241.235 70.929C240.816 69.7591 240.415 68.5992 240.025 67.429L238.715 70.8793C239.555 70.8886 240.395 70.8988 241.235 70.9286L241.235 70.929ZM239.356 66.459C238.935 66.469 238.515 66.469 238.095 66.479C237.575 66.469 237.046 66.459 236.525 66.459L238.055 70.229L239.356 66.459ZM237.475 70.8792L235.965 66.8692L234.275 70.9491C235.345 70.9086 236.405 70.8885 237.475 70.8788L237.475 70.8792ZM235.445 66.4392C234.215 66.4192 232.975 66.3591 231.745 66.2891L233.805 70.729L235.445 66.4392ZM231.425 66.3391L229.016 71.2891C230.466 71.139 231.925 71.0391 233.376 70.9791L231.425 66.3391ZM244.145 66.8992C243.645 68.259 243.126 69.6092 242.606 70.969C243.756 71.009 244.905 71.0791 246.046 71.179C245.385 69.7587 244.765 68.3388 244.145 66.8988L244.145 66.8992ZM240.725 66.4392C241.155 67.6292 241.566 68.8191 241.966 70.009C242.506 68.779 243.036 67.559 243.586 66.3391C242.635 66.3885 241.685 66.4188 240.725 66.4388L240.725 66.4392ZM240.026 67.4289L238.715 70.8791C239.556 70.8889 240.395 70.8991 241.235 70.9289C240.815 69.7587 240.415 68.5988 240.025 67.4286L240.026 67.4289ZM238.095 66.4789C237.575 66.4689 237.046 66.4589 236.526 66.4589L238.056 70.2289L239.355 66.4589C238.935 66.4686 238.515 66.4686 238.095 66.4786L238.095 66.4789ZM235.965 66.8691L234.276 70.9489C235.345 70.9089 236.405 70.8888 237.475 70.8791L235.965 66.8691ZM231.745 66.289L233.806 70.7289L235.445 66.4391C234.215 66.4188 232.975 66.3588 231.745 66.2887L231.745 66.289ZM231.425 66.339L229.015 71.289C230.465 71.1389 231.925 71.039 233.376 70.9789L231.425 66.339ZM244.145 66.8991C243.645 68.2589 243.126 69.6091 242.606 70.9689C243.755 71.0089 244.905 71.079 246.046 71.1789C245.385 69.7587 244.765 68.3388 244.145 66.8988L244.145 66.8991ZM240.725 66.4391C241.155 67.6291 241.566 68.819 241.965 70.0089C242.505 68.7789 243.036 67.5589 243.586 66.339C242.635 66.3886 241.685 66.4188 240.725 66.4388L240.725 66.4391ZM240.025 67.4288L238.715 70.879C239.555 70.8888 240.395 70.899 241.235 70.9288C240.815 69.7587 240.415 68.5988 240.025 67.4286L240.025 67.4288ZM238.095 66.4788C237.575 66.4688 237.045 66.4588 236.525 66.4588L238.055 70.2288L239.355 66.4588C238.935 66.4686 238.515 66.4686 238.095 66.4786L238.095 66.4788ZM235.965 66.869L234.275 70.9488C235.345 70.9088 236.405 70.8887 237.475 70.879L235.965 66.869ZM231.745 66.2889L233.805 70.7288L235.445 66.439C234.215 66.4188 232.975 66.3588 231.745 66.2887L231.745 66.2889ZM231.425 66.3389L229.015 71.2889C230.465 71.1387 231.925 71.0389 233.376 70.9788L231.425 66.3389Z" fill="black"/>
<path d="M65.6736 230.396C65.8591 232.866 65.9541 235.335 66.0847 237.804C66.2209 240.274 66.2825 242.743 66.3716 245.212C66.4277 247.682 66.5188 250.151 66.5459 252.62C66.5776 255.09 66.6409 257.559 66.6414 260.028L65.9294 259.095L72.8882 260.973L72.3909 260.966L79.3252 259.322L78.5938 260.252C78.6541 255.669 78.7377 251.086 78.8828 246.503C78.9702 244.211 79.0347 241.92 79.1646 239.628C79.2842 237.337 79.3784 235.045 79.551 232.754C79.7236 235.045 79.8179 237.337 79.9375 239.628C80.0674 241.92 80.1318 244.211 80.2192 246.503C80.3642 251.086 80.448 255.669 80.5083 260.252C80.5111 260.464 80.4421 260.671 80.3125 260.839C80.183 261.007 80.0004 261.127 79.7944 261.178L79.7766 261.182L72.8601 262.899C72.6963 262.939 72.5251 262.937 72.3625 262.892L65.4182 260.962C65.2141 260.905 65.0342 260.783 64.9057 260.615C64.7771 260.446 64.7071 260.24 64.7061 260.029C64.7065 257.559 64.7698 255.09 64.8015 252.621C64.8286 250.151 64.9197 247.682 64.9758 245.213C65.065 242.743 65.1265 240.274 65.2627 237.805C65.3933 235.335 65.4883 232.866 65.6736 230.396Z" fill="black"/>
<path d="M72.6125 232.639C73.1028 237.521 73.217 242.403 73.2393 247.285C73.2241 252.167 73.1145 257.05 72.6257 261.932C72.1326 257.05 72.0186 252.168 71.999 247.286C72.0169 242.403 72.1267 237.521 72.6125 232.639Z" fill="black"/>
<path d="M2.13024 197.417C2.32629 199.886 2.42174 202.356 2.56163 204.825C2.68785 207.294 2.77427 209.764 2.84947 212.233C2.99278 217.172 3.09093 222.11 3.10631 227.049L2.38805 226.108C4.70934 226.728 7.03112 227.346 9.34191 228.004L8.84996 227.997C11.1627 227.453 13.4698 226.889 15.7906 226.379L15.088 227.272C15.1278 225.291 15.1388 223.31 15.2025 221.329C15.2638 219.348 15.297 217.366 15.3834 215.385C15.453 213.404 15.5355 211.423 15.6517 209.441C15.7577 207.46 15.8509 205.479 16.0077 203.498C16.1642 205.479 16.2575 207.46 16.3637 209.441C16.4797 211.423 16.5622 213.404 16.6318 215.385C16.7182 217.366 16.7514 219.348 16.8127 221.329C16.8764 223.31 16.8874 225.291 16.9274 227.272C16.9315 227.473 16.8681 227.669 16.7476 227.829C16.627 227.989 16.4562 228.105 16.2624 228.156L16.2244 228.166C13.9282 228.777 11.6187 229.332 9.31421 229.909C9.15943 229.948 8.99729 229.948 8.84276 229.908L8.82201 229.902C6.49853 229.291 4.18602 228.639 1.87256 227.991L1.864 227.988C1.65938 227.93 1.47923 227.808 1.35108 227.638C1.22292 227.468 1.15381 227.261 1.1543 227.049C1.16968 222.11 1.26781 217.172 1.41112 212.233C1.48632 209.764 1.57275 207.294 1.69898 204.825C1.83874 202.356 1.9342 199.886 2.13024 197.417Z" fill="black"/>
<path d="M9.06885 199.659C9.55909 204.541 9.67334 209.423 9.69556 214.306C9.68018 219.188 9.57056 224.07 9.08179 228.953C8.58863 224.071 8.47486 219.188 8.45508 214.306C8.47291 209.424 8.58301 204.542 9.06885 199.659Z" fill="black"/>
<path d="M167.449 219.822C167.617 222.017 167.711 224.212 167.826 226.407C167.951 228.603 168.021 230.798 168.103 232.993C168.249 237.383 168.337 241.774 168.395 246.164L167.873 245.32L174.149 248.42L173.443 248.35C175.894 247.653 178.362 247.02 180.821 246.351L180.108 247.285C180.109 244.863 180.169 242.44 180.202 240.018C180.229 237.595 180.319 235.173 180.376 232.75C180.464 230.328 180.528 227.905 180.663 225.483C180.795 223.06 180.89 220.638 181.077 218.215C181.264 220.638 181.359 223.06 181.491 225.483C181.626 227.905 181.69 230.328 181.778 232.75C181.835 235.173 181.925 237.595 181.952 240.018C181.985 242.44 182.045 244.863 182.046 247.285C182.045 247.498 181.975 247.704 181.846 247.872C181.718 248.041 181.537 248.163 181.333 248.22C178.877 248.898 176.43 249.611 173.966 250.26L173.951 250.264C173.719 250.325 173.473 250.299 173.26 250.19L167.025 247.009L167.009 247.001C166.855 246.922 166.726 246.802 166.637 246.654C166.548 246.507 166.502 246.337 166.504 246.164C166.562 241.774 166.649 237.383 166.795 232.993C166.877 230.798 166.948 228.603 167.073 226.407C167.188 224.212 167.282 222.017 167.449 219.822Z" fill="black"/>
<path d="M174.263 219.013C174.658 224.07 174.677 229.121 174.604 234.17C174.493 239.219 174.289 244.265 173.705 249.305C173.307 244.247 173.288 239.196 173.364 234.147C173.477 229.099 173.682 224.052 174.263 219.013Z" fill="black"/>
<path d="M248.087 168.669C247.095 168.612 246.122 168.381 245.211 167.986C242.484 166.883 240.048 165.167 238.092 162.971C239.001 163.32 239.885 163.732 240.736 164.205C241.588 164.649 242.404 165.142 243.226 165.62C244.034 166.124 244.848 166.606 245.646 167.125C246.455 167.63 247.24 168.16 248.087 168.669Z" fill="black"/>
<path d="M43.6549 51.2285C44.4642 52.557 45.4313 53.7826 46.5351 54.8787C45.4169 54.9173 44.3068 54.6766 43.3051 54.1785C42.5814 53.8056 41.9704 53.2464 41.5351 52.5586C41.1106 51.8612 40.8762 51.0647 40.8551 50.2486C40.8347 49.1317 41.096 48.0277 41.6149 47.0386C42.1195 48.514 42.8047 49.9213 43.6549 51.2285Z" fill="black"/>
<path d="M47.3054 51.6685C47.3253 52.7865 47.0603 53.8912 46.5354 54.8785C46.0308 53.403 45.3456 51.9957 44.4954 50.6885C43.6836 49.3618 42.7167 48.1365 41.6152 47.0384C42.7314 46.9986 43.8395 47.2429 44.8354 47.7484C45.5592 48.1204 46.1728 48.6755 46.6152 49.3585C47.0488 50.0524 47.2872 50.8505 47.3054 51.6685Z" fill="black"/>
<path d="M40.9852 60.7686C41.7948 62.0995 42.7655 63.3255 43.8754 64.4187C42.7571 64.4585 41.6466 64.2178 40.6451 63.7185C39.9188 63.3457 39.3046 62.7867 38.8651 62.0987C38.4408 61.4012 38.2064 60.6048 38.1852 59.7886C38.1648 58.6717 38.4262 57.5678 38.9452 56.5786C39.454 58.0523 40.139 59.4592 40.9852 60.7686Z" fill="black"/>
<path d="M44.6352 61.2085C44.6547 62.3253 44.3934 63.4292 43.8755 64.4187C43.3623 62.9468 42.6776 61.5404 41.8354 60.2286C41.0201 58.9017 40.0499 57.6765 38.9453 56.5787C40.0616 56.5376 41.1698 56.782 42.1653 57.2887C42.8961 57.6537 43.5128 58.2122 43.9483 58.9034C44.3837 59.5945 44.6214 60.3918 44.6353 61.2086L44.6352 61.2085Z" fill="black"/>
<path d="M37.9751 71.2686C38.7873 72.5977 39.7576 73.8234 40.865 74.9187C39.7454 74.9608 38.6337 74.7164 37.635 74.2085C36.9072 73.8425 36.2922 73.2862 35.8552 72.5987C35.4307 71.9012 35.1962 71.1048 35.175 70.2886C35.1536 69.1716 35.4151 68.0674 35.935 67.0786C36.4439 68.5523 37.1288 69.9592 37.9751 71.2686Z" fill="black"/>
<path d="M41.6252 71.6985C41.6457 72.8187 41.3843 73.926 40.865 74.9188C40.3529 73.4446 39.6647 72.0377 38.8152 70.7286C38.0034 69.402 37.0365 68.1767 35.9351 67.0787C37.0513 67.0376 38.1596 67.2819 39.1551 67.7887C39.8789 68.1606 40.4927 68.7157 40.9351 69.3988C41.3672 70.0896 41.6056 70.8839 41.6252 71.6985Z" fill="black"/>
<path d="M36.5049 82.4486C37.3175 83.7804 38.2878 85.0093 39.3948 86.1087C38.2753 86.1509 37.1635 85.9065 36.1648 85.3987C35.4392 85.0281 34.8274 84.468 34.3943 83.7778C33.9612 83.0877 33.723 82.2932 33.7048 81.4786C33.6883 80.3621 33.9495 79.2591 34.4648 78.2686C34.9779 79.7374 35.6627 81.1404 36.5049 82.4486Z" fill="black"/>
<path d="M40.1548 82.8885C40.1805 84.0092 39.9188 85.1178 39.3948 86.1087C38.3393 83.1688 36.6572 80.4936 34.4648 78.2686C35.5811 78.2275 36.6894 78.4719 37.6848 78.9786C38.4127 79.3447 39.0278 79.9011 39.4648 80.5887C39.9027 81.2769 40.1415 82.0729 40.1548 82.8885Z" fill="black"/>
<path d="M36.0663 89.2817C37.1828 89.2438 38.2909 89.4875 39.2885 89.9904C40.0145 90.3615 40.629 90.9186 41.0692 91.6049C41.5017 92.2958 41.7397 93.0906 41.7585 93.9054C41.7796 95.0246 41.5162 96.1308 40.9928 97.1203C39.8742 97.1627 38.7631 96.9204 37.7638 96.4159C37.0377 96.0456 36.4249 95.4863 35.9899 94.797C35.5625 94.1027 35.3271 93.3073 35.3078 92.4921C35.2872 91.3752 35.548 90.2712 36.0663 89.2817Z" fill="black"/>
<path d="M50.3452 54.1685C49.0072 54.8 47.7171 55.5286 46.4854 56.3484C46.6567 55.2858 47.0484 54.2707 47.6353 53.3684C48.0395 52.7581 48.5939 52.2622 49.2454 51.9283C49.8782 51.6184 50.5835 51.4871 51.2854 51.5484C52.3178 51.6515 53.3328 51.8868 54.3054 52.2484L50.3452 54.1685Z" fill="black"/>
<path d="M53.7453 55.5686C53.3252 56.3101 52.6937 56.9097 51.9314 57.2908C51.1691 57.6719 50.3106 57.8173 49.4653 57.7085C48.361 57.5544 47.3255 57.0818 46.4854 56.3487C47.2397 56.2808 47.9841 56.1299 48.7053 55.8987C49.4203 55.6704 50.1187 55.3931 50.7954 55.0686C51.4732 54.7345 52.1191 54.3395 52.7254 53.8884C53.3469 53.4418 53.8822 52.8862 54.3055 52.2485C54.5446 53.3863 54.3445 54.5723 53.7453 55.5686Z" fill="black"/>
<path d="M48.7851 63.1687C47.135 63.7686 45.4551 64.2986 43.7651 65.0086C44.2499 63.9351 44.9355 62.9644 45.7851 62.1487C46.407 61.5629 47.142 61.1103 47.9451 60.8186C48.7064 60.543 49.5179 60.4339 50.3249 60.4986C51.4385 60.6103 52.5419 60.8076 53.6252 61.0886C52.0776 61.9258 50.4577 62.622 48.7851 63.1687Z" fill="black"/>
<path d="M52.4951 64.689C51.8407 65.4866 50.9842 66.0938 50.015 66.4473C49.0457 66.8008 47.9994 66.8877 46.9851 66.6988C45.7671 66.4697 44.6456 65.8811 43.7651 65.0088C44.6769 65.0446 45.5897 64.9741 46.4851 64.7988C47.3796 64.6431 48.2593 64.4123 49.115 64.1089C49.9822 63.8113 50.8139 63.419 51.595 62.9389C52.393 62.47 53.0845 61.84 53.6253 61.0889C53.6953 61.7344 53.6311 62.3875 53.4366 63.0071C53.2421 63.6266 52.9216 64.1993 52.4951 64.689Z" fill="black"/>
<path d="M46.9048 70.9488C45.2549 71.5489 43.5747 72.0789 41.8848 72.7888C42.3692 71.7126 43.0587 70.7412 43.9148 69.9287C44.5317 69.3413 45.2639 68.8885 46.0649 68.5989C46.8262 68.3233 47.6377 68.2142 48.4448 68.2788C49.5583 68.3906 50.6616 68.5879 51.7448 68.8689C50.1972 69.7062 48.5773 70.4023 46.9048 70.9488Z" fill="black"/>
<path d="M50.6148 72.4686C49.9604 73.2662 49.1039 73.8735 48.1348 74.2271C47.1656 74.5806 46.1192 74.6675 45.105 74.4786C43.8869 74.2495 42.7653 73.6609 41.8848 72.7886C42.7966 72.8244 43.7095 72.7539 44.605 72.5786C45.4994 72.4229 46.3792 72.192 47.2349 71.8884C48.1021 71.591 48.9338 71.1986 49.7149 70.7185C50.5128 70.2497 51.2042 69.6197 51.7449 68.8687C51.815 69.5142 51.7508 70.1673 51.5563 70.7868C51.3618 71.4063 51.0412 71.9789 50.6148 72.4686Z" fill="black"/>
<path d="M45.3247 80.4788C43.6548 81.2388 41.9048 81.8589 40.1548 82.6387C40.6442 81.5359 41.3323 80.5325 42.1848 79.6787C42.7993 79.0578 43.5209 78.5531 44.3149 78.1889C45.0445 77.8665 45.828 77.6834 46.625 77.6489C47.4848 77.5688 48.3647 77.7388 49.9148 77.5288C49.2982 78.2172 48.5717 78.7984 47.7649 79.2488C46.9796 79.7123 46.1644 80.1232 45.3247 80.4788Z" fill="black"/>
<path d="M50.2048 78.6189C50.2164 78.9736 50.1929 79.3286 50.1348 79.6787C49.9941 80.3251 49.7328 80.9391 49.3648 81.4888C48.7196 82.4549 47.8101 83.2151 46.7449 83.6787C45.7562 84.1162 44.6696 84.2853 43.5947 84.1689C42.3189 84.0215 41.1186 83.4875 40.1548 82.6387C41.1155 82.6383 42.0726 82.5208 43.0049 82.2888C43.9416 82.0766 44.8557 81.7752 45.7349 81.3887C46.6322 81.0059 47.4706 80.4976 48.2249 79.8789C49.0117 79.2833 49.6007 78.4643 49.9148 77.5288C49.9902 77.7044 50.0537 77.8848 50.105 78.0688C50.1487 78.2501 50.1821 78.4338 50.2048 78.6189Z" fill="black"/>
<path d="M40.1152 94.0288C40.1697 92.9282 40.4107 91.8449 40.8279 90.825C41.1015 90.1525 41.5121 89.5443 42.0337 89.0393C42.5026 88.6113 43.0675 88.302 43.6807 88.1375C44.6486 87.9562 45.5846 87.6331 46.4583 87.1787C46.6034 87.2866 46.7417 87.4035 46.8721 87.5288C46.9892 87.6615 47.0984 87.8009 47.1992 87.9463C47.3688 88.237 47.501 88.5478 47.5928 88.8716C47.7408 89.4778 47.7529 90.1092 47.6284 90.7207C47.428 91.7738 46.8902 92.733 46.0964 93.4534C45.3807 94.1147 44.4811 94.5431 43.5166 94.6819C42.3419 94.8433 41.1467 94.6138 40.1152 94.0288Z" fill="black"/>
<path d="M49.785 45.0788C49.2032 46.6781 48.8073 48.339 48.605 50.0288C47.8793 49.1105 47.3976 48.0235 47.2049 46.8689C47.064 45.9946 47.1361 45.0993 47.4149 44.2588C47.7049 43.4202 48.2 42.6674 48.8551 42.0689C49.7208 41.2831 50.7691 40.7262 51.9049 40.4487C51.0252 41.9068 50.314 43.4601 49.785 45.0788Z" fill="black"/>
<path d="M53.0948 46.2188C52.7993 47.0543 52.3011 47.8034 51.6448 48.3989C50.785 49.1897 49.7394 49.7503 48.605 50.0288C49.4768 48.5667 50.1876 47.0143 50.7249 45.3989C51.3055 43.7992 51.7014 42.1384 51.9048 40.4487C52.6329 41.3669 53.1178 42.4538 53.3149 43.6089C53.4573 44.4837 53.3817 45.3801 53.0948 46.2188Z" fill="black"/>
<path d="M36.0664 89.2812C37.1722 90.3784 38.1413 91.6051 38.9526 92.9348C39.8007 94.2415 40.4858 95.6471 40.9926 97.1201C39.8852 96.0245 38.9159 94.7975 38.1064 93.4666C37.2601 92.1588 36.5751 90.7535 36.0664 89.2812Z" fill="white"/>
<path d="M40.1152 94.0288C41.333 92.907 42.5849 91.9443 43.7268 90.8787C44.305 90.3689 44.8406 89.8127 45.3281 89.2156C45.8351 88.6175 46.2191 87.9253 46.4582 87.1787C46.5981 88.0307 46.4289 88.9046 45.9812 89.6428C45.5705 90.3843 45.0371 91.0508 44.4036 91.614C43.7897 92.1727 43.116 92.6617 42.3946 93.0723C41.6817 93.4931 40.9149 93.8149 40.1152 94.0288Z" fill="white"/>
<path d="M34.8248 101.449C34.985 101.759 35.1348 102.079 35.285 102.389C35.455 102.749 35.6251 103.099 35.795 103.459C36.0948 104.089 36.3949 104.709 36.6849 105.339C36.9449 104.649 37.2149 103.969 37.4749 103.289C37.6348 102.899 37.795 102.499 37.9549 102.109C38.015 101.939 38.0851 101.779 38.1549 101.609C37.045 101.579 35.9349 101.529 34.8248 101.449ZM39.1348 103.119L38.8751 102.489C38.785 102.719 38.695 102.949 38.6051 103.179C38.2149 104.169 37.8248 105.159 37.4149 106.139C38.3949 106.099 39.3751 106.069 40.3551 106.059L39.1348 103.119ZM42.305 101.639C41.8248 101.639 41.3448 101.649 40.855 101.659C40.4348 101.649 40.0149 101.649 39.585 101.639L39.6949 101.919L40.105 103.029L40.9949 105.399L41.9549 102.849L42.4049 101.639L42.305 101.639ZM43.1548 102.729L42.9449 102.139L42.7249 102.769L41.5947 106.069C42.5249 106.079 43.4548 106.099 44.3947 106.139L43.1548 102.729ZM43.4449 101.619L43.795 102.669L44.8448 105.839L46.315 102.429L46.7249 101.469C45.6349 101.539 44.535 101.589 43.4449 101.619H43.4449ZM47.335 102.329L47.0249 101.569L46.7049 102.389L45.2349 106.179C46.4949 106.249 47.7649 106.359 49.0349 106.539L47.335 102.329ZM34.8247 101.449C34.9849 101.759 35.1347 102.079 35.2849 102.389C35.4549 102.749 35.625 103.099 35.7949 103.459C36.0947 104.089 36.3948 104.709 36.6848 105.339C36.9448 104.649 37.2148 103.969 37.4748 103.289C37.6347 102.899 37.7949 102.499 37.9548 102.109C38.0149 101.939 38.085 101.779 38.1548 101.609C37.045 101.579 35.9349 101.529 34.8248 101.449L34.8247 101.449ZM39.1348 103.119L38.875 102.489C38.7849 102.719 38.6949 102.949 38.605 103.179C38.2148 104.169 37.8247 105.159 37.4148 106.139C38.3948 106.099 39.375 106.069 40.355 106.059L39.1348 103.119ZM42.3049 101.639C41.8247 101.639 41.3447 101.649 40.8549 101.659C40.4347 101.649 40.0148 101.649 39.5849 101.639L39.6948 101.919L40.1049 103.029L40.9948 105.399L41.9548 102.849L42.4048 101.639L42.3049 101.639ZM43.1548 102.729L42.9448 102.139L42.7248 102.769L41.5947 106.069C42.5248 106.079 43.4547 106.099 44.3946 106.139L43.1548 102.729ZM43.4448 101.619L43.7949 102.669L44.8447 105.839L46.3149 102.429L46.7248 101.469C45.6349 101.539 44.535 101.589 43.4449 101.619L43.4448 101.619ZM47.3349 102.329L47.0248 101.569L46.7048 102.389L45.2348 106.179C46.4948 106.249 47.7648 106.359 49.0348 106.539L47.3349 102.329ZM34.2949 101.889C34.1848 102.099 34.0649 102.319 33.9548 102.529L34.5249 102.469C34.4449 102.279 34.3751 102.079 34.295 101.889L34.2949 101.889ZM34.8247 101.449C34.9848 101.759 35.1347 102.079 35.2849 102.389C35.4548 102.749 35.625 103.099 35.7949 103.459C36.355 103.399 36.9148 103.339 37.4748 103.289C37.6347 102.899 37.7949 102.499 37.9548 102.109C38.0149 101.939 38.0849 101.779 38.1548 101.609C37.045 101.579 35.9349 101.529 34.8248 101.449L34.8247 101.449ZM38.875 102.489C38.7849 102.719 38.6949 102.949 38.605 103.179C38.7749 103.159 38.9548 103.139 39.1348 103.119L38.875 102.489ZM40.855 101.659C40.4348 101.649 40.0149 101.649 39.585 101.639L39.6948 101.919C40.565 101.829 41.4348 101.729 42.3049 101.639C41.8248 101.639 41.3449 101.649 40.8551 101.659L40.855 101.659ZM29.4448 86.9189L31.6648 101.159C32.5049 101.049 33.3448 100.969 34.1748 100.899C34.2133 100.871 34.2579 100.853 34.3049 100.846C34.3519 100.839 34.3999 100.843 34.4448 100.859L34.4648 100.879C35.8847 100.779 37.2949 100.709 38.7048 100.679C38.8094 100.649 38.9203 100.649 39.0249 100.679C39.6347 100.669 40.2449 100.659 40.855 100.659C43.375 100.669 45.8848 100.729 48.3948 100.969C48.9448 101.029 49.5049 101.089 50.0549 101.159L50.1147 100.779L52.2649 86.919L29.4448 86.9189ZM32.9748 100.329C32.5865 100.315 32.2188 100.15 31.949 99.8707C31.6793 99.5909 31.5286 99.2175 31.5286 98.8289C31.5286 98.4403 31.6793 98.0668 31.949 97.787C32.2188 97.5073 32.5865 97.343 32.9748 97.3289C33.3631 97.3432 33.7307 97.5074 34.0003 97.7872C34.2699 98.0669 34.4206 98.4403 34.4206 98.8288C34.4206 99.2173 34.27 99.5907 34.0004 99.8704C33.7308 100.15 33.3632 100.314 32.975 100.329L32.9748 100.329ZM38.375 100.329C37.9866 100.315 37.6189 100.15 37.3492 99.8707C37.0795 99.5909 36.9288 99.2175 36.9288 98.8289C36.9288 98.4403 37.0795 98.0668 37.3492 97.787C37.6189 97.5073 37.9866 97.343 38.375 97.3289C38.7635 97.3428 39.1314 97.5069 39.4013 97.7867C39.6712 98.0665 39.822 98.44 39.8221 98.8288C39.8221 99.2175 39.6713 99.5911 39.4014 99.8709C39.1315 100.151 38.7636 100.315 38.3751 100.329L38.375 100.329ZM43.5947 100.149C43.2064 100.135 42.8386 99.9705 42.5689 99.6908C42.2992 99.411 42.1485 99.0375 42.1485 98.6489C42.1485 98.2603 42.2992 97.8869 42.5689 97.6071C42.8386 97.3273 43.2064 97.1631 43.5947 97.1489C43.9829 97.1632 44.3505 97.3275 44.6202 97.6072C44.8898 97.8869 45.0404 98.2603 45.0405 98.6488C45.0405 99.0373 44.8899 99.4107 44.6203 99.6905C44.3507 99.9702 43.9831 100.135 43.5949 100.149L43.5947 100.149ZM48.7248 100.329C48.3365 100.315 47.9688 100.15 47.699 99.8707C47.4293 99.5909 47.2786 99.2175 47.2786 98.8289C47.2786 98.4403 47.4293 98.0668 47.699 97.787C47.9688 97.5073 48.3365 97.343 48.7248 97.3289C49.1131 97.3432 49.4807 97.5074 49.7503 97.7872C50.0199 98.0669 50.1706 98.4403 50.1706 98.8288C50.1706 99.2173 50.02 99.5907 49.7504 99.8704C49.4808 100.15 49.1132 100.314 48.725 100.329L48.7248 100.329ZM47.3349 102.329L47.0249 101.569L46.7048 102.389L45.2348 106.179C46.4948 106.249 47.7648 106.359 49.0348 106.539L47.3349 102.329ZM43.4448 101.619L43.7949 102.669L44.8447 105.839L46.3149 102.429L46.7248 101.469C45.6349 101.539 44.535 101.589 43.4449 101.619H43.4448ZM43.1548 102.729L42.9448 102.139L42.7248 102.769L41.5947 106.069C42.5249 106.079 43.4548 106.099 44.3947 106.139L43.1548 102.729ZM42.3049 101.639C41.8247 101.639 41.3448 101.649 40.8549 101.659C40.4348 101.649 40.0149 101.649 39.5849 101.639L39.6948 101.919L40.105 103.029L40.9949 105.399L41.9548 102.849L42.4048 101.639L42.3049 101.639ZM39.1348 103.119L38.875 102.489C38.7849 102.719 38.6949 102.949 38.605 103.179C38.2149 104.169 37.8247 105.159 37.4148 106.139C38.3948 106.099 39.375 106.069 40.355 106.059L39.1348 103.119ZM34.8248 101.449C34.9849 101.759 35.1348 102.079 35.285 102.389C35.4549 102.749 35.6251 103.099 35.795 103.459C36.0948 104.089 36.3948 104.709 36.6849 105.339C36.9449 104.649 37.2149 103.969 37.4749 103.289C37.6348 102.899 37.7949 102.499 37.9549 102.109C38.0149 101.939 38.085 101.779 38.1549 101.609C37.045 101.579 35.9349 101.529 34.8248 101.449H34.8248ZM47.335 102.329L47.025 101.569L46.7049 102.389L45.2349 106.179C46.4949 106.249 47.7649 106.359 49.0349 106.539L47.335 102.329ZM43.4449 101.619L43.795 102.669L44.8448 105.839L46.315 102.429L46.7249 101.469C45.6349 101.539 44.535 101.589 43.4449 101.619L43.4449 101.619ZM43.1549 102.729L42.9449 102.139L42.7249 102.769L41.5948 106.069C42.5249 106.079 43.4549 106.099 44.3948 106.139L43.1549 102.729ZM42.305 101.639C41.8248 101.639 41.3448 101.649 40.855 101.659C40.4349 101.649 40.0149 101.649 39.585 101.639L39.6949 101.919L40.1051 103.029L40.9949 105.399L41.9549 102.849L42.4049 101.639L42.305 101.639ZM39.1349 103.119L38.8751 102.489C38.785 102.719 38.695 102.949 38.6051 103.179C38.215 104.169 37.8248 105.159 37.4149 106.139C38.3949 106.099 39.3751 106.069 40.3551 106.059L39.1349 103.119ZM34.8249 101.449C34.985 101.759 35.1349 102.079 35.2851 102.389C35.455 102.749 35.6251 103.099 35.7951 103.459C36.0949 104.089 36.3949 104.709 36.685 105.339C36.945 104.649 37.215 103.969 37.475 103.289C37.6349 102.899 37.795 102.499 37.955 102.109C38.015 101.939 38.0851 101.779 38.155 101.609C37.045 101.579 35.9349 101.529 34.8248 101.449L34.8249 101.449ZM42.3051 101.639C41.435 101.729 40.5651 101.829 39.695 101.919L40.1051 103.029C40.715 102.969 41.3351 102.909 41.955 102.849L42.405 101.639H42.3051ZM42.945 102.139L42.725 102.769C42.8649 102.759 43.015 102.749 43.1549 102.729L42.945 102.139ZM43.445 101.619L43.7951 102.669L46.3151 102.429L46.725 101.469C45.6349 101.539 44.535 101.589 43.4449 101.619L43.445 101.619ZM47.0251 101.569L46.705 102.389C46.9149 102.369 47.125 102.349 47.3351 102.329L47.0251 101.569ZM47.285 101.429L47.6051 102.309L49.1349 106.539V106.549C49.162 106.547 49.1891 106.551 49.215 106.559L49.915 102.089L50.0551 101.159C49.1251 101.279 48.205 101.359 47.285 101.429L47.285 101.429ZM49.1251 106.569C49.1251 106.579 49.1251 106.599 49.1051 106.599C49.0944 106.603 49.0824 106.604 49.0714 106.6C49.0603 106.596 49.051 106.589 49.0451 106.579C46.3281 106.913 43.5926 107.073 40.8551 107.059C39.5651 107.049 38.2751 107.019 36.985 106.959C36.9211 107.006 36.8458 107.036 36.7668 107.044C36.6877 107.053 36.6078 107.041 36.535 107.009C36.4927 106.986 36.4526 106.959 36.4149 106.929C35.1149 106.849 33.805 106.739 32.505 106.559L33.1749 110.859H48.545L49.215 106.559C49.1847 106.557 49.1543 106.561 49.1251 106.569L49.1251 106.569ZM36.3849 110.479C35.9956 110.466 35.6267 110.302 35.3559 110.022C35.0851 109.742 34.9337 109.368 34.9337 108.979C34.9337 108.589 35.0851 108.215 35.3559 107.935C35.6267 107.655 35.9956 107.492 36.3849 107.479C36.7741 107.492 37.1431 107.655 37.4139 107.935C37.6847 108.215 37.8361 108.589 37.8361 108.979C37.8361 109.368 37.6847 109.742 37.4139 110.022C37.1431 110.302 36.7741 110.466 36.3849 110.479ZM41.4249 110.479C41.0357 110.466 40.6667 110.302 40.3959 110.022C40.1251 109.742 39.9737 109.368 39.9737 108.979C39.9737 108.589 40.1251 108.215 40.3959 107.935C40.6667 107.655 41.0357 107.492 41.4249 107.479C41.8141 107.492 42.1831 107.655 42.4539 107.935C42.7247 108.215 42.8761 108.589 42.8761 108.979C42.8761 109.368 42.7247 109.742 42.4539 110.022C42.1831 110.302 41.8141 110.466 41.4249 110.479ZM46.4649 110.299C46.0756 110.286 45.7067 110.122 45.4359 109.842C45.1651 109.562 45.0137 109.188 45.0137 108.799C45.0137 108.409 45.1651 108.035 45.4359 107.755C45.7067 107.475 46.0756 107.312 46.4649 107.299C46.8541 107.312 47.2231 107.475 47.4939 107.755C47.7647 108.035 47.9161 108.409 47.9161 108.799C47.9161 109.188 47.7648 109.562 47.494 109.842C47.2232 110.122 46.8542 110.286 46.465 110.299H46.4649ZM47.335 102.329L47.0249 101.569L46.7049 102.389L45.2349 106.179C46.4949 106.249 47.7649 106.359 49.0349 106.539L47.335 102.329ZM43.4449 101.619L43.795 102.669L44.8448 105.839L46.315 102.429L46.7249 101.469C45.6349 101.539 44.535 101.589 43.4449 101.619L43.4449 101.619ZM43.1549 102.729L42.9449 102.139L42.7249 102.769L41.5948 106.069C42.5249 106.079 43.4549 106.099 44.3948 106.139L43.1549 102.729ZM42.305 101.639C41.8248 101.639 41.3448 101.649 40.855 101.659C40.4349 101.649 40.0149 101.649 39.585 101.639L39.6949 101.919L40.105 103.029L40.9949 105.399L41.9549 102.849L42.4049 101.639L42.305 101.639ZM39.1349 103.119L38.8751 102.489C38.785 102.719 38.695 102.949 38.6051 103.179C38.2149 104.169 37.8248 105.159 37.4149 106.139C38.3949 106.099 39.3751 106.069 40.3551 106.059L39.1349 103.119ZM34.8249 101.449C34.985 101.759 35.1348 102.079 35.285 102.389C35.455 102.749 35.6251 103.099 35.7951 103.459C36.0949 104.089 36.3949 104.709 36.6849 105.339C36.9449 104.649 37.2149 103.969 37.4749 103.289C37.6349 102.899 37.795 102.499 37.9549 102.109C38.015 101.939 38.0851 101.779 38.1549 101.609C37.045 101.579 35.9349 101.529 34.8248 101.449L34.8249 101.449ZM34.955 103.539C34.8151 103.189 34.665 102.829 34.525 102.469C34.445 102.279 34.3751 102.079 34.295 101.889C34.1849 102.099 34.065 102.319 33.955 102.529C33.755 102.919 33.545 103.309 33.3351 103.699C33.025 104.289 32.705 104.879 32.3751 105.469C32.3711 105.472 32.3663 105.475 32.3611 105.477C32.3558 105.479 32.3503 105.479 32.3448 105.479L32.505 106.559C33.6849 106.389 34.8751 106.289 36.055 106.209C35.6949 105.319 35.3248 104.429 34.955 103.539L34.955 103.539ZM35.7951 103.459C36.0949 104.089 36.3949 104.709 36.685 105.339C36.945 104.649 37.215 103.969 37.475 103.289C36.9149 103.339 36.3551 103.399 35.795 103.459L35.7951 103.459ZM39.1349 103.119C38.955 103.139 38.775 103.159 38.6051 103.179C38.215 104.169 37.8249 105.159 37.4149 106.139C38.3949 106.099 39.3751 106.069 40.3551 106.059L39.1349 103.119ZM40.1051 103.029L40.995 105.399L41.955 102.849C41.3351 102.909 40.715 102.969 40.1051 103.029L40.1051 103.029ZM43.1549 102.729C43.015 102.749 42.8649 102.759 42.725 102.769L41.5949 106.069C42.525 106.079 43.455 106.099 44.3949 106.139L43.1549 102.729ZM43.7951 102.669L44.8449 105.839L46.3151 102.429L43.7951 102.669ZM47.3351 102.329C47.1251 102.349 46.9151 102.369 46.7049 102.389L45.2349 106.179C46.4949 106.249 47.7649 106.359 49.0349 106.539L47.3351 102.329ZM31.6649 101.159L31.9149 102.749L32.0748 103.829L32.315 105.339C32.525 104.799 32.735 104.269 32.9449 103.739C33.0948 103.349 33.255 102.969 33.4149 102.589C33.5748 102.189 33.735 101.789 33.9049 101.389C33.1549 101.329 32.4149 101.249 31.6649 101.159Z" fill="black"/>
<path d="M42.2428 98.8845C41.4081 98.134 40.79 97.1733 40.453 96.1025C40.2958 95.5686 40.0919 95.0398 39.972 94.4941L39.6336 92.8486C39.3576 90.6329 39.2733 88.3975 39.3817 86.1672C39.421 83.9331 39.755 81.7319 40.0138 79.5217C40.4188 77.3396 40.7308 75.1326 41.2606 72.9785C41.7577 70.8157 42.2547 68.6533 42.8829 66.5278C43.4881 64.3955 44.0694 62.2576 44.8153 60.1707C45.5365 58.0769 46.1837 55.9602 46.9857 53.897C47.7972 51.8367 48.5675 49.7642 49.413 47.7207C48.2367 51.9897 46.8746 56.1868 45.7293 60.4468L44.8385 63.6301L44.0184 66.8303C43.7535 67.8984 43.4337 68.9536 43.1957 70.0273L42.472 73.2456C41.9222 75.3784 41.6126 77.553 41.171 79.7058C40.8468 81.8735 40.5058 84.043 40.3305 86.2253C40.1148 88.4026 40.0826 90.5942 40.2343 92.7768L40.4286 94.4013C40.5006 94.9426 40.6547 95.4648 40.7643 96.0017C41.0138 97.0691 41.5215 98.059 42.2428 98.8845Z" fill="black"/>
<path d="M32.3352 105.449L32.3152 105.339L32.2852 105.429C32.2752 105.449 32.2852 105.469 32.3052 105.489C32.325 105.499 32.3352 105.489 32.345 105.479L32.3352 105.449Z" fill="#FCFCFC"/>
<path d="M67.7227 107.375C71.0021 106.472 74.3291 105.752 77.6882 105.217C81.0401 104.637 84.4218 104.246 87.8174 104.045C84.5384 104.95 81.2114 105.67 77.8518 106.203C74.4997 106.781 71.1181 107.172 67.7227 107.375Z" fill="black"/>
<path d="M107.415 106.937C110.694 106.034 114.021 105.314 117.38 104.779C120.732 104.199 124.113 103.808 127.509 103.607C124.23 104.512 120.903 105.232 117.543 105.765C114.191 106.342 110.81 106.734 107.415 106.937Z" fill="black"/>
<path d="M148.115 99.8833C151.394 98.9805 154.721 98.2601 158.08 97.7253C161.432 97.1456 164.814 96.7543 168.209 96.5532C164.93 97.4583 161.603 98.1787 158.244 98.7112C154.892 99.2886 151.51 99.6799 148.115 99.8833Z" fill="black"/>
<path d="M318.078 163.074C315.99 161.657 314.15 159.904 312.634 157.887C311.08 155.909 309.678 153.815 308.443 151.623C307.2 149.439 306.077 147.191 305.041 144.906C304.004 142.615 303.038 140.315 302.175 137.926L303.125 138.519C298.112 139.168 293.019 138.727 288.192 137.227C285.794 136.524 283.45 135.65 281.178 134.612C278.905 133.602 276.692 132.462 274.55 131.198C270.28 128.687 266.22 125.835 262.41 122.669C258.601 119.521 254.998 116.131 251.624 112.52L251.608 112.502C251.489 112.373 251.423 112.203 251.425 112.027C251.427 111.851 251.496 111.683 251.618 111.556C253.075 110.049 254.582 108.65 256.145 107.288C257.7 105.922 259.34 104.656 261.016 103.439C262.691 102.206 264.475 101.129 266.345 100.219C268.215 99.2228 270.283 98.6525 272.4 98.5492C272.441 98.5492 272.482 98.5559 272.521 98.5689C274.507 99.2564 276.51 99.894 278.504 100.559L284.492 102.534C288.478 103.868 292.491 105.124 296.495 106.403L295.725 106.822L300.977 84.8329C302.748 77.5084 304.552 70.1925 306.389 62.8851L306.365 63.0006C306.493 62.3729 306.691 61.7612 306.953 61.1769C307.182 60.6312 307.452 60.1222 307.722 59.6114C308.285 58.6264 308.915 57.6813 309.608 56.7831C310.969 55.0196 312.487 53.3822 314.141 51.8907C317.407 48.9519 320.958 46.3471 324.742 44.1151C326.634 42.9782 328.595 41.9597 330.614 41.0655C332.641 40.1895 334.719 39.4382 336.837 38.8158C341.077 37.56 345.472 36.9064 349.894 36.8741C354.309 36.828 358.708 37.4171 362.955 38.6234C365.083 39.231 367.153 40.0232 369.142 40.991C369.634 41.2481 370.112 41.533 370.597 41.8028L371.321 42.2132L372.01 42.6849C372.466 43.0035 372.933 43.306 373.378 43.638L374.659 44.7105C378.01 47.6634 380.39 51.5605 381.486 55.8902C382.439 60.1492 382.56 64.552 381.844 68.857C381.841 68.8731 381.836 68.8886 381.827 68.9026C381.819 68.9166 381.808 68.9288 381.795 68.9385C381.782 68.9482 381.767 68.9552 381.751 68.9592C381.735 68.9631 381.719 68.9639 381.702 68.9615C381.671 68.9564 381.643 68.94 381.624 68.9153C381.604 68.8906 381.595 68.8596 381.597 68.8282C382.013 64.576 381.642 60.2834 380.502 56.1659C379.283 52.1435 376.894 48.5752 373.639 45.9156L372.405 44.9647C371.976 44.672 371.526 44.4073 371.088 44.1273L370.429 43.7125L369.732 43.3563C369.266 43.1222 368.81 42.8731 368.339 42.6507C366.43 41.79 364.451 41.0923 362.425 40.5653C358.35 39.5178 354.146 39.0618 349.942 39.2113C347.845 39.2755 345.756 39.488 343.689 39.847C341.619 40.1845 339.575 40.6612 337.569 41.2738C335.564 41.8884 333.598 42.6247 331.683 43.4786C329.774 44.3478 327.913 45.3188 326.109 46.3875C322.478 48.5403 319.052 51.0212 315.874 53.7989C314.309 55.1681 312.871 56.6752 311.577 58.3021C310.943 59.099 310.365 59.9384 309.847 60.8145C309.609 61.2528 309.367 61.69 309.174 62.1356C308.991 62.5315 308.843 62.943 308.733 63.3651L308.71 63.4811C306.796 70.7689 304.852 78.0488 302.877 85.3207L296.884 107.119L296.879 107.138C296.859 107.213 296.824 107.283 296.776 107.344C296.729 107.405 296.669 107.456 296.602 107.495C296.535 107.533 296.46 107.557 296.383 107.567C296.307 107.577 296.229 107.571 296.154 107.55L296.114 107.538C292.15 106.136 288.195 104.711 284.212 103.365L278.249 101.318C276.258 100.643 274.277 99.9398 272.28 99.287L272.4 99.3065C270.403 99.4284 268.457 99.988 266.7 100.946C264.895 101.87 263.181 102.962 261.58 104.206C259.958 105.437 258.407 106.757 256.932 108.16C255.455 109.555 254.01 111.012 252.671 112.513L252.665 111.549C256.123 114.965 259.794 118.157 263.657 121.107C267.48 124.086 271.493 126.815 275.67 129.275C277.76 130.488 279.888 131.629 282.078 132.627C284.253 133.648 286.497 134.511 288.796 135.209C293.333 136.705 298.132 137.242 302.887 136.784L302.922 136.781C303.12 136.76 303.319 136.808 303.486 136.916C303.653 137.025 303.777 137.188 303.837 137.378C304.58 139.705 305.457 142.037 306.39 144.322C307.325 146.611 308.348 148.866 309.489 151.057C310.578 153.273 311.832 155.405 313.24 157.435C314.618 159.485 316.296 161.316 318.218 162.868C318.244 162.888 318.262 162.917 318.267 162.949C318.273 162.982 318.265 163.015 318.245 163.042C318.226 163.067 318.199 163.084 318.168 163.09C318.137 163.096 318.105 163.09 318.078 163.074Z" fill="black"/>
</svg>
