<svg width="505" height="297" viewBox="0 0 505 297" fill="none" xmlns="http://www.w3.org/2000/svg">
<path d="M461.231 171.292C460.608 170.461 460.062 169.58 459.515 168.69C448.981 151.787 402.95 159.799 402.95 159.799C397.745 200.549 388.687 195.747 387.009 193.184C385.332 190.621 382.302 165.452 380.299 162.029C374.509 161.51 362.681 161.598 362.681 161.598C351.264 161.872 340.528 172.124 329.964 188.821C319.401 205.509 300.776 219.634 300.776 219.634C300.776 219.634 306.307 220.152 308.32 232.477C309.557 232.869 313.266 231.196 315.969 229.846C318.381 228.642 321.07 228.138 323.743 228.389C328.095 228.799 334.355 230.218 339.358 235.05C339.974 235.636 340.627 236.178 341.314 236.674C341.947 236.312 342.301 236.067 342.301 236.067C352.615 231.705 358.655 216.553 358.655 216.553C357.818 214.647 357.33 212.602 357.217 210.517C357.053 208.442 357.082 206.356 357.303 204.286C357.523 202.261 357.677 200.256 357.734 198.241C357.835 196.209 357.748 194.172 357.476 192.157C358.297 194.071 358.765 196.124 358.856 198.212C358.997 200.285 358.955 202.367 358.731 204.433C358.511 206.448 358.386 208.453 358.338 210.478C358.267 212.509 358.373 214.541 358.655 216.553C359.233 221.959 360.486 227.268 362.383 232.35C365.108 233.272 367.919 233.904 370.771 234.238C372.174 234.401 373.588 234.447 374.998 234.375C376.443 234.293 377.883 234.136 379.312 233.906C378.022 234.694 376.603 235.238 375.123 235.51C374.383 235.656 373.633 235.747 372.88 235.784C372.125 235.794 371.37 235.764 370.618 235.695C369.121 235.53 367.652 235.168 366.246 234.62C364.844 234.087 363.539 233.32 362.383 232.35C363.191 234.612 364.263 236.767 365.575 238.767C372.685 239.185 379.655 240.967 386.118 244.02C387.757 244.793 389.262 245.83 390.776 246.593C392.319 247.378 393.934 248.003 395.598 248.461C398.949 249.391 402.401 249.891 405.874 249.948C407.638 250.006 409.315 249.909 411.136 249.85C412.926 249.83 414.715 249.918 416.495 250.114C420.022 250.486 423.54 250.896 427.029 251.523C428.362 251.757 429.685 252.012 431.008 252.276C430.394 251.426 429.868 250.515 429.436 249.557C428.762 248.112 428.257 246.592 427.931 245.027C427.595 243.464 427.393 241.873 427.327 240.274C427.24 238.661 427.301 237.043 427.509 235.441L427.518 235.392L427.537 235.324C428.063 233.588 428.388 231.796 428.506 229.983C428.654 228.145 428.673 226.298 428.563 224.456C428.438 222.613 428.218 220.778 427.902 218.959C427.557 217.169 427.097 215.301 426.847 213.413C426.345 209.65 426.229 205.843 426.502 202.056C426.598 200.168 426.79 198.28 427.068 196.422C427.324 194.556 427.672 192.705 428.113 190.875C427.658 194.595 427.409 198.337 427.365 202.085C427.312 205.806 427.578 209.524 428.161 213.197C428.285 214.117 428.506 215.017 428.688 215.917L429.282 218.695C429.636 220.572 429.869 222.47 429.982 224.378C430.265 228.202 429.833 232.047 428.707 235.706C428.469 237.21 428.347 238.73 428.343 240.254C428.332 241.804 428.45 243.352 428.697 244.881C428.938 246.415 429.324 247.922 429.848 249.381C430.217 250.405 430.683 251.391 431.238 252.325C433.318 252.755 435.379 253.244 437.42 253.822C440.853 254.737 444.153 256.108 447.236 257.9C444.05 256.371 440.697 255.235 437.248 254.516C435.474 254.095 433.688 253.73 431.889 253.42C431.884 253.415 431.878 253.412 431.87 253.41C430.212 253.117 428.544 252.863 426.867 252.638C423.377 252.178 419.879 251.777 416.38 251.493C414.647 251.328 412.906 251.259 411.165 251.288C409.469 251.346 407.609 251.474 405.845 251.415C402.251 251.34 398.682 250.794 395.224 249.791C393.489 249.273 391.807 248.585 390.201 247.737C389.396 247.336 388.61 246.798 387.872 246.358C387.134 245.898 386.396 245.419 385.619 245.027C382.519 243.367 379.254 242.048 375.88 241.095C372.506 240.063 369.062 239.285 365.576 238.767L357.648 239.54C357.893 239.884 358.072 240.272 358.175 240.684C360.217 247.424 357.274 273.825 357.274 273.825C368.595 282.296 431.257 295.394 431.257 295.394C471.651 302.329 472.025 265.726 472.025 265.726C479.252 200.041 465.046 176.339 461.231 171.292ZM410.686 238.249C409.945 238.395 409.196 238.486 408.443 238.523C407.688 238.532 406.933 238.503 406.18 238.435C404.684 238.269 403.215 237.907 401.809 237.359C400.407 236.826 399.102 236.059 397.946 235.089C400.671 236.011 403.482 236.643 406.334 236.977C407.737 237.14 409.151 237.186 410.561 237.114C412.006 237.032 413.445 236.875 414.875 236.645C413.585 237.433 412.166 237.977 410.686 238.249V238.249Z" fill="black"/>
<path d="M380.215 162.075C379.939 161.651 379.632 161.248 379.296 160.87C378.962 160.499 378.595 160.16 378.2 159.857C377.807 159.561 377.384 159.311 376.937 159.111C376.507 158.914 376.049 158.788 375.58 158.736L375.73 158.706C374.768 159.179 373.751 159.526 372.704 159.738C371.64 159.972 370.544 160.009 369.468 159.846C368.351 159.678 367.297 159.208 366.416 158.486C365.607 157.746 364.896 156.9 364.304 155.971C363.147 154.181 362.118 152.309 361.225 150.368C360.325 148.441 359.516 146.492 358.761 144.49L359.536 145.012C358.643 145.105 357.742 144.965 356.916 144.606C356.435 144.376 356.029 144.009 355.747 143.549C355.487 143.105 355.332 142.605 355.295 142.089C355.25 141.205 355.373 140.32 355.657 139.483C355.907 138.685 356.237 137.916 356.641 137.186C357.399 136.055 357.754 134.693 357.648 133.327C357.588 132.662 357.409 132.014 357.119 131.415L356.597 130.417C356.416 130.063 356.241 129.703 356.077 129.335C355.738 128.598 355.468 127.831 355.27 127.043C355.054 126.275 354.879 125.496 354.746 124.709C354.579 123.928 354.528 123.128 354.432 122.337C354.401 121.538 354.353 120.741 354.395 119.944C354.46 116.736 355.23 113.584 356.647 110.72C356.696 110.624 356.771 110.543 356.863 110.489C356.955 110.434 357.06 110.407 357.167 110.412C357.273 110.416 357.376 110.451 357.464 110.512C357.551 110.574 357.62 110.66 357.662 110.76L357.671 110.781C358.841 113.538 360.334 116.14 362.118 118.53C363.894 120.943 366.027 123.059 368.441 124.803C370.849 126.55 373.599 127.745 376.502 128.304C379.4 128.85 382.379 128.768 385.244 128.065L385.264 128.061C385.332 128.045 385.402 128.049 385.467 128.073C385.533 128.097 385.59 128.139 385.632 128.195C386.789 129.819 387.594 131.675 387.996 133.641C388.423 135.561 388.641 137.523 388.646 139.492C388.656 141.452 388.52 143.409 388.237 145.347C387.899 147.187 387.772 149.061 387.858 150.931C387.945 152.738 388.424 154.503 389.261 156.099C390.096 157.635 391.372 158.874 392.917 159.649C394.493 160.399 396.233 160.715 397.966 160.565C399.741 160.419 401.478 159.962 403.101 159.216C403.258 159.147 403.429 159.121 403.599 159.141C403.768 159.161 403.929 159.226 404.066 159.33C404.203 159.434 404.31 159.573 404.377 159.733C404.445 159.892 404.469 160.068 404.449 160.24L404.448 160.253C403.744 166.488 402.649 172.67 401.171 178.762C400.405 181.836 399.398 184.843 398.161 187.754C397.525 189.24 396.744 190.658 395.83 191.985C395.352 192.669 394.81 193.303 394.211 193.88C393.589 194.502 392.858 194.999 392.056 195.345C391.198 195.721 390.249 195.828 389.33 195.652C388.421 195.461 387.585 195.006 386.923 194.342C386.57 194 386.288 193.589 386.095 193.133C385.94 192.739 385.809 192.336 385.702 191.927C385.487 191.144 385.324 190.375 385.163 189.603C384.53 186.524 384.095 183.438 383.612 180.359L382.192 171.129C381.949 169.593 381.694 168.059 381.4 166.535C381.161 165.01 380.764 163.515 380.215 162.075L380.209 162.061C380.198 162.038 380.197 162.012 380.205 161.988C380.214 161.965 380.231 161.945 380.253 161.934C380.275 161.922 380.3 161.92 380.324 161.928C380.347 161.936 380.367 161.952 380.379 161.974C381.047 163.393 381.549 164.887 381.876 166.425C382.256 167.94 382.596 169.462 382.925 170.986C383.59 174.034 384.149 177.099 384.75 180.154C385.34 183.208 385.951 186.263 386.623 189.271C386.798 190.019 386.977 190.768 387.193 191.481C387.29 191.822 387.407 192.156 387.543 192.483C387.662 192.74 387.831 192.97 388.04 193.157C388.475 193.587 389.029 193.872 389.626 193.973C390.224 194.074 390.837 193.986 391.385 193.722C392.593 193.064 393.608 192.09 394.326 190.901C395.131 189.651 395.822 188.329 396.392 186.951C397.553 184.128 398.491 181.215 399.196 178.239C400.621 172.223 401.732 166.134 402.523 159.997L403.869 161.034C402.033 161.846 400.073 162.329 398.076 162.462C396.025 162.605 393.974 162.197 392.125 161.28C390.268 160.325 388.748 158.804 387.777 156.926C386.863 155.093 386.361 153.076 386.307 151.02C386.257 149.039 386.438 147.058 386.846 145.119C387.188 143.259 387.39 141.374 387.45 139.482C387.518 137.597 387.376 135.711 387.026 133.859C386.712 132.031 386.031 130.29 385.028 128.742L385.416 128.871C382.438 129.501 379.367 129.527 376.379 128.949C374.891 128.653 373.441 128.183 372.058 127.55C370.671 126.934 369.345 126.184 368.099 125.309C365.619 123.546 363.398 121.429 361.507 119.023C359.572 116.638 357.93 114.021 356.617 111.23L357.642 111.291C356.439 114.015 355.842 116.976 355.892 119.963C355.898 121.453 356.05 122.939 356.348 124.398C356.487 125.129 356.665 125.851 356.882 126.562C357.073 127.265 357.323 127.951 357.627 128.612C357.777 128.945 357.939 129.276 358.11 129.605C358.28 129.943 358.455 130.232 358.659 130.646C359.042 131.433 359.281 132.285 359.365 133.16C359.495 134.899 359.042 136.632 358.081 138.075C357.373 139.241 356.975 140.575 356.926 141.946C356.923 142.193 356.987 142.437 357.112 142.648C357.238 142.86 357.419 143.031 357.635 143.142C358.209 143.385 358.831 143.483 359.45 143.426L359.46 143.426C359.626 143.419 359.789 143.465 359.927 143.559C360.064 143.653 360.169 143.79 360.225 143.949C360.91 145.903 361.685 147.856 362.511 149.764C363.306 151.677 364.235 153.53 365.291 155.307C365.795 156.17 366.407 156.961 367.111 157.662C367.831 158.294 368.703 158.719 369.636 158.894C371.61 159.214 373.632 158.957 375.468 158.153L375.508 158.136C375.543 158.122 375.581 158.117 375.618 158.123C376.154 158.207 376.673 158.38 377.154 158.636C377.621 158.879 378.06 159.175 378.463 159.518C378.855 159.864 379.213 160.249 379.532 160.666C379.846 161.08 380.13 161.517 380.379 161.974C380.385 161.986 380.389 161.998 380.391 162.011C380.393 162.023 380.392 162.036 380.389 162.049C380.385 162.061 380.38 162.073 380.372 162.083C380.364 162.093 380.355 162.102 380.344 162.108C380.322 162.12 380.297 162.123 380.273 162.117C380.249 162.111 380.228 162.096 380.215 162.075V162.075Z" fill="black"/>
<path d="M357.527 143.988C357.331 145.544 357.127 147.087 356.968 148.633C356.818 150.179 356.672 151.722 356.626 153.264C356.552 154.797 356.614 156.334 356.812 157.856C356.91 158.609 357.109 159.346 357.402 160.045C357.677 160.762 358.135 161.392 358.729 161.868C358.026 161.499 357.446 160.926 357.063 160.221C356.683 159.515 356.402 158.759 356.227 157.974C355.899 156.418 355.772 154.825 355.851 153.236C355.914 151.661 356.091 150.093 356.38 148.545C356.65 146.999 357.034 145.476 357.527 143.988V143.988Z" fill="black"/>
<path d="M357.066 111.062C356.868 110.711 356.743 110.322 356.698 109.919C356.652 109.517 356.688 109.11 356.802 108.722L356.96 108.139L357.208 107.6C357.294 107.421 357.372 107.236 357.467 107.062L357.792 106.572C358.224 105.919 358.715 105.308 359.256 104.746C359.805 104.202 360.389 103.701 360.962 103.18C363.38 101.314 365.969 99.6926 368.693 98.3374C370.053 97.679 371.427 97.0492 372.801 96.4231C374.19 95.8411 375.588 95.2792 376.989 94.7268C378.393 94.2021 379.819 93.7491 381.237 93.2686C381.955 93.0484 382.646 92.7984 383.413 92.582C384.157 92.3782 384.91 92.2147 385.67 92.092C388.69 91.585 391.779 91.7134 394.748 92.4693C397.705 93.2297 400.439 94.7076 402.716 96.7772C404.964 98.8786 406.815 101.382 408.179 104.163C409.55 106.933 410.597 109.857 411.3 112.876L411.314 112.957C412.054 117.1 413.357 121.117 415.184 124.893C416.086 126.777 417.13 128.586 418.307 130.305C419.465 132.026 420.773 133.639 422.214 135.122L424.493 137.276C425.313 138.009 426.084 138.796 426.8 139.634C428.266 141.287 429.476 143.159 430.386 145.186C432.274 149.19 432.746 153.737 431.723 158.055C431.717 158.079 431.702 158.1 431.681 158.113C431.66 158.126 431.636 158.131 431.612 158.126C431.588 158.121 431.567 158.107 431.553 158.087C431.539 158.067 431.533 158.042 431.536 158.017L431.537 158.006C431.807 155.898 431.724 153.758 431.291 151.677C430.899 149.617 430.189 147.633 429.186 145.8C428.694 144.889 428.146 144.011 427.545 143.17C426.929 142.341 426.261 141.554 425.545 140.813C424.846 140.055 424.097 139.347 423.303 138.693L420.868 136.541C417.739 133.458 415.2 129.808 413.378 125.778C412.471 123.783 411.704 121.724 411.082 119.618C410.436 117.511 409.967 115.351 409.678 113.163L409.692 113.244C409.119 110.307 408.263 107.435 407.138 104.669C406.011 101.9 404.357 99.3856 402.271 97.2725C401.198 96.2507 400.004 95.3703 398.717 94.6517C397.42 93.9493 396.033 93.4346 394.597 93.1226C391.722 92.5377 388.755 92.6098 385.91 93.3337C385.205 93.5 384.509 93.7041 383.826 93.9451C383.168 94.1813 382.47 94.4889 381.775 94.7585L377.588 96.3571C376.214 96.9221 374.836 97.4776 373.45 98.013L369.375 99.8005C366.691 101.029 364.103 102.466 361.635 104.099C361.059 104.547 360.462 104.981 359.902 105.453C359.353 105.93 358.842 106.451 358.372 107.01L358.022 107.43C357.92 107.579 357.835 107.737 357.739 107.89L357.46 108.357L357.267 108.859C356.99 109.524 356.974 110.272 357.222 110.949L357.231 110.969C357.241 110.992 357.243 111.017 357.235 111.04C357.228 111.063 357.212 111.083 357.191 111.094C357.17 111.106 357.145 111.109 357.122 111.103C357.099 111.097 357.079 111.082 357.066 111.062V111.062Z" fill="black"/>
<path d="M359.437 129.962C360.763 128.989 362.21 128.2 363.74 127.616C364.504 127.316 365.289 127.075 366.089 126.896C366.894 126.688 367.732 126.649 368.553 126.78C367.769 126.953 367.001 127.191 366.255 127.49L364.016 128.355C362.517 128.929 361.021 129.521 359.437 129.962Z" fill="black"/>
<path d="M363.631 135.429C363.933 135.419 364.219 135.289 364.428 135.067C364.638 134.846 364.755 134.55 364.755 134.242C364.755 133.934 364.638 133.638 364.428 133.416C364.219 133.195 363.933 133.065 363.631 133.054C363.33 133.065 363.044 133.195 362.834 133.416C362.624 133.638 362.507 133.934 362.507 134.242C362.507 134.55 362.624 134.846 362.834 135.067C363.044 135.289 363.33 135.419 363.631 135.429Z" fill="black"/>
<path d="M361.755 149.815C362.338 149.834 362.922 149.817 363.503 149.766C364.071 149.713 364.63 149.643 365.185 149.535C365.739 149.425 366.292 149.299 366.846 149.144C367.402 148.991 367.96 148.822 368.553 148.671C368.111 149.098 367.608 149.453 367.06 149.722C366.509 149.995 365.927 150.194 365.326 150.313C364.115 150.58 362.851 150.403 361.755 149.815V149.815Z" fill="black"/>
<path d="M357.437 270.318C354.555 269.235 351.591 268.392 348.576 267.796C345.607 267.18 342.558 267.08 339.557 267.503L338.452 267.693L337.373 267.992C336.657 268.196 335.954 268.443 335.267 268.732C333.893 269.336 332.576 270.066 331.332 270.913C330.065 271.761 328.862 272.732 327.447 273.571C326.029 274.382 324.504 274.98 322.919 275.345C321.344 275.726 319.727 275.893 318.11 275.84C316.416 275.842 314.746 275.429 313.241 274.635C312.826 274.376 312.456 274.049 312.145 273.667C311.868 273.319 311.696 273.064 311.453 272.779C310.996 272.243 310.468 271.775 309.883 271.39C308.598 270.627 307.24 269.999 305.831 269.514C304.311 269.021 302.853 268.346 301.489 267.503C300.797 267.026 300.19 266.434 299.692 265.751C299.447 265.429 299.227 265.121 298.992 264.837C298.876 264.689 298.755 264.563 298.631 264.42C298.496 264.256 298.34 264.093 298.225 263.928C297.309 262.633 296.469 261.284 295.708 259.887C294.938 258.515 294.171 257.147 293.436 255.755L293.661 255.924L291.687 255.485C291.005 255.366 290.336 255.179 289.689 254.927C288.393 254.374 287.255 253.495 286.381 252.373C285.903 251.811 285.575 251.133 285.428 250.404C285.372 250.02 285.396 249.628 285.498 249.254C285.601 248.88 285.78 248.532 286.023 248.234C286.489 247.673 287.059 247.212 287.701 246.878C288.342 246.543 289.043 246.342 289.761 246.286C290.455 246.245 291.152 246.274 291.84 246.372L293.849 246.52C295.19 246.607 296.531 246.671 297.872 246.713C300.554 246.797 303.237 246.777 305.903 246.607C308.55 246.467 311.18 246.092 313.762 245.484C315.011 245.181 316.221 244.729 317.366 244.137C317.902 243.851 318.402 243.498 318.852 243.085C319.305 242.662 319.715 242.195 320.079 241.69C320.382 241.339 320.572 240.901 320.621 240.435C320.605 240.335 320.589 240.296 320.463 240.185C320.275 240.062 320.069 239.968 319.853 239.908C318.655 239.66 317.421 239.643 316.216 239.858C315.6 239.945 314.992 240.082 314.397 240.266C314.154 240.339 313.92 240.44 313.699 240.566L313.492 240.703C313.402 240.767 313.311 240.818 313.219 240.871C313.041 240.973 312.857 241.063 312.668 241.143C311.966 241.429 311.23 241.624 310.48 241.723C310.119 241.775 309.761 241.812 309.403 241.837C308.989 241.875 308.572 241.86 308.162 241.791C307.295 241.641 306.492 241.226 305.859 240.603C305.256 239.986 304.819 239.222 304.59 238.383C304.188 236.775 304.4 235.071 305.182 233.615C305.571 232.805 306.184 232.128 306.947 231.671C307.201 231.534 307.477 231.443 307.762 231.402C307.928 231.379 308.097 231.378 308.264 231.398C308.351 231.407 308.437 231.423 308.521 231.445L308.63 231.475L308.642 231.473C308.838 231.493 309.035 231.48 309.227 231.435C310.46 231.146 311.662 230.733 312.816 230.203C313.423 229.94 314.027 229.665 314.629 229.378L315.529 228.942C315.853 228.785 316.181 228.636 316.515 228.497C317.851 227.951 319.255 227.598 320.687 227.45C322.102 227.319 323.528 227.369 324.932 227.599C326.303 227.791 327.662 228.072 328.999 228.44C331.691 229.164 334.251 230.327 336.58 231.885C337.734 232.675 338.815 233.572 339.809 234.564C340.768 235.465 341.794 236.289 342.877 237.029C347.499 239.779 352.834 241.02 358.166 240.586L358.175 240.586C358.199 240.584 358.224 240.593 358.243 240.609C358.261 240.625 358.273 240.649 358.276 240.674C358.278 240.699 358.271 240.724 358.255 240.744C358.24 240.764 358.218 240.777 358.193 240.78C352.741 241.634 347.165 240.663 342.299 238.013C341.109 237.279 339.977 236.45 338.914 235.533C335.971 232.866 332.416 231 328.578 230.109C327.304 229.796 326.012 229.566 324.71 229.421C323.445 229.246 322.163 229.235 320.896 229.387C319.645 229.537 318.421 229.862 317.257 230.354C316.968 230.478 316.683 230.611 316.4 230.754L315.481 231.213C314.865 231.515 314.243 231.808 313.614 232.092C312.319 232.713 310.961 233.186 309.565 233.501C309.096 233.602 308.613 233.602 308.144 233.503L308.032 233.477C307.996 233.468 308.025 233.476 308.018 233.474L308.028 233.476C308.033 233.477 308.034 233.475 308.026 233.476C307.977 233.486 307.93 233.504 307.887 233.529C307.497 233.798 307.185 234.169 306.984 234.603C306.452 235.583 306.298 236.731 306.551 237.821C306.683 238.313 306.93 238.766 307.271 239.14C307.61 239.483 308.042 239.713 308.511 239.801C308.766 239.848 309.025 239.859 309.283 239.835C309.598 239.818 309.91 239.791 310.217 239.751C310.805 239.684 311.383 239.543 311.937 239.332C312.061 239.283 312.182 239.226 312.298 239.162C312.354 239.133 312.407 239.101 312.459 239.066L312.678 238.926C313.042 238.711 313.431 238.543 313.836 238.426C314.533 238.22 315.245 238.071 315.965 237.98C317.426 237.746 318.917 237.803 320.356 238.149C320.789 238.278 321.197 238.482 321.56 238.755C321.787 238.934 321.977 239.158 322.117 239.413C322.257 239.668 322.345 239.95 322.375 240.241C322.414 240.743 322.318 241.246 322.098 241.696C321.931 242.067 321.722 242.416 321.476 242.737C321.033 243.335 320.528 243.882 319.972 244.37C319.407 244.863 318.784 245.281 318.117 245.615C316.841 246.235 315.498 246.699 314.115 246.996C311.43 247.56 308.696 247.854 305.955 247.873C303.237 247.931 300.527 247.837 297.828 247.661C296.478 247.571 295.131 247.457 293.786 247.321L291.77 247.1C291.126 246.998 290.473 246.96 289.821 246.987C289.192 247.028 288.577 247.195 288.011 247.478C287.445 247.761 286.939 248.155 286.523 248.638C286.329 248.865 286.185 249.132 286.1 249.42C286.016 249.709 285.993 250.013 286.032 250.311C286.156 250.935 286.434 251.516 286.839 252C287.644 253.047 288.704 253.858 289.913 254.354C290.528 254.586 291.164 254.756 291.812 254.861L293.796 255.256C293.841 255.265 293.884 255.283 293.922 255.311C293.959 255.338 293.991 255.373 294.014 255.413L294.021 255.425C295.505 258.156 297.172 260.779 299.01 263.276C299.126 263.428 299.249 263.539 299.366 263.673C299.504 263.818 299.659 263.967 299.791 264.121C300.067 264.427 300.316 264.745 300.557 265.035C301.005 265.6 301.544 266.083 302.15 266.464C303.464 267.191 304.856 267.758 306.298 268.155C307.837 268.607 309.323 269.229 310.729 270.011C311.453 270.464 312.111 271.019 312.683 271.66C312.955 271.961 313.236 272.346 313.453 272.6C313.646 272.815 313.869 273 314.115 273.148C315.376 273.778 316.764 274.098 318.168 274.085C319.639 274.132 321.11 273.992 322.546 273.668C323.979 273.355 325.36 272.833 326.645 272.116C327.906 271.384 329.169 270.446 330.497 269.592C331.841 268.722 333.26 267.98 334.737 267.374C335.488 267.094 336.255 266.859 337.033 266.672L338.2 266.402L339.385 266.247C342.523 265.921 345.692 266.162 348.748 266.96C351.76 267.738 354.693 268.802 357.51 270.137C357.533 270.147 357.551 270.166 357.56 270.189C357.57 270.212 357.57 270.238 357.562 270.261C357.553 270.285 357.536 270.304 357.513 270.315C357.491 270.326 357.466 270.327 357.442 270.32L357.437 270.318Z" fill="black"/>
<path d="M293.726 255.589C295.592 255.426 297.459 255.349 299.325 255.286C301.192 255.213 303.059 255.203 304.925 255.193L307.725 255.214C308.687 255.214 309.645 255.349 310.571 255.615C312.344 256.257 314.073 257.021 315.746 257.9C314.845 257.637 313.962 257.326 313.069 257.04C312.208 256.702 311.326 256.424 310.429 256.206C309.54 256.019 308.633 255.938 307.725 255.964L304.925 255.985C303.059 255.975 301.192 255.964 299.325 255.892C297.459 255.829 295.592 255.752 293.726 255.589Z" fill="black"/>
<path d="M294.674 257.292C295.929 258.279 297.129 259.333 298.32 260.396C298.936 260.907 299.483 261.51 300.083 261.935C300.688 262.38 301.367 262.71 302.086 262.911C302.779 263.123 303.581 263.155 304.372 263.306C305.16 263.438 305.94 263.612 306.711 263.827C308.286 264.164 309.751 264.909 310.964 265.989C310.312 265.547 309.596 265.21 308.843 264.993C308.1 264.751 307.343 264.559 306.575 264.42C305.806 264.284 305.038 264.143 304.262 264.047C303.46 263.969 302.664 263.844 301.877 263.673C301.072 263.438 300.316 263.053 299.649 262.537C299.034 262.007 298.452 261.437 297.907 260.832C296.806 259.681 295.712 258.519 294.674 257.292Z" fill="black"/>
<path d="M277.034 231.967C276.415 230.688 275.659 229.484 274.781 228.375L274.929 228.473C273.458 228.237 272.088 227.566 270.987 226.543C270.413 225.951 270.06 225.174 269.988 224.344C269.952 223.933 269.97 223.518 270.042 223.111C270.139 222.724 270.258 222.342 270.397 221.968C271.069 220.509 272.251 219.359 273.711 218.745C274.441 218.39 275.236 218.196 276.045 218.174C276.916 218.169 277.766 218.442 278.478 218.954L277.217 219.366C277.41 218.833 277.673 218.33 278.001 217.87C278.311 217.42 278.675 217.011 279.083 216.652C279.908 215.932 280.887 215.421 281.942 215.159C282.96 214.91 284.014 214.855 285.052 214.995L285.793 215.092C286.082 215.136 286.366 215.207 286.641 215.306C287.153 215.484 287.644 215.721 288.104 216.011C289.841 217.157 291.231 218.774 292.116 220.682C292.984 222.488 293.616 224.403 293.996 226.377L292.188 226.49C292.344 225.234 292.715 224.016 293.282 222.89C293.848 221.73 294.691 220.734 295.734 219.994C296.799 219.283 298.039 218.89 299.311 218.862C299.615 218.85 299.92 218.859 300.223 218.89L300.675 218.919C300.853 218.927 301.029 218.956 301.199 219.007C301.811 219.192 302.389 219.48 302.909 219.858C304.776 221.355 306.156 223.392 306.868 225.703C307.621 227.891 308.109 230.165 308.321 232.474C307.823 230.248 307.109 228.078 306.19 225.996C305.353 223.966 303.975 222.217 302.212 220.947C301.796 220.686 301.344 220.49 300.871 220.364C300.77 220.339 300.665 220.329 300.561 220.335L300.171 220.331C298.922 220.267 297.687 220.627 296.66 221.355C295.891 222.008 295.26 222.814 294.804 223.723C294.349 224.633 294.08 225.627 294.012 226.645L294.012 226.652C293.988 226.873 293.889 227.078 293.732 227.23C293.574 227.383 293.369 227.474 293.152 227.487C292.935 227.5 292.72 227.433 292.547 227.3C292.373 227.167 292.252 226.975 292.204 226.758C291.837 224.959 291.243 223.216 290.438 221.573C289.686 219.993 288.542 218.642 287.119 217.652C286.78 217.432 286.418 217.252 286.039 217.115C285.871 217.05 285.698 217.003 285.521 216.974L284.861 216.88C284.029 216.758 283.181 216.786 282.358 216.963C281.569 217.131 280.829 217.486 280.2 217.999C279.585 218.51 279.096 219.161 278.774 219.901L278.735 219.994C278.653 220.192 278.497 220.348 278.302 220.428C278.107 220.508 277.888 220.506 277.695 220.422C277.63 220.393 277.569 220.356 277.513 220.312C277.041 219.985 276.493 219.793 275.924 219.757C275.355 219.72 274.787 219.84 274.279 220.104C273.095 220.53 272.103 221.38 271.487 222.496C271.168 223.019 271.013 223.629 271.043 224.245C271.073 224.86 271.287 225.451 271.657 225.939C272.565 226.937 273.734 227.648 275.027 227.988L275.059 227.998C275.107 228.012 275.148 228.044 275.175 228.086C275.965 229.287 276.591 230.593 277.034 231.967V231.967Z" fill="black"/>
<path d="M270.566 231.302C270.052 230.223 269.14 229.394 268.029 228.999C266.95 228.684 265.796 228.772 264.775 229.249C264.284 229.403 263.843 229.69 263.498 230.079C263.153 230.469 262.917 230.945 262.816 231.46C262.769 232.536 263.057 233.6 263.637 234.5C264.221 235.495 264.916 236.417 265.708 237.248C265.9 237.464 266.103 237.661 266.303 237.862L266.953 238.441C267.416 238.85 267.865 239.267 268.309 239.687C270.087 241.366 271.748 243.13 273.406 244.919C273.53 245.053 273.612 245.222 273.641 245.404L273.651 245.467C273.76 246.036 273.942 246.588 274.192 247.108C274.717 248.226 275.463 249.22 276.383 250.029C276.851 250.461 277.318 250.75 277.944 251.24C279.089 252.157 280.056 253.286 280.793 254.568C281.535 255.827 282.085 257.194 282.424 258.623L282.38 258.483C282.817 259.717 283.637 260.772 284.716 261.487C285.868 262.173 287.176 262.539 288.51 262.55C289.909 262.581 291.306 262.434 292.67 262.111C294.064 261.801 295.432 261.377 296.759 260.843C295.513 261.59 294.195 262.207 292.826 262.684C291.437 263.182 289.987 263.484 288.517 263.584C286.973 263.697 285.427 263.383 284.042 262.675C283.342 262.278 282.714 261.763 282.183 261.152C281.67 260.535 281.242 259.85 280.912 259.115L280.895 259.07L280.868 258.975C280.514 257.75 279.99 256.583 279.312 255.509C278.642 254.447 277.799 253.511 276.818 252.74C276.378 252.396 275.695 251.964 275.16 251.479C274.598 250.996 274.086 250.454 273.633 249.863C273.172 249.27 272.778 248.625 272.461 247.94C272.126 247.224 271.894 246.463 271.773 245.68L272.018 246.227C270.413 244.446 268.756 242.69 267.095 240.974C266.676 240.549 266.254 240.129 265.826 239.724L265.148 239.074C264.928 238.839 264.706 238.606 264.504 238.363C263.675 237.395 262.963 236.329 262.382 235.188C261.705 233.991 261.449 232.594 261.656 231.228C261.731 230.868 261.864 230.525 262.049 230.209C262.247 229.912 262.471 229.634 262.72 229.378L263.552 228.793L264.447 228.419C265.669 227.977 267.009 228.016 268.205 228.529C268.764 228.801 269.263 229.187 269.669 229.664C270.075 230.142 270.38 230.699 270.566 231.302V231.302Z" fill="black"/>
<path d="M272.712 245.573C272.419 244.491 272.44 243.345 272.771 242.274C272.929 241.714 273.211 241.2 273.594 240.768C273.782 240.547 274.013 240.369 274.273 240.246C274.533 240.122 274.816 240.056 275.103 240.052C274.677 240.324 274.323 240.699 274.074 241.144C273.831 241.575 273.642 242.035 273.51 242.513C273.203 243.48 273.016 244.505 272.712 245.573Z" fill="black"/>
<path d="M274.977 228.233C275.636 228.067 276.174 227.952 276.745 227.838C277.343 227.701 277.951 227.62 278.563 227.597C278.148 228.134 277.553 228.496 276.893 228.615C276.565 228.693 276.225 228.7 275.895 228.634C275.564 228.568 275.251 228.431 274.977 228.233V228.233Z" fill="black"/>
<path d="M278.476 219.632C278.465 220.481 278.574 221.328 278.801 222.146C279.002 222.962 279.428 223.702 280.03 224.277C280.348 224.551 280.717 224.756 281.116 224.878C281.514 225.001 281.933 225.04 282.346 224.992C282.776 224.956 283.203 224.884 283.621 224.777L284.855 224.322L283.659 224.893C283.24 225.043 282.808 225.157 282.37 225.235C281.916 225.327 281.449 225.323 280.996 225.225C280.543 225.127 280.114 224.936 279.736 224.664C278.994 224.078 278.434 223.287 278.121 222.384C277.789 221.505 277.585 220.58 277.517 219.639C277.512 219.575 277.519 219.51 277.538 219.448C277.557 219.386 277.588 219.328 277.629 219.279C277.67 219.229 277.72 219.189 277.777 219.159C277.833 219.129 277.895 219.111 277.959 219.106C278.022 219.101 278.086 219.109 278.146 219.13C278.207 219.15 278.262 219.182 278.31 219.225C278.358 219.267 278.398 219.319 278.426 219.377C278.454 219.435 278.471 219.499 278.475 219.564C278.476 219.579 278.477 219.593 278.476 219.608L278.476 219.632Z" fill="black"/>
<path d="M282.338 225.158C283.003 226.192 283.591 227.275 284.096 228.4C284.661 229.532 285.048 230.748 285.242 232.003C285.296 232.236 285.405 232.453 285.56 232.634C285.714 232.815 285.909 232.955 286.128 233.042C286.629 233.299 287.167 233.475 287.722 233.563C288.288 233.669 288.869 233.674 289.437 233.578C290.024 233.527 290.568 233.247 290.957 232.797C290.811 233.081 290.608 233.33 290.362 233.53C290.116 233.729 289.832 233.874 289.528 233.955C288.922 234.138 288.289 234.21 287.659 234.169C287.015 234.139 286.383 233.984 285.796 233.711C285.454 233.575 285.153 233.35 284.92 233.06C284.687 232.77 284.532 232.424 284.468 232.055C284.275 230.884 283.966 229.735 283.546 228.628L282.338 225.158Z" fill="black"/>
<path d="M294.042 226.411C294.254 227.938 294.73 229.416 295.446 230.774C295.626 231.099 295.83 231.409 296.056 231.701C296.344 232.054 296.599 232.433 296.817 232.833C297.037 233.239 297.213 233.668 297.342 234.113C297.473 234.581 297.535 234.97 297.626 235.357C297.672 235.703 297.765 236.04 297.901 236.359C298.089 236.647 298.325 236.898 298.599 237.101C298.87 237.317 299.18 237.477 299.511 237.57C299.842 237.662 300.189 237.687 300.529 237.643C301.247 237.491 301.893 237.093 302.36 236.516C302.885 235.922 303.332 235.26 303.689 234.548L303.669 234.611C303.909 233.46 304.068 232.293 304.146 231.118C304.25 229.939 304.173 228.751 303.918 227.597C304.257 228.74 304.42 229.931 304.399 231.125C304.405 232.323 304.327 233.52 304.166 234.707C304.164 234.725 304.159 234.742 304.152 234.759L304.146 234.77C303.818 235.559 303.389 236.3 302.872 236.975C302.34 237.721 301.574 238.259 300.702 238.501C300.242 238.599 299.768 238.603 299.308 238.513C298.847 238.422 298.408 238.239 298.017 237.975C297.615 237.719 297.261 237.391 296.974 237.006C296.817 236.792 296.702 236.55 296.637 236.291L296.457 235.681C296.295 234.931 296.013 234.213 295.623 233.556C295.424 233.247 295.197 232.958 294.944 232.693C294.642 232.357 294.367 231.999 294.119 231.62C293.179 230.124 292.513 228.466 292.151 226.728C292.122 226.603 292.119 226.473 292.14 226.346C292.16 226.219 292.206 226.098 292.273 225.989C292.339 225.88 292.427 225.785 292.529 225.711C292.632 225.636 292.748 225.583 292.871 225.554C292.994 225.525 293.121 225.522 293.245 225.543C293.37 225.564 293.489 225.61 293.595 225.679C293.702 225.747 293.795 225.836 293.868 225.941C293.941 226.045 293.993 226.164 294.021 226.289C294.027 226.312 294.031 226.336 294.035 226.359L294.042 226.411Z" fill="black"/>
<path d="M292.273 243.551C292.312 243.551 292.34 243.56 292.379 243.56L292.465 243.619L292.273 243.551Z" fill="black"/>
<path d="M311.723 242.23C295.254 239.677 279.735 233.162 275.882 231.47C275.214 231.172 274.5 230.996 273.773 230.952C270.265 230.766 269.057 231.93 268.731 233.133C268.585 233.714 268.626 234.328 268.849 234.883C269.072 235.438 269.464 235.905 269.967 236.215L287.097 247.209L287.107 247.199C287.969 246.141 288.969 245.206 290.078 244.421C289.673 245.29 289.175 246.11 288.592 246.867C290.187 246.42 291.871 246.427 293.462 246.886C313.295 248.804 318.279 244.578 318.279 244.578C316.151 242.553 311.723 242.23 311.723 242.23ZM297.258 240.557L301.284 243.551L292.053 242.142L283.742 236.459L297.258 240.557ZM302.434 245.634C299.003 245.311 295.58 244.91 292.158 244.519C292.091 244.507 292.026 244.484 291.967 244.451C288.803 242.504 285.65 240.538 282.525 238.523L277.837 235.481C276.303 234.434 274.741 233.427 273.217 232.351C274.856 233.231 276.466 234.16 278.086 235.06L282.908 237.868C286.09 239.716 289.235 241.633 292.379 243.56C295.753 243.981 299.146 244.412 302.52 244.901C305.923 245.39 309.336 245.898 312.729 246.505C309.288 246.29 305.856 245.967 302.434 245.634H302.434Z" fill="black"/>
<path d="M292.465 243.619L292.273 243.551C292.312 243.551 292.34 243.56 292.379 243.56L292.465 243.619Z" fill="white"/>
<path d="M175.691 103.299C175.691 103.299 173.23 101.792 170.932 104.471C170.932 104.471 166.83 98.5226 149.436 103.674C149.436 103.674 151.734 108.155 153.374 108.155C155.015 108.155 150.257 115.857 145.826 115.522C145.826 115.522 138.278 126.741 144.021 137.626C149.682 148.353 153.748 151.761 159.363 144.803C159.535 144.587 159.727 144.388 159.937 144.21C161.552 142.851 168.7 137.201 171.234 141.414C171.773 142.35 171.928 143.466 171.663 144.518C170.507 149.46 165.099 167.664 149.436 160.399C149.436 160.399 131.183 153.414 135.489 136.867C135.949 135.184 136.617 133.567 137.475 132.055C138.304 130.511 138.814 128.811 138.975 127.058C139.137 125.306 138.945 123.538 138.414 121.863C137.754 119.476 136.265 117.415 134.226 116.066C132.249 114.807 129.642 114.245 127.668 117.764C126.851 119.228 126.42 120.883 126.418 122.568C126.414 124.11 126.695 126.001 127.94 126.909L126.418 129.923C125.59 128.204 124.531 126.611 123.272 125.19C121.163 123.011 119.809 120.189 119.414 117.154C118.856 112.338 119.528 105.148 125.151 96.7682C125.151 96.7682 132.699 81.3629 146.811 81.6978C160.923 82.0327 173.065 85.8839 175.691 103.299Z" fill="black"/>
<path d="M152.062 123.392C154.513 122.82 157.032 122.609 159.541 122.764C160.806 122.828 162.06 123.022 163.286 123.343C164.538 123.617 165.7 124.21 166.666 125.067C165.551 124.539 164.36 124.196 163.139 124.053C161.933 123.876 160.716 123.748 159.488 123.692C157.034 123.536 154.568 123.524 152.062 123.392Z" fill="black"/>
<path d="M175.691 123.153C174.793 123.432 173.963 123.899 173.253 124.524C172.916 124.808 172.642 125.16 172.448 125.559C172.254 125.958 172.144 126.394 172.127 126.839C172.193 127.752 172.427 128.644 172.818 129.468L173.891 132.16C174.691 133.982 175.157 135.938 175.263 137.931C175.262 138.456 175.167 138.977 174.984 139.468C174.788 139.965 174.467 140.4 174.053 140.73C173.213 141.27 172.222 141.511 171.234 141.414C172.16 141.333 173.042 140.973 173.767 140.38C174.065 140.056 174.29 139.669 174.425 139.247C174.561 138.825 174.604 138.378 174.552 137.937C174.481 137.005 174.296 136.085 174 135.2C173.724 134.293 173.394 133.395 173.043 132.5C172.706 131.599 172.341 130.702 172.013 129.779C171.856 129.313 171.696 128.848 171.573 128.356C171.419 127.848 171.368 127.314 171.42 126.785C171.475 126.259 171.643 125.752 171.912 125.3C172.181 124.847 172.545 124.461 172.977 124.169C173.789 123.615 174.72 123.266 175.691 123.153V123.153Z" fill="black"/>
<path d="M175.691 103.298C175.998 105.175 176.227 107.062 176.377 108.959C176.548 110.853 176.653 112.753 176.694 114.658C176.723 116.563 176.695 118.472 176.549 120.382C176.463 122.329 176.037 124.245 175.291 126.038C175.28 126.061 175.266 126.081 175.249 126.1C174.673 126.732 174.133 127.398 173.63 128.092C173.381 128.44 173.159 128.808 172.966 129.192C172.753 129.566 172.667 130.002 172.723 130.431C172.592 129.999 172.615 129.534 172.79 129.118C172.941 128.699 173.125 128.294 173.339 127.904C173.768 127.129 174.263 126.394 174.82 125.708L174.779 125.769C175.097 124.913 175.308 124.019 175.409 123.108C175.551 122.19 175.609 121.252 175.677 120.318C175.785 118.442 175.804 116.555 175.814 114.667C175.814 110.888 175.733 107.101 175.691 103.298Z" fill="black"/>
<path d="M165.845 136.118C165.672 136.482 165.532 136.861 165.427 137.25C165.321 137.61 165.297 137.991 165.359 138.362C165.41 138.729 165.568 139.073 165.811 139.348C166.069 139.652 166.355 139.93 166.666 140.177C166.467 140.117 166.272 140.046 166.081 139.963C165.895 139.859 165.72 139.736 165.558 139.596C165.22 139.297 164.991 138.889 164.91 138.439C164.853 137.994 164.918 137.541 165.099 137.131C165.267 136.739 165.523 136.392 165.845 136.118V136.118Z" fill="black"/>
<path d="M127.94 126.909C128.508 127.636 128.961 128.45 129.283 129.32C129.456 129.764 129.581 130.226 129.655 130.697C129.696 130.945 129.712 131.195 129.703 131.446L129.699 131.639L129.71 131.743C129.706 131.811 129.72 131.879 129.752 131.939C129.893 132.246 130.141 132.487 130.448 132.614C130.813 132.804 131.197 132.953 131.593 133.057C132.436 133.289 133.303 133.417 134.176 133.439C133.314 133.784 132.379 133.898 131.462 133.771C130.983 133.721 130.514 133.598 130.071 133.407C129.81 133.304 129.572 133.149 129.37 132.951C129.169 132.753 129.007 132.517 128.895 132.255C128.836 132.108 128.807 131.95 128.811 131.791L128.807 131.556L128.814 131.409C128.824 131.207 128.82 131.004 128.801 130.802C128.765 130.373 128.699 129.947 128.604 129.527C128.418 128.667 128.173 127.802 127.94 126.909Z" fill="black"/>
<path d="M126.418 129.923C126.052 131.277 125.535 132.585 124.879 133.82C124.236 135.073 123.461 136.25 122.566 137.33C121.67 138.431 120.608 139.378 119.42 140.136C118.229 140.89 116.865 141.313 115.464 141.364C116.746 140.971 117.951 140.352 119.023 139.534C120.073 138.71 121.028 137.769 121.872 136.727C122.738 135.687 123.539 134.592 124.27 133.449C125.006 132.301 125.736 131.136 126.418 129.923Z" fill="black"/>
<path d="M138.442 169.106C139.479 168.642 140.459 168.056 141.364 167.361C142.261 166.677 143.112 165.933 143.911 165.133C144.735 164.356 145.474 163.488 146.242 162.638L147.359 161.321C147.723 160.872 148.086 160.42 148.486 159.986C148.258 160.529 147.992 161.054 147.727 161.582C147.427 162.085 147.132 162.597 146.802 163.085C146.137 164.063 145.38 164.973 144.543 165.802C143.702 166.638 142.763 167.366 141.748 167.968C140.742 168.592 139.613 168.98 138.442 169.106V169.106Z" fill="black"/>
<path d="M122.026 137.028C121.209 135.793 120.199 134.704 119.036 133.804C118.794 133.586 118.501 133.435 118.185 133.366C117.869 133.298 117.541 133.314 117.233 133.413C116.688 133.791 116.298 134.358 116.134 135.008C115.91 135.702 115.748 136.414 115.651 137.138C115.603 137.498 115.559 137.872 115.528 138.218C115.529 138.548 115.558 138.935 115.59 139.295C115.731 140.772 116 142.233 116.392 143.662C117.114 146.569 118.236 149.357 119.724 151.942C121.232 154.527 123.036 156.92 125.098 159.07C126.132 160.137 127.206 161.165 128.296 162.166C129.429 163.119 130.511 164.143 131.69 165.019C132.259 165.488 132.886 165.868 133.48 166.297C134.109 166.666 134.712 167.085 135.367 167.398C136.633 168.1 137.979 168.638 139.374 169.001C142.162 169.756 145.124 169.438 147.697 168.109C150.283 166.701 152.455 164.616 153.99 162.068C153.996 162.057 154.005 162.048 154.017 162.045C154.028 162.041 154.041 162.042 154.052 162.048C154.062 162.054 154.069 162.064 154.073 162.075C154.076 162.087 154.076 162.099 154.071 162.11C152.736 164.877 150.637 167.185 148.034 168.751C146.7 169.523 145.233 170.025 143.713 170.229C142.188 170.413 140.643 170.313 139.153 169.933C137.674 169.575 136.251 169.01 134.923 168.255C134.244 167.911 133.629 167.467 132.986 167.069C132.382 166.615 131.743 166.206 131.17 165.714C129.969 164.794 128.918 163.719 127.807 162.709C127.24 162.217 126.76 161.63 126.239 161.089C125.738 160.528 125.196 160.008 124.73 159.415C122.787 157.123 121.023 154.68 119.454 152.108C117.855 149.536 116.582 146.769 115.665 143.871C115.217 142.405 114.925 140.894 114.793 139.364C114.768 138.972 114.745 138.606 114.753 138.181C114.797 137.778 114.85 137.404 114.911 137.018C115.032 136.249 115.222 135.493 115.479 134.759C115.594 134.354 115.788 133.977 116.048 133.649C116.308 133.322 116.629 133.05 116.993 132.85C117.402 132.687 117.855 132.677 118.271 132.824C118.648 132.956 119.001 133.153 119.313 133.406C120.46 134.403 121.407 135.617 122.104 136.98C122.107 136.985 122.109 136.991 122.109 136.997C122.11 137.003 122.11 137.009 122.108 137.015C122.107 137.021 122.104 137.027 122.1 137.031C122.097 137.036 122.092 137.04 122.087 137.043C122.077 137.049 122.065 137.05 122.054 137.047C122.042 137.045 122.033 137.038 122.026 137.028V137.028Z" fill="black"/>
<path d="M124.798 133.085C123.333 132.164 121.699 131.559 119.996 131.307C118.319 130.995 116.587 131.311 115.12 132.199C114.428 132.689 113.847 133.324 113.414 134.061L111.925 136.243C110.94 137.726 109.837 139.124 108.626 140.422C108.598 140.45 108.564 140.473 108.527 140.487C108.49 140.501 108.451 140.507 108.411 140.505L108.389 140.504C102.257 140.133 96.1035 139.985 89.9664 140.027C86.8973 140.053 83.8313 140.178 80.783 140.423C77.7582 140.594 74.7633 141.124 71.859 142.004L71.8076 142.018L71.7374 142.033C70.13 142.453 68.5989 143.133 67.2024 144.048C66.476 144.497 65.777 144.99 65.1093 145.526L64.0976 146.32C63.7711 146.599 63.4634 146.904 63.1453 147.194C60.6115 149.557 58.3605 152.217 56.439 155.12C52.5823 160.973 49.4301 167.279 47.0503 173.901C46.4621 175.563 45.8179 177.203 45.2752 178.882L43.722 183.944C43.1963 185.611 42.7263 187.378 42.1141 189.066C41.5188 190.771 40.8223 192.419 40.1555 194.056L38.1026 198.974L37.0336 201.424C36.6693 202.272 36.2632 203.1 35.8169 203.906C35.7263 204.057 35.6234 204.199 35.5094 204.332C35.5745 204.334 35.5801 204.182 35.5837 204.243C35.5733 204.339 35.5772 204.435 35.5954 204.53C35.6638 204.876 35.7807 205.21 35.9427 205.522C36.3009 206.22 36.7792 206.847 37.3547 207.372C38.53 208.45 40 209.136 41.5677 209.337L40.9514 210.864C39.9845 210.093 39.0694 209.257 38.212 208.362C37.7422 207.879 37.3326 207.339 36.9923 206.754C36.8898 206.563 36.8084 206.362 36.7496 206.153C36.7187 206.015 36.6978 205.876 36.687 205.735C36.687 205.55 36.7178 205.367 36.7781 205.193C36.8468 205.007 36.9573 204.838 37.1008 204.703C37.1674 204.639 37.2374 204.58 37.3106 204.525C37.3741 204.487 37.4359 204.458 37.5004 204.426C37.7162 204.325 37.9464 204.26 38.1825 204.232C38.8569 204.183 39.5348 204.232 40.1957 204.378C40.8133 204.492 41.4044 204.645 41.9933 204.803L43.7489 205.372L45.447 206.067C49.8825 208.11 53.8163 210.821 57.9114 213.207C61.9799 215.631 66.1877 217.803 70.5119 219.712C74.8505 221.598 79.2847 223.245 83.7957 224.647L83.8011 224.649C83.9247 224.688 84.0316 224.769 84.104 224.878C84.1765 224.988 84.2102 225.119 84.1995 225.251C83.8088 229.749 83.6506 234.264 83.7253 238.779C83.756 241.024 83.944 243.264 84.2879 245.482C84.4515 246.564 84.7562 247.619 85.1939 248.618C85.3975 249.068 85.7023 249.463 86.0835 249.77C86.1811 249.814 86.2758 249.86 86.3702 249.911C86.4699 249.943 86.5761 249.941 86.6781 249.965C86.9073 249.993 87.2202 249.976 87.4872 249.983L114.154 250.058C123.043 250.102 131.931 250.053 140.82 250.042L167.487 249.95L167.179 250.089C168.995 248.138 170.982 246.36 173.116 244.779C175.245 243.175 177.558 241.841 180.004 240.808C182.475 239.747 185.13 239.203 187.812 239.209C189.172 239.234 190.525 239.434 191.836 239.804L195.53 241.068C196.765 241.477 198.003 241.875 199.244 242.244C200.437 242.654 201.671 242.926 202.924 243.055C204.315 243.215 205.66 243.66 206.878 244.364C207.519 244.714 208.098 245.17 208.591 245.714C208.867 246.015 209.08 246.37 209.219 246.757C209.357 247.144 209.418 247.556 209.398 247.967C209.432 248.669 209.409 249.372 209.328 250.069C209.243 250.879 208.908 251.64 208.371 252.242C207.792 252.825 207.03 253.179 206.22 253.244C205.508 253.321 204.788 253.298 204.081 253.175C203.408 253.067 202.742 252.912 202.089 252.712L200.225 252.137C199.629 251.963 199.022 251.827 198.409 251.732C197.902 251.626 197.378 251.631 196.873 251.748L197.057 250.453C199.524 252.216 202.42 253.247 205.426 253.433C206.946 253.515 208.469 253.426 209.969 253.167C211.518 252.951 213.055 252.686 214.616 252.42C215.402 252.293 216.183 252.153 217.047 252.097C217.52 252.057 217.997 252.086 218.463 252.182C219.025 252.305 219.533 252.61 219.91 253.053C220.235 253.447 220.484 253.9 220.644 254.389C221.102 255.7 221.17 257.119 220.84 258.47C220.608 259.366 220.195 260.204 219.627 260.928C219.059 261.652 218.35 262.247 217.543 262.674C216.032 263.466 214.387 263.958 212.696 264.125L213.434 263.558C213.04 264.477 212.55 265.351 211.973 266.164C211.4 266.985 210.733 267.734 209.986 268.393C209.201 269.064 208.308 269.591 207.347 269.951C206.358 270.291 205.312 270.426 204.271 270.349L205.059 270.018C203.457 271.923 201.886 273.792 200.082 275.593C199.852 275.817 199.608 276.042 199.337 276.266C199.058 276.482 198.766 276.68 198.463 276.859C197.893 277.187 197.301 277.473 196.692 277.714C195.503 278.185 194.275 278.544 193.022 278.787C190.541 279.259 188.009 279.378 185.496 279.14C184.869 279.096 184.25 278.992 183.627 278.92L181.781 278.59L180.051 278.301L178.29 278.114C173.495 277.862 168.689 278.02 163.92 278.587C159.119 279.084 154.331 279.823 149.567 280.684C147.203 281.112 144.862 281.68 142.477 282.216C140.102 282.754 137.719 283.278 135.33 283.771C130.549 284.745 125.747 285.633 120.917 286.338C111.258 287.802 101.513 288.588 91.7493 288.692C90.529 288.697 89.3091 288.743 88.0889 288.715L84.4285 288.63C81.9874 288.613 79.5514 288.436 77.115 288.288C74.6757 288.182 72.2493 287.894 69.8202 287.652C68.6002 287.515 67.4053 287.439 66.1611 287.241C64.9291 287.046 63.7094 286.778 62.5083 286.437C57.6571 285.101 53.2567 282.436 49.7839 278.731C46.3065 275.005 44.1076 270.228 43.5173 265.118C42.4485 255.214 42.0193 245.296 41.7759 235.373C41.5636 225.45 41.537 215.529 41.6961 205.608C41.6964 205.583 41.7067 205.558 41.7248 205.54C41.743 205.521 41.7675 205.511 41.7929 205.512C41.8183 205.512 41.8426 205.522 41.8604 205.541C41.8782 205.559 41.8881 205.584 41.8878 205.61C41.9286 215.527 42.1524 225.439 42.5593 235.347C42.9892 245.243 43.5197 255.158 44.7253 264.958C45.3443 269.776 47.4807 274.258 50.8126 277.729C54.1328 281.202 58.3189 283.684 62.9197 284.908C64.0627 285.222 65.2228 285.467 66.3941 285.642C67.5534 285.817 68.7872 285.888 69.9832 286.012C72.3926 286.23 74.7978 286.495 77.217 286.579C79.6329 286.704 82.0471 286.859 84.4675 286.854L88.0955 286.906C89.3047 286.924 90.5144 286.868 91.7236 286.852L95.3512 286.777L98.9754 286.586C101.393 286.488 103.803 286.272 106.215 286.074C108.63 285.914 111.03 285.585 113.438 285.346C115.839 285.041 118.241 284.739 120.635 284.373C125.425 283.664 130.189 282.774 134.936 281.797C137.31 281.303 139.676 280.778 142.045 280.237C144.404 279.702 146.793 279.119 149.214 278.675C154.017 277.797 158.845 277.042 163.713 276.529C168.603 275.938 173.535 275.79 178.45 276.087L180.313 276.295L182.178 276.616L183.92 276.936C184.504 277.005 185.085 277.107 185.67 277.151C188.003 277.384 190.355 277.286 192.661 276.86C193.798 276.646 194.913 276.327 195.993 275.906C196.517 275.702 197.027 275.459 197.518 275.181C197.741 275.051 197.957 274.908 198.164 274.751C198.366 274.586 198.574 274.397 198.785 274.194C200.465 272.535 202.077 270.647 203.646 268.797C203.737 268.689 203.851 268.602 203.98 268.545C204.108 268.487 204.247 268.46 204.387 268.464L204.434 268.466C205.215 268.525 206 268.427 206.744 268.178C207.497 267.896 208.197 267.486 208.814 266.964C209.447 266.407 210.014 265.776 210.503 265.083C210.997 264.39 211.421 263.647 211.767 262.866L211.769 262.861C211.834 262.71 211.936 262.58 212.065 262.481C212.194 262.383 212.346 262.32 212.506 262.299C213.956 262.164 215.37 261.755 216.674 261.092C217.274 260.788 217.804 260.358 218.229 259.83C218.654 259.301 218.964 258.687 219.14 258.027C219.313 257.362 219.349 256.667 219.246 255.986C219.182 255.357 218.966 254.753 218.618 254.23C218.481 254.054 218.286 253.936 218.069 253.897C217.761 253.837 217.447 253.819 217.135 253.845C216.426 253.882 215.65 254.007 214.881 254.124C213.332 254.371 211.76 254.625 210.186 254.827C208.574 255.085 206.94 255.16 205.312 255.054C201.993 254.817 198.805 253.632 196.114 251.635L196.1 251.624C195.994 251.545 195.912 251.437 195.862 251.313C195.812 251.189 195.797 251.053 195.817 250.921C195.838 250.788 195.893 250.664 195.978 250.562C196.063 250.46 196.174 250.383 196.298 250.34C197.054 250.11 197.855 250.077 198.627 250.245C199.301 250.357 199.967 250.512 200.622 250.71L202.491 251.308C203.083 251.498 203.687 251.646 204.298 251.751C205.477 251.956 206.76 251.933 207.391 251.263C208.056 250.601 208.097 249.292 208.067 247.986C208.072 247.837 208.066 247.688 208.049 247.54C208.048 247.432 208.024 247.325 207.98 247.227C207.895 246.991 207.766 246.775 207.6 246.591C207.209 246.157 206.75 245.792 206.242 245.51C205.192 244.891 204.033 244.489 202.83 244.327C201.491 244.179 200.173 243.877 198.9 243.427C197.644 243.039 196.402 242.625 195.163 242.2L191.462 240.89C190.264 240.547 189.029 240.354 187.786 240.318C185.246 240.289 182.727 240.779 180.376 241.759C175.626 243.81 171.343 246.84 167.794 250.659L167.78 250.672C167.742 250.712 167.696 250.744 167.646 250.765C167.595 250.787 167.541 250.798 167.486 250.798L140.822 250.706C131.934 250.695 123.046 250.646 114.158 250.691L87.495 250.765C87.2073 250.76 86.962 250.783 86.6393 250.757C86.4671 250.741 86.2963 250.712 86.1283 250.671L85.6611 250.45C85.1529 250.072 84.7441 249.572 84.4707 248.994C83.9825 247.929 83.6376 246.801 83.4453 245.642C83.0626 243.384 82.8393 241.1 82.7769 238.81C82.6396 234.255 82.7378 229.696 83.0712 225.151L83.4749 225.755C78.9009 224.403 74.4016 222.801 69.9963 220.955C65.5962 219.083 61.3105 216.943 57.1624 214.546C52.9959 212.21 49.03 209.497 44.8042 207.581L43.2019 206.933L41.5691 206.411C41.0119 206.264 40.4533 206.123 39.9046 206.024C39.406 205.915 38.8956 205.873 38.3863 205.9C38.3183 205.918 38.1994 205.933 38.2159 205.942L38.2047 205.939C38.2217 205.935 38.237 205.925 38.2486 205.912C38.2567 205.886 38.3125 205.846 38.3223 205.788C38.3512 205.556 38.3213 205.774 38.4479 205.951C38.7218 206.401 39.0459 206.816 39.4137 207.19C40.2168 208.02 41.0728 208.794 41.976 209.509L41.9838 209.515C42.1279 209.631 42.2309 209.792 42.2769 209.973C42.3229 210.154 42.3095 210.345 42.2387 210.518C42.1678 210.69 42.0435 210.834 41.8847 210.928C41.726 211.021 41.5415 211.059 41.3597 211.036C39.4446 210.796 37.6471 209.965 36.2089 208.652C35.4811 207.991 34.8759 207.201 34.4222 206.32C34.1749 205.846 33.9994 205.337 33.9017 204.809C33.838 204.467 33.8468 204.114 33.9277 203.775C33.994 203.523 34.1175 203.29 34.2882 203.096C34.3071 203.042 34.2945 203.091 34.3562 202.977C34.7326 202.314 35.1142 201.474 35.4744 200.691L36.5429 198.275L38.6111 193.391C39.2899 191.749 39.9816 190.135 40.5641 188.492C41.1699 186.847 41.6206 185.181 42.1697 183.466L43.7656 178.358C44.3232 176.665 44.984 175.005 45.5882 173.326C48.0461 166.599 51.2893 160.198 55.2475 154.263C56.2563 152.783 57.3379 151.357 58.4882 149.99C59.6602 148.633 60.9147 147.352 62.2443 146.156C62.5791 145.858 62.9025 145.547 63.2468 145.261L64.3158 144.442C65.0252 143.889 65.7667 143.38 66.5363 142.918C68.0878 141.927 69.7913 141.209 71.5758 140.794L71.4545 140.824C74.4661 139.946 77.5686 139.433 80.6978 139.297C83.7875 139.09 86.8767 139.004 89.9621 139.018C96.1344 139.032 102.29 139.351 108.437 139.851L108.2 139.932C109.403 138.689 110.506 137.349 111.498 135.925L113.026 133.786C113.507 133.012 114.142 132.351 114.89 131.844C115.646 131.347 116.507 131.039 117.403 130.947C118.28 130.841 119.167 130.859 120.04 131C121.773 131.295 123.43 131.949 124.906 132.923C124.927 132.937 124.942 132.959 124.947 132.984C124.953 133.009 124.949 133.035 124.935 133.057C124.922 133.079 124.901 133.094 124.876 133.1C124.852 133.106 124.826 133.102 124.804 133.089L124.798 133.085Z" fill="black"/>
<path d="M79.7823 149.682C80.9774 150.027 82.0618 150.689 82.9261 151.6C83.8167 152.496 84.529 153.559 85.0238 154.731C85.5195 155.897 85.7982 157.147 85.8457 158.416C85.8694 159.041 85.8381 159.667 85.7519 160.286C85.6476 160.901 85.4884 161.504 85.2764 162.089C85.0637 161.484 84.9677 160.9 84.8115 160.329C84.6438 159.762 84.5433 159.197 84.3569 158.657C84.0596 157.586 83.6951 156.534 83.2656 155.51C82.8348 154.492 82.3311 153.507 81.7586 152.564C81.159 151.563 80.4989 150.6 79.7823 149.682V149.682Z" fill="black"/>
<path d="M83.9636 173.125C84.3329 177.467 84.5131 181.808 84.6267 186.149C84.7523 190.49 84.7657 194.83 84.7576 199.17C84.7135 203.509 84.6452 207.848 84.4655 212.187C84.2977 216.526 84.0618 220.864 83.6354 225.201C83.2637 220.859 83.0825 216.518 82.9694 212.177C82.8443 207.837 82.8309 203.497 82.8415 199.157C82.888 194.817 82.9561 190.478 83.1364 186.139C83.3047 181.8 83.5396 177.462 83.9636 173.125Z" fill="black"/>
<path d="M171.719 144.438C175.23 146.68 178.676 149.014 182.058 151.442C183.751 152.654 185.43 153.889 187.095 155.145L189.572 157.076C190.007 157.408 190.416 157.774 190.796 158.169L191.385 158.797L191.881 159.438C193.165 161.128 194.337 162.904 195.388 164.754C196.446 166.577 197.477 168.412 198.479 170.26C200.459 173.97 202.499 177.64 204.597 181.268C205.647 183.084 206.717 184.887 207.806 186.679L209.437 189.365C209.92 190.243 210.494 191.066 211.149 191.819C211.844 192.514 212.671 193.203 213.39 194.068C214.242 194.974 214.756 196.157 214.84 197.41C214.776 198.694 214.227 199.904 213.309 200.786C212.917 201.19 212.505 201.574 212.074 201.935C211.688 202.252 211.313 202.585 210.946 202.929C210.209 203.62 209.53 204.347 208.84 205.128C208.137 205.92 207.409 206.689 206.671 207.449C205.181 208.968 203.598 210.39 201.932 211.706C200.234 213.047 198.386 214.178 196.426 215.074C195.398 215.517 194.318 215.822 193.213 215.981C192.052 216.157 190.867 216.052 189.753 215.674C189.576 215.62 189.424 215.5 189.329 215.338L189.322 215.327C188.603 214.111 187.815 212.898 187.018 211.711C186.222 210.518 185.389 209.355 184.517 208.219C183.642 207.093 182.708 206.016 181.717 204.995C180.763 203.944 179.595 203.119 178.295 202.579L178.288 202.577C178.265 202.569 178.246 202.552 178.235 202.53C178.224 202.508 178.221 202.483 178.227 202.459C178.234 202.435 178.249 202.414 178.269 202.402C178.29 202.389 178.314 202.384 178.338 202.389C179.759 202.763 181.072 203.475 182.171 204.467C183.298 205.397 184.354 206.413 185.329 207.507C187.291 209.674 189.093 211.986 190.721 214.423L190.29 214.076C192.116 214.456 194.014 214.175 195.657 213.28C197.452 212.407 199.139 211.32 200.683 210.042C202.282 208.775 203.812 207.418 205.264 205.978C205.999 205.261 206.726 204.533 207.429 203.781C208.142 203.016 208.91 202.235 209.713 201.524C210.117 201.165 210.531 200.817 210.958 200.485C211.345 200.155 211.712 199.874 212.036 199.538C212.664 198.986 213.074 198.22 213.19 197.383C213.14 196.514 212.801 195.689 212.228 195.044C211.641 194.273 210.899 193.575 210.179 192.736C209.99 192.517 209.812 192.287 209.648 192.048L209.232 191.33L208.484 189.93L207.023 187.137C206.058 185.271 205.073 183.419 204.068 181.579C202.051 177.903 199.925 174.287 197.622 170.79C195.339 167.298 193.023 163.763 190.55 160.537L190.082 159.941L189.595 159.432C189.26 159.067 188.897 158.73 188.51 158.425L186.1 156.471L181.234 152.572C177.984 149.976 174.774 147.318 171.607 144.597C171.588 144.581 171.576 144.558 171.573 144.533C171.57 144.509 171.576 144.484 171.591 144.464C171.605 144.444 171.626 144.43 171.65 144.425C171.674 144.42 171.699 144.425 171.72 144.438L171.719 144.438Z" fill="black"/>
<path d="M184.552 176.027C182.874 182.462 181.289 188.913 179.966 195.389C179.285 198.599 178.81 201.851 178.543 205.124C178.452 206.698 178.443 208.436 178.307 210.12C178.175 211.837 177.894 213.539 177.466 215.206C176.458 218.5 174.844 221.568 172.71 224.244C171.724 225.586 170.679 226.884 169.701 228.188C169.23 228.836 168.753 229.478 168.33 230.171C167.877 230.839 167.467 231.542 167.059 232.247C165.454 235.11 164.019 238.069 162.761 241.108C161.435 244.135 160.29 247.245 159.172 250.374C160.596 243.833 162.806 237.495 165.752 231.506C166.512 229.992 167.383 228.539 168.358 227.158C169.324 225.794 170.315 224.493 171.247 223.147C173.211 220.629 174.694 217.757 175.62 214.681C176.031 213.133 176.307 211.55 176.443 209.952C176.596 208.321 176.591 206.73 176.738 204.986C177.08 201.634 177.673 198.314 178.512 195.055C180.121 188.586 182.139 182.23 184.552 176.027Z" fill="black"/>
<path d="M212.601 200.251C214.71 201.923 216.709 203.704 218.739 205.362C219.252 205.766 219.763 206.163 220.265 206.511L221.101 207.019C221.408 207.218 221.701 207.426 221.979 207.644C223.056 208.529 224.046 209.518 224.936 210.597C226.705 212.733 228.095 215.167 229.046 217.79C230.041 220.388 230.322 223.213 229.859 225.962C229.58 223.322 228.84 220.754 227.677 218.378C226.543 216.036 225.131 213.846 223.473 211.856C222.674 210.857 221.79 209.932 220.831 209.093C220.599 208.883 220.36 208.689 220.12 208.509L219.289 207.921C218.743 207.489 218.225 207.021 217.739 206.519C215.841 204.596 214.121 202.498 212.601 200.251V200.251Z" fill="black"/>
<path d="M191.437 215.167C193.322 217.747 194.61 220.73 195.205 223.89C195.272 224.293 195.328 224.7 195.382 225.108C195.419 225.503 195.423 225.97 195.472 226.309C195.546 227 195.707 227.679 195.952 228.328C196.487 229.715 197.172 231.036 197.995 232.267C198.81 233.541 199.707 234.759 200.68 235.912C201.15 236.507 201.669 237.059 202.168 237.63C202.71 238.156 203.203 238.741 203.761 239.25C205.888 241.454 208.434 243.188 211.244 244.346C209.679 244.184 208.157 243.731 206.751 243.011C205.347 242.28 204.018 241.408 202.785 240.407C200.302 238.41 198.144 236.024 196.392 233.337C195.502 231.962 194.78 230.482 194.24 228.929C193.98 228.097 193.831 227.233 193.797 226.361C193.772 225.92 193.783 225.601 193.783 225.214L193.728 224.093C193.384 221.022 192.613 218.016 191.437 215.167V215.167Z" fill="black"/>
<path d="M212.601 240.272C212.792 239.011 213.22 237.8 213.862 236.706C214.491 235.599 215.255 234.578 216.136 233.668C217.027 232.774 218.016 231.987 219.083 231.323C219.613 230.993 220.161 230.694 220.723 230.427C221.298 230.186 221.872 229.952 222.457 229.756C221.44 230.476 220.437 231.168 219.486 231.921C218.536 232.665 217.633 233.468 216.781 234.325C215.94 235.189 215.164 236.115 214.458 237.097C213.738 238.09 213.116 239.153 212.601 240.272Z" fill="black"/>
<path d="M216.061 242.505C218.19 239.03 220.524 235.689 223.047 232.501C224.309 230.903 225.621 229.343 226.982 227.819C228.366 226.304 229.833 224.868 231.374 223.52C232.945 222.112 234.713 220.951 236.619 220.076C237.65 219.633 238.761 219.416 239.879 219.439C241.025 219.469 242.145 219.796 243.133 220.389C244.973 221.599 246.382 223.383 247.149 225.475C247.548 226.471 247.837 227.509 248.01 228.57C248.223 229.669 248.201 230.802 247.946 231.891L247.639 231.205C249.796 232.328 251.872 233.544 253.932 234.809C255.987 236.075 258.015 237.389 259.97 238.817C261.967 240.206 263.817 241.802 265.491 243.581C266.338 244.499 267.056 245.532 267.626 246.65C268.252 247.841 268.4 249.234 268.04 250.534L268.05 250.498C267.779 251.575 267.195 252.543 266.376 253.277C265.93 253.641 265.412 253.901 264.858 254.039C264.303 254.177 263.726 254.189 263.166 254.075C262.128 253.859 261.141 253.439 260.261 252.837C259.415 252.273 258.615 251.639 257.871 250.941L259.155 250.374C259.12 251.716 258.838 253.038 258.326 254.274C257.824 255.522 257.072 256.649 256.12 257.584C255.165 258.505 254.047 259.231 252.825 259.724C252.308 259.952 251.804 260.21 251.316 260.497C251.092 260.628 250.876 260.774 250.671 260.934C250.593 260.995 250.521 261.061 250.454 261.134C250.403 261.179 250.417 261.232 250.463 261.058L250.138 260.122C250.735 260.651 251.229 261.29 251.593 262.007C251.982 262.742 252.185 263.565 252.186 264.401C252.186 265.236 251.982 266.059 251.594 266.795C251.24 267.493 250.774 268.127 250.216 268.67C249.095 269.747 247.671 270.438 246.145 270.647C245.436 270.734 244.722 270.768 244.008 270.748C243.24 270.747 242.477 270.623 241.747 270.381L242.425 270.384C240.193 271.089 237.898 271.571 235.574 271.824C233.256 272.066 230.919 272.053 228.603 271.786C227.398 271.669 226.214 271.384 225.085 270.938C224.457 270.691 223.889 270.308 223.419 269.816C222.95 269.324 222.59 268.734 222.364 268.087C222.032 266.792 222.185 265.417 222.793 264.23C223.064 263.656 223.415 263.124 223.835 262.652C224.283 262.081 224.926 261.705 225.635 261.598L225.556 261.608C225.89 261.557 226.227 261.528 226.565 261.521C226.897 261.514 227.23 261.526 227.56 261.558C228.237 261.614 228.898 261.794 229.511 262.09L229.017 262.679C228.713 262.127 228.474 261.54 228.308 260.929C228.136 260.322 228.06 259.691 228.081 259.059C228.103 258.421 228.28 257.799 228.595 257.248C228.915 256.716 229.35 256.266 229.867 255.932C229.888 255.918 229.914 255.913 229.939 255.918C229.964 255.923 229.986 255.938 230 255.96C230.013 255.98 230.018 256.005 230.014 256.03C230.01 256.054 229.998 256.076 229.979 256.091C229.53 256.447 229.167 256.903 228.917 257.424C228.68 257.936 228.569 258.499 228.591 259.065C228.618 259.634 228.731 260.195 228.928 260.727C229.12 261.259 229.372 261.766 229.68 262.238C229.727 262.308 229.751 262.392 229.748 262.477C229.745 262.562 229.716 262.644 229.664 262.711C229.613 262.778 229.541 262.826 229.461 262.849C229.381 262.872 229.295 262.869 229.217 262.839L229.186 262.827C228.644 262.625 228.073 262.513 227.496 262.496C227.202 262.486 226.908 262.492 226.614 262.516C226.327 262.539 226.041 262.58 225.758 262.64L225.72 262.646L225.678 262.649C225.276 262.791 224.928 263.059 224.684 263.414C224.365 263.818 224.106 264.267 223.912 264.747C223.503 265.65 223.434 266.676 223.718 267.629C223.897 268.063 224.165 268.453 224.505 268.772C224.845 269.092 225.248 269.333 225.687 269.479C226.686 269.822 227.726 270.027 228.778 270.088C230.971 270.259 233.174 270.19 235.352 269.882C237.526 269.608 239.67 269.122 241.753 268.431C241.965 268.359 242.195 268.357 242.408 268.426L242.432 268.434C243.558 268.687 244.719 268.735 245.862 268.576C246.965 268.431 247.996 267.937 248.81 267.163C249.608 266.454 250.109 265.458 250.208 264.383C250.212 263.868 250.095 263.36 249.865 262.902C249.629 262.42 249.311 261.984 248.927 261.614L248.859 261.55C248.743 261.441 248.658 261.303 248.613 261.15C248.567 260.996 248.564 260.833 248.601 260.677C248.677 260.354 248.839 260.058 249.069 259.822C249.21 259.673 249.363 259.535 249.526 259.412C249.802 259.204 250.092 259.015 250.392 258.847C250.953 258.532 251.53 258.251 252.122 258.003C253.154 257.619 254.103 257.034 254.917 256.281C255.716 255.523 256.361 254.612 256.814 253.598C257.275 252.583 257.552 251.49 257.631 250.374L257.635 250.316C257.643 250.169 257.693 250.028 257.779 249.908C257.864 249.789 257.981 249.697 258.115 249.644C258.25 249.59 258.397 249.577 258.539 249.607C258.681 249.636 258.811 249.706 258.915 249.808C259.578 250.471 260.289 251.081 261.044 251.632C261.75 252.176 262.552 252.576 263.406 252.809C263.794 252.916 264.2 252.934 264.595 252.861C264.991 252.788 265.365 252.625 265.691 252.386C266.363 251.834 266.858 251.091 267.114 250.25L267.125 250.214C267.461 249.149 267.379 247.993 266.896 246.989C266.417 245.91 265.769 244.918 264.98 244.05C263.371 242.274 261.578 240.681 259.633 239.3C255.71 236.543 251.532 234.185 247.159 232.258C247.041 232.204 246.945 232.111 246.888 231.993C246.83 231.875 246.814 231.741 246.843 231.613L246.852 231.572C246.996 230.655 246.954 229.717 246.727 228.817C246.52 227.873 246.209 226.955 245.802 226.081C245.071 224.354 243.846 222.894 242.286 221.892C241.516 221.465 240.661 221.226 239.786 221.191C238.91 221.156 238.039 221.328 237.239 221.692C235.487 222.482 233.855 223.526 232.394 224.791C230.86 226.056 229.396 227.405 228.008 228.834C226.594 230.251 225.225 231.725 223.897 233.237C221.255 236.278 218.684 239.401 216.218 242.615C216.211 242.626 216.201 242.634 216.191 242.641C216.18 242.647 216.168 242.652 216.155 242.653C216.143 242.655 216.13 242.655 216.118 242.651C216.106 242.648 216.094 242.642 216.084 242.635C216.065 242.62 216.053 242.598 216.048 242.574C216.044 242.55 216.048 242.525 216.061 242.505V242.505Z" fill="black"/>
<path d="M235.311 227.602C235.321 229.412 235.547 231.215 235.984 232.971C236.21 233.8 236.57 234.586 237.049 235.295C237.502 235.962 238.184 236.432 238.959 236.61C239.759 236.806 240.595 236.796 241.39 236.582C242.216 236.387 242.998 236.036 243.697 235.546C245.149 234.517 246.404 233.224 247.399 231.732C246.695 233.468 245.57 234.994 244.132 236.167C243.391 236.797 242.52 237.25 241.585 237.49C240.65 237.731 239.673 237.755 238.728 237.559C237.74 237.313 236.879 236.698 236.315 235.835C235.8 235.016 235.442 234.105 235.26 233.151C234.932 231.314 234.949 229.431 235.311 227.602V227.602Z" fill="black"/>
<path d="M249.423 244.904C251.245 244.971 253.018 245.529 254.561 246.521C255.339 247.001 256.06 247.571 256.709 248.22C257.359 248.861 257.925 249.585 258.393 250.374C257.711 249.772 257.056 249.174 256.358 248.631C255.672 248.082 254.954 247.577 254.207 247.118C253.463 246.653 252.692 246.238 251.896 245.873C251.093 245.497 250.267 245.174 249.423 244.904V244.904Z" fill="black"/>
<path d="M229.349 262.458C229.772 262.894 230.259 263.26 230.793 263.542C231.312 263.85 231.839 264.138 232.372 264.419C233.437 264.979 234.519 265.514 235.607 266.04C237.774 267.114 239.969 268.141 242.089 269.408C239.707 268.842 237.393 268.008 235.191 266.921C234.083 266.384 233.013 265.766 231.991 265.073C230.916 264.432 230.01 263.535 229.349 262.458V262.458Z" fill="black"/>
<path d="M246.25 249.146C246.626 249.356 246.953 249.643 247.212 249.99C247.362 250.175 247.47 250.391 247.528 250.623C247.586 250.855 247.594 251.097 247.55 251.332C247.414 251.799 247.129 252.206 246.741 252.489C246.39 252.764 246.006 252.992 245.599 253.167C245.412 253.248 245.231 253.342 245.058 253.448C244.893 253.53 244.734 253.624 244.583 253.729L244.169 254.099C244.044 254.237 243.93 254.384 243.826 254.539C243.389 255.16 243.127 255.892 243.069 256.654C242.96 257.406 243.071 258.175 243.388 258.863C243.705 259.551 244.214 260.128 244.851 260.523C245.008 260.631 245.182 260.712 245.365 260.762C245.546 260.822 245.722 260.904 245.91 260.955C246.298 261.031 246.69 261.08 247.085 261.1C247.491 261.111 247.897 261.096 248.302 261.056C248.705 260.984 249.114 260.923 249.532 260.868C249.147 261.023 248.752 261.173 248.352 261.311C247.941 261.427 247.524 261.516 247.102 261.579C246.668 261.617 246.232 261.619 245.798 261.586C245.578 261.547 245.361 261.496 245.148 261.432C244.926 261.389 244.711 261.312 244.512 261.203C243.666 260.811 242.98 260.13 242.574 259.276C242.181 258.429 242.023 257.489 242.116 256.556C242.209 255.624 242.549 254.736 243.101 253.986C243.241 253.8 243.395 253.624 243.561 253.461L244.108 253.024C244.493 252.798 244.898 252.61 245.318 252.463C246.051 252.292 246.69 251.839 247.102 251.197C247.163 251.022 247.186 250.836 247.168 250.65C247.15 250.465 247.092 250.287 246.998 250.127C246.803 249.761 246.55 249.43 246.25 249.146V249.146Z" fill="black"/>
<path d="M238.483 230.392C238.595 230.906 238.749 231.41 238.944 231.898C239.105 232.361 239.392 232.769 239.771 233.072C239.96 233.209 240.176 233.303 240.405 233.347C240.633 233.391 240.868 233.385 241.093 233.327C241.34 233.281 241.584 233.217 241.822 233.136C242.062 233.042 242.298 232.934 242.553 232.848C242.353 233.023 242.134 233.175 241.918 233.342C241.678 233.473 241.429 233.585 241.171 233.676C240.895 233.772 240.601 233.801 240.312 233.762C240.023 233.723 239.747 233.616 239.505 233.449C239.065 233.082 238.752 232.579 238.614 232.016C238.468 231.488 238.424 230.937 238.483 230.392Z" fill="black"/>
<path d="M239.359 229.757C239.873 229.608 240.406 229.535 240.94 229.54C241.485 229.543 242.026 229.631 242.544 229.801C243.085 229.982 243.556 230.33 243.892 230.798C244.183 231.283 244.283 231.863 244.172 232.42C244.11 231.909 243.917 231.423 243.612 231.012C243.283 230.644 242.861 230.377 242.392 230.239C241.408 229.936 240.387 229.773 239.359 229.757Z" fill="black"/>
<path d="M246.688 259.193C246.878 258.796 247.167 258.457 247.526 258.21C247.718 258.075 247.934 257.98 248.162 257.932C248.39 257.884 248.625 257.883 248.854 257.93C249.29 258.073 249.672 258.349 249.95 258.721C250.063 258.91 250.183 259.093 250.281 259.284C250.354 259.49 250.439 259.686 250.496 259.892C250.215 259.566 249.967 259.241 249.687 258.958C249.427 258.688 249.104 258.489 248.748 258.382C248.392 258.297 248.019 258.346 247.697 258.521C247.334 258.701 246.995 258.927 246.688 259.193V259.193Z" fill="black"/>
<path d="M229.859 261.361C229.885 260.595 230.076 259.844 230.42 259.163C230.511 258.972 230.639 258.802 230.797 258.663C230.955 258.524 231.139 258.42 231.338 258.357C231.548 258.315 231.764 258.323 231.97 258.379C232.177 258.435 232.368 258.538 232.531 258.68C232.846 258.923 233.114 259.225 233.321 259.569C233.532 259.933 233.603 260.365 233.521 260.78C233.408 261.154 233.216 261.498 232.958 261.788C232.7 262.079 232.383 262.307 232.029 262.459C232.601 262.036 233.008 261.419 233.175 260.718C233.205 260.392 233.131 260.064 232.964 259.784C232.775 259.5 232.537 259.253 232.262 259.055C232.154 258.946 232.023 258.864 231.879 258.814C231.736 258.764 231.583 258.749 231.432 258.768C231.133 258.87 230.878 259.077 230.715 259.353C230.339 259.977 230.05 260.654 229.859 261.361V261.361Z" fill="black"/>
<path d="M218.166 255.694C218.121 256.459 217.911 257.204 217.549 257.876C217.453 258.065 217.321 258.231 217.159 258.366C216.998 258.5 216.812 258.599 216.611 258.658C216.4 258.693 216.184 258.68 215.979 258.618C215.774 258.557 215.586 258.449 215.427 258.303C215.118 258.051 214.858 257.742 214.66 257.393C214.458 257.023 214.398 256.59 214.491 256.177C214.614 255.806 214.815 255.467 215.08 255.184C215.345 254.901 215.667 254.68 216.025 254.539C215.442 254.946 215.02 255.552 214.835 256.248C214.797 256.573 214.862 256.903 215.022 257.187C215.204 257.476 215.435 257.73 215.705 257.935C215.81 258.046 215.939 258.132 216.082 258.186C216.224 258.239 216.377 258.259 216.528 258.244C216.83 258.15 217.089 257.95 217.259 257.678C217.652 257.064 217.957 256.396 218.166 255.694V255.694Z" fill="black"/>
<path d="M225.028 268.347C225.224 267.819 225.499 267.325 225.844 266.883C226.02 266.649 226.231 266.445 226.469 266.278C226.606 266.173 226.766 266.105 226.934 266.078C227.103 266.051 227.275 266.067 227.437 266.124C227.723 266.289 227.937 266.558 228.039 266.877C228.142 267.149 228.207 267.435 228.232 267.725C228.299 268.286 228.275 268.855 228.159 269.408C228.1 268.863 228.009 268.323 227.887 267.789C227.829 267.535 227.752 267.285 227.658 267.043C227.548 266.829 227.418 266.599 227.253 266.549C226.942 266.375 226.457 266.768 226.102 267.123C225.724 267.513 225.366 267.921 225.028 268.347V268.347Z" fill="black"/>
<path d="M212.597 242.563L208.724 246.916C208.724 246.916 208.753 252.482 205.992 252.716C205.992 252.716 204.593 254.007 205.59 254.272C206.481 254.497 209.692 253.685 211.082 253.851C211.082 253.851 217.668 252.521 218.789 253.244C219.127 253.478 219.41 253.783 219.621 254.14C219.831 254.496 219.963 254.895 220.007 255.309L220.543 255.25L241.316 256.512L250.326 242.562L212.597 242.563ZM239.36 252.325L210.21 251.826L214.016 245.575H243.223L239.36 252.325Z" fill="black"/>
<path d="M188.709 252.719C189.832 251.883 191.103 251.276 192.451 250.93C193.821 250.57 195.241 250.445 196.651 250.56C196.777 250.57 196.895 250.631 196.977 250.73C197.06 250.828 197.101 250.956 197.091 251.085C197.082 251.214 197.022 251.334 196.926 251.419C196.83 251.503 196.705 251.546 196.579 251.537C196.559 251.535 196.539 251.532 196.52 251.528C195.211 251.265 193.868 251.225 192.546 251.409C191.197 251.59 189.894 252.035 188.709 252.719V252.719Z" fill="black"/>
<path d="M196.585 262.823C199.282 262.875 201.979 262.97 204.677 263.232C205.344 263.293 206.042 263.404 206.687 263.48C207.338 263.553 207.994 263.566 208.648 263.52C209.942 263.43 211.212 263.119 212.405 262.6L212.436 262.586C212.553 262.534 212.685 262.531 212.803 262.578C212.922 262.625 213.018 262.718 213.069 262.836C213.12 262.955 213.123 263.09 213.077 263.211C213.031 263.332 212.94 263.429 212.824 263.482L212.797 263.493C211.476 263.984 210.082 264.241 208.676 264.253C207.981 264.26 207.288 264.204 206.603 264.086C205.915 263.961 205.287 263.82 204.615 263.717C201.962 263.296 199.273 263.037 196.585 262.823Z" fill="black"/>
<path d="M198.664 270.414C199.578 270.078 200.502 269.765 201.436 269.475C202.381 269.171 203.343 268.93 204.319 268.754C204.445 268.734 204.574 268.765 204.677 268.841C204.781 268.917 204.85 269.032 204.87 269.161C204.891 269.289 204.86 269.421 204.786 269.527C204.711 269.632 204.598 269.703 204.472 269.724C204.447 269.728 204.421 269.73 204.395 269.73H204.386C203.432 269.741 202.481 269.816 201.536 269.953C200.578 270.08 199.619 270.236 198.664 270.414Z" fill="black"/>
<path d="M202.274 245.697C202.765 246.217 203.341 246.643 203.977 246.958C204.622 247.262 205.298 247.49 205.993 247.64C205.626 247.727 205.246 247.747 204.872 247.699C204.493 247.647 204.124 247.538 203.777 247.375C203.436 247.195 203.125 246.961 202.856 246.681C202.588 246.406 202.388 246.068 202.274 245.697V245.697Z" fill="black"/>
<path d="M216.906 262.995C216.651 262.996 216.407 262.894 216.227 262.711C216.046 262.529 215.944 262.28 215.943 262.021C215.941 261.762 216.041 261.512 216.22 261.328C216.399 261.144 216.643 261.04 216.897 261.038L229.039 260.922C229.166 260.918 229.292 260.94 229.41 260.987C229.528 261.034 229.635 261.105 229.725 261.196C229.816 261.286 229.887 261.394 229.936 261.514C229.984 261.633 230.008 261.761 230.007 261.89C230.008 262.019 229.985 262.146 229.938 262.266C229.89 262.385 229.821 262.493 229.733 262.585C229.644 262.677 229.539 262.75 229.424 262.8C229.308 262.851 229.183 262.877 229.057 262.878L216.915 262.995H216.906Z" fill="black"/>
<path d="M250.272 262.678C250.018 262.678 249.774 262.575 249.594 262.392C249.414 262.208 249.313 261.959 249.313 261.7C249.313 261.441 249.414 261.192 249.593 261.008C249.773 260.825 250.017 260.721 250.271 260.721L283.742 260.676H283.744C283.998 260.676 284.242 260.779 284.422 260.962C284.601 261.146 284.703 261.394 284.703 261.654C284.703 261.913 284.602 262.162 284.423 262.346C284.243 262.529 283.999 262.632 283.745 262.633L250.274 262.678H250.272Z" fill="black"/>
<path d="M472.481 262.376C472.227 262.376 471.983 262.273 471.803 262.09C471.623 261.906 471.522 261.658 471.522 261.398C471.522 261.139 471.623 260.89 471.802 260.706C471.982 260.523 472.226 260.42 472.48 260.42L503.246 260.381H503.247C503.501 260.381 503.745 260.484 503.925 260.668C504.104 260.851 504.206 261.1 504.206 261.359C504.206 261.618 504.105 261.867 503.925 262.051C503.746 262.234 503.502 262.338 503.248 262.338L472.482 262.376H472.481Z" fill="black"/>
<path d="M297.258 261.871H294.982C294.922 261.872 294.863 261.847 294.82 261.804C294.776 261.761 294.752 261.701 294.751 261.639C294.75 261.609 294.756 261.579 294.767 261.551C294.778 261.523 294.794 261.497 294.815 261.476C294.836 261.454 294.861 261.437 294.888 261.425C294.916 261.413 294.945 261.407 294.975 261.407H297.258C297.288 261.407 297.318 261.413 297.346 261.424C297.373 261.436 297.399 261.453 297.42 261.475C297.441 261.496 297.458 261.522 297.47 261.55C297.481 261.578 297.487 261.609 297.487 261.639C297.487 261.67 297.481 261.7 297.47 261.729C297.458 261.757 297.441 261.782 297.42 261.804C297.399 261.826 297.373 261.843 297.346 261.854C297.318 261.866 297.288 261.872 297.258 261.871V261.871Z" fill="black"/>
<path d="M1.75362 265.042C1.49939 265.043 1.2551 264.941 1.0745 264.758C0.893901 264.576 0.791778 264.327 0.790599 264.068C0.789419 263.809 0.889279 263.559 1.06821 263.375C1.24715 263.191 1.49049 263.087 1.74472 263.085L43.9481 262.685C44.2002 262.69 44.441 262.792 44.621 262.973C44.801 263.153 44.9064 263.397 44.9155 263.654C44.9167 263.782 44.8932 263.91 44.8461 264.029C44.799 264.148 44.7294 264.257 44.6412 264.348C44.553 264.44 44.448 264.513 44.3321 264.563C44.2162 264.614 44.0918 264.64 43.9659 264.641L1.76251 265.042H1.75362Z" fill="black"/>
<path d="M160.923 129.644C161.277 129.631 161.613 129.479 161.86 129.219C162.106 128.958 162.244 128.61 162.244 128.248C162.244 127.886 162.106 127.539 161.86 127.278C161.613 127.018 161.277 126.866 160.923 126.853C160.568 126.866 160.232 127.018 159.986 127.278C159.739 127.539 159.602 127.886 159.602 128.248C159.602 128.61 159.739 128.958 159.986 129.219C160.232 129.479 160.568 129.631 160.923 129.644V129.644Z" fill="black"/>
<path d="M230.048 102.578L218.853 103.003C215.181 103.117 211.549 103.208 207.938 103.276C204.332 103.328 200.739 103.386 197.16 103.345C193.58 103.317 190 103.154 186.384 103.052L186.916 102.509C186.858 104.617 186.765 106.725 186.737 108.833C186.686 110.941 186.684 113.049 186.672 115.157C186.669 119.373 186.756 123.589 186.873 127.805L186.384 127.306L195.317 127.053C195.408 127.051 195.499 127.066 195.584 127.1C195.669 127.133 195.746 127.184 195.812 127.248L195.839 127.274L199.25 130.622H198.077L201.376 127.159C201.456 127.075 201.551 127.008 201.656 126.962C201.761 126.916 201.874 126.892 201.988 126.891L202.011 126.891C206.695 126.851 211.379 126.753 216.063 126.762C218.405 126.75 220.747 126.76 223.089 126.791L230.115 126.882L229.211 127.805C229.275 123.697 229.391 119.587 229.558 115.393L230.048 102.578ZM230.183 102.439L230.673 114.921C230.84 119.159 230.956 123.482 231.02 127.806C231.024 128.047 230.934 128.279 230.769 128.453C230.604 128.626 230.379 128.725 230.143 128.729H230.141L230.115 128.729L223.089 128.82C220.747 128.848 218.405 128.858 216.063 128.849C211.379 128.858 206.695 128.76 202.011 128.72L202.644 128.453L199.251 131.819L199.231 131.839C199.154 131.915 199.064 131.975 198.964 132.015C198.865 132.055 198.759 132.075 198.652 132.074C198.545 132.072 198.44 132.049 198.342 132.006C198.244 131.963 198.155 131.901 198.08 131.822L198.077 131.819L194.796 128.338L195.317 128.558L186.384 128.305L186.356 128.304C186.23 128.301 186.111 128.246 186.024 128.153C185.938 128.059 185.891 127.934 185.894 127.806V127.806C186.011 123.589 186.098 119.373 186.095 115.157C186.083 113.049 186.081 110.941 186.03 108.833C186.002 106.725 185.909 104.617 185.851 102.509C185.849 102.439 185.861 102.37 185.885 102.306C185.909 102.241 185.946 102.181 185.992 102.131C186.039 102.081 186.095 102.04 186.157 102.012C186.219 101.984 186.286 101.968 186.354 101.966H186.354L186.384 101.965C190.056 101.863 193.765 101.7 197.473 101.673C201.183 101.631 204.878 101.69 208.561 101.741C212.239 101.809 215.896 101.9 219.512 102.014L230.183 102.439Z" fill="black"/>
<path d="M358.66 55.7833L342.183 56.0742L325.847 56.2843L293.4 56.5169L277.258 56.4589L261.124 56.2507C250.359 56.0821 239.539 56.0016 228.724 56.0293L229.033 55.7143L229.09 68.3626L229.233 81.0112L228.724 80.492C238.255 80.3594 247.787 80.2341 257.318 80.1667L285.912 80.0057C295.443 79.9305 304.975 80.017 314.506 80.0148C324.038 80.0029 333.569 80.1307 343.1 80.2085L343.114 80.2087C343.318 80.2106 343.513 80.2951 343.657 80.4437L346.973 83.8891H345.921L349.305 80.5123L349.317 80.4996C349.38 80.4369 349.455 80.3874 349.537 80.3541C349.618 80.3208 349.706 80.3043 349.794 80.3055L358.727 80.438L358.166 81.0112C358.231 76.8599 358.285 72.7088 358.397 68.5021L358.66 55.7833ZM358.795 55.645L359.058 68.2229C359.17 72.4487 359.224 76.7299 359.289 81.0111C359.291 81.1607 359.235 81.3051 359.133 81.4126C359.031 81.52 358.891 81.5817 358.745 81.5841H358.744L358.727 81.5843L349.794 81.7168L350.283 81.5103L346.973 84.9632C346.837 85.1056 346.651 85.1869 346.455 85.1891C346.26 85.1913 346.072 85.1143 345.932 84.975L345.931 84.9738L345.921 84.9633L342.544 81.5788L343.1 81.8138C333.569 81.8916 324.038 82.0194 314.506 82.0075C304.975 82.0053 295.443 82.0917 285.912 82.0165L257.318 81.8556C247.787 81.7882 238.255 81.6629 228.724 81.5303H228.711C228.645 81.5295 228.58 81.5154 228.519 81.4889C228.459 81.4623 228.404 81.4238 228.358 81.3756C228.311 81.3274 228.275 81.2704 228.251 81.2078C228.226 81.1453 228.214 81.0784 228.215 81.0111L228.358 68.3626L228.415 55.7143C228.415 55.6307 228.448 55.5505 228.505 55.4914C228.563 55.4323 228.642 55.399 228.724 55.3988C239.576 55.4267 250.423 55.3463 261.325 55.1776L277.692 54.9694L294.051 54.9111L326.606 55.1439L342.77 55.3539L358.795 55.645Z" fill="black"/>
<path d="M268.391 1.80071C261.361 2.0049 254.452 2.14699 247.582 2.26926C240.697 2.41518 233.895 2.48038 227.095 2.53386C220.298 2.58832 213.546 2.54486 206.779 2.39034C200.009 2.27213 193.208 2.07941 186.384 2.04477L186.691 1.73169C186.688 3.83968 186.658 5.94772 186.681 8.05572L186.719 14.38C186.724 18.5962 186.825 22.8123 186.885 27.0285L186.384 26.5165L195.317 26.3458C195.401 26.3441 195.484 26.3593 195.563 26.3906C195.641 26.4218 195.712 26.4685 195.772 26.528L195.791 26.5459L199.19 29.906H198.137L201.442 26.4482C201.513 26.3731 201.599 26.3133 201.693 26.2721C201.787 26.2308 201.889 26.209 201.991 26.208L202.011 26.2077L218.622 26.0604C224.16 26.0155 229.697 25.9742 235.234 25.983C246.309 25.9777 257.384 26.143 268.458 26.2935L267.738 27.0285L268.033 14.5601L268.391 1.80071ZM268.526 1.66245L268.884 14.1999L269.179 27.0285C269.183 27.2189 269.113 27.4032 268.984 27.541C268.856 27.6788 268.678 27.7587 268.492 27.7631L268.485 27.7634L268.458 27.7636C257.384 27.9141 246.309 28.0793 235.234 28.0741C229.697 28.0832 224.16 28.0416 218.622 27.9969L202.011 27.8494L202.579 27.6091L199.191 30.9809L199.175 30.996C199.036 31.1345 198.849 31.2109 198.654 31.2084C198.46 31.206 198.275 31.1248 198.139 30.9828L198.137 30.9809L194.844 27.5114L195.317 27.7113L186.384 27.5406L186.367 27.5403C186.302 27.5393 186.238 27.5253 186.179 27.499C186.119 27.4727 186.065 27.4347 186.02 27.3872C185.975 27.3396 185.94 27.2835 185.916 27.2219C185.892 27.1604 185.881 27.0947 185.882 27.0285C185.942 22.8123 186.043 18.5963 186.048 14.38L186.086 8.05573C186.109 5.94775 186.079 3.83971 186.076 1.7317C186.077 1.64858 186.109 1.56888 186.167 1.51009C186.224 1.4513 186.302 1.41823 186.384 1.41814C193.238 1.38351 200.116 1.19079 207.025 1.07284C213.938 0.918088 220.865 0.874866 227.747 0.929048C234.626 0.982779 241.503 1.04798 248.298 1.19389C255.107 1.31593 261.877 1.45826 268.526 1.66244V1.66245Z" fill="black"/>
</svg>
